<?xml version="1.0" encoding="utf-8"?>
<!-- Generator: Adobe Illustrator 16.0.0, SVG Export Plug-In . SVG Version: 6.00 Build 0)  -->
<!DOCTYPE svg PUBLIC "-//W3C//DTD SVG 1.1//EN" "http://www.w3.org/Graphics/SVG/1.1/DTD/svg11.dtd">
<svg version="1.1" xmlns="http://www.w3.org/2000/svg" xmlns:xlink="http://www.w3.org/1999/xlink" x="0px" y="0px" width="150px"
	 height="150px" viewBox="0 0 150 150" enable-background="new 0 0 150 150" xml:space="preserve">
<g id="intranet_1_" display="none">
	<path display="inline" fill="#37424A" d="M20.276,103.322h19.047c1.063,0,1.93-0.867,1.93-1.934c0-1.065-0.867-1.932-1.93-1.932
		H20.276c-1.063,0-1.93,0.866-1.93,1.932C18.346,102.455,19.213,103.322,20.276,103.322z"/>
	<circle display="inline" fill="#878E92" cx="29.8" cy="85.303" r="9.53"/>
	<path display="inline" fill="#37424A" d="M8.421,67.122h38.441c1.062,0,1.929-0.867,1.929-1.935c0-1.064-0.867-1.931-1.929-1.931
		H8.421c-1.062,0-1.93,0.866-1.93,1.931C6.492,66.255,7.36,67.122,8.421,67.122z"/>
	<path display="inline" fill="#37424A" d="M67.807,103.322h19.046c1.063,0,1.93-0.867,1.93-1.934c0-1.065-0.867-1.932-1.93-1.932
		H67.807c-1.063,0-1.93,0.866-1.93,1.932C65.877,102.455,66.745,103.322,67.807,103.322z"/>
	<circle display="inline" fill="#878E92" cx="77.332" cy="84.822" r="9.531"/>
	<path display="inline" fill="#37424A" d="M113.518,103.322h19.047c1.063,0,1.93-0.867,1.93-1.934c0-1.065-0.867-1.932-1.93-1.932
		h-19.047c-1.063,0-1.93,0.866-1.93,1.932C111.588,102.455,112.455,103.322,113.518,103.322z"/>
	<circle display="inline" fill="#878E92" cx="123.044" cy="84.822" r="9.532"/>
	<path display="inline" fill="#AFB3B7" d="M19.168,113.419h20.377c0.515,0,0.937-0.422,0.937-0.938c0-0.518-0.422-0.938-0.937-0.938
		H19.168c-0.514,0-0.937,0.42-0.937,0.938C18.232,112.997,18.655,113.419,19.168,113.419z"/>
	<path display="inline" fill="#AFB3B7" d="M19.168,118.856h20.377c0.515,0,0.937-0.422,0.937-0.938c0-0.52-0.422-0.938-0.937-0.938
		H19.168c-0.514,0-0.937,0.418-0.937,0.938C18.232,118.435,18.655,118.856,19.168,118.856z"/>
	<path display="inline" fill="#AFB3B7" d="M19.168,124.293h20.377c0.515,0,0.937-0.422,0.937-0.938s-0.422-0.938-0.937-0.938H19.168
		c-0.514,0-0.937,0.421-0.937,0.938S18.655,124.293,19.168,124.293z"/>
	<path display="inline" fill="#AFB3B7" d="M67.143,113.419H87.52c0.514,0,0.936-0.422,0.936-0.938c0-0.518-0.422-0.938-0.936-0.938
		H67.143c-0.515,0-0.937,0.42-0.937,0.938C66.207,112.997,66.628,113.419,67.143,113.419z"/>
	<path display="inline" fill="#AFB3B7" d="M67.143,118.856H87.52c0.514,0,0.936-0.422,0.936-0.938c0-0.52-0.422-0.938-0.936-0.938
		H67.143c-0.515,0-0.937,0.418-0.937,0.938C66.207,118.435,66.628,118.856,67.143,118.856z"/>
	<path display="inline" fill="#AFB3B7" d="M67.143,124.293H87.52c0.514,0,0.936-0.422,0.936-0.938s-0.422-0.938-0.936-0.938H67.143
		c-0.515,0-0.937,0.421-0.937,0.938S66.628,124.293,67.143,124.293z"/>
	<path display="inline" fill="#AFB3B7" d="M112.855,113.419h20.379c0.514,0,0.936-0.422,0.936-0.938
		c0-0.518-0.422-0.938-0.936-0.938h-20.379c-0.514,0-0.936,0.42-0.936,0.938C111.92,112.997,112.342,113.419,112.855,113.419z"/>
	<path display="inline" fill="#AFB3B7" d="M112.855,118.856h20.379c0.514,0,0.936-0.422,0.936-0.938c0-0.52-0.422-0.938-0.936-0.938
		h-20.379c-0.514,0-0.936,0.418-0.936,0.938C111.92,118.435,112.342,118.856,112.855,118.856z"/>
	<path display="inline" fill="#AFB3B7" d="M112.855,124.293h20.379c0.514,0,0.936-0.422,0.936-0.938s-0.422-0.938-0.936-0.938
		h-20.379c-0.514,0-0.936,0.421-0.936,0.938S112.342,124.293,112.855,124.293z"/>
	<path display="inline" fill="#5F686E" d="M9.921,59.284c-1.894,0-3.43-1.536-3.43-3.431V20.03c0-1.894,1.536-3.43,3.43-3.43h35.44
		c1.895,0,3.43,1.536,3.43,3.43v35.823c0,1.895-1.535,3.431-3.43,3.431H9.921z"/>
	<path display="inline" fill="#37424A" d="M99.953,27.977h-42.16c-1.894,0-3.43-1.535-3.43-3.43v-4.5c0-1.894,1.536-3.43,3.43-3.43
		h42.16V27.977z"/>
	<path display="inline" fill="#5F686E" d="M99.953,27.977h40.941c1.893,0,3.43-1.535,3.43-3.43v-4.5c0-1.894-1.537-3.43-3.43-3.43
		H99.953V27.977z"/>
	<path display="inline" fill="#37424A" d="M99.953,47.91h-42.16c-1.894,0-3.43-1.535-3.43-3.43v-4.5c0-1.894,1.536-3.43,3.43-3.43
		h42.16V47.91z"/>
	<path display="inline" fill="#5F686E" d="M99.953,47.91h40.941c1.893,0,3.43-1.535,3.43-3.43v-4.5c0-1.894-1.537-3.43-3.43-3.43
		H99.953V47.91z"/>
	<path display="inline" fill="#37424A" d="M99.953,66.773h-42.16c-1.894,0-3.43-1.535-3.43-3.43v-4.5c0-1.894,1.536-3.43,3.43-3.43
		h42.16V66.773z"/>
	<path display="inline" fill="#5F686E" d="M99.953,66.773h40.941c1.893,0,3.43-1.535,3.43-3.43v-4.5c0-1.894-1.537-3.43-3.43-3.43
		H99.953V66.773z"/>
	<path display="inline" fill="#AFB3B7" d="M9.126,149.029c-1.895,0-3.43-1.536-3.43-3.43v-9.717c0-1.894,1.535-3.43,3.43-3.43
		h131.768c1.893,0,3.43,1.536,3.43,3.43v9.717c0,1.894-1.537,3.43-3.43,3.43H9.126z"/>
	<path display="inline" fill="#AFB3B7" d="M9.126,9.547c-1.895,0-3.43-1.536-3.43-3.43V4.975c0-1.894,1.535-3.43,3.43-3.43h131.768
		c1.893,0,3.43,1.536,3.43,3.43v1.143c0,1.894-1.537,3.43-3.43,3.43H9.126z"/>
	<circle display="inline" fill="#37424A" cx="99.953" cy="22.297" r="2.605"/>
	<circle display="inline" fill="#37424A" cx="99.953" cy="42.23" r="2.605"/>
	<circle display="inline" fill="#37424A" cx="99.953" cy="61.295" r="2.605"/>
</g>
<g id="css_library" display="none">
	<circle display="inline" fill="#37424A" cx="10.229" cy="65.033" r="2.606"/>
	<path display="inline" fill="#37424A" d="M32.741,93.904h19.047c1.063,0,1.93-0.867,1.93-1.934c0-1.065-0.867-1.932-1.93-1.932
		H32.741c-1.063,0-1.93,0.866-1.93,1.932C30.812,93.037,31.679,93.904,32.741,93.904z"/>
	<path display="inline" fill="#5F686E" d="M6.364,58.416v33.168c0,1.063,0.867,1.93,1.934,1.93c1.065,0,1.932-0.867,1.932-1.93
		V58.416c0-1.063-0.866-1.93-1.932-1.93C7.231,56.486,6.364,57.354,6.364,58.416z"/>
	<circle display="inline" fill="#5F686E" cx="75.679" cy="99.513" r="9.53"/>
	<path display="inline" fill="#37424A" d="M56.458,58.093h38.441c1.062,0,1.929-0.867,1.929-1.935c0-1.064-0.867-1.931-1.929-1.931
		H56.458c-1.062,0-1.93,0.866-1.93,1.931C54.528,57.226,55.396,58.093,56.458,58.093z"/>
	<path display="inline" fill="#37424A" d="M262.776,190.96h19.047c1.062,0,1.929-0.867,1.929-1.934c0-1.065-0.867-1.932-1.929-1.932
		h-19.047c-1.063,0-1.93,0.866-1.93,1.932C260.847,190.093,261.714,190.96,262.776,190.96z"/>
	<circle display="inline" fill="#878E92" cx="272.301" cy="172.46" r="9.532"/>
	<path display="inline" fill="#37424A" d="M308.487,190.96h19.047c1.063,0,1.93-0.867,1.93-1.934c0-1.065-0.867-1.932-1.93-1.932
		h-19.047c-1.063,0-1.93,0.866-1.93,1.932C306.558,190.093,307.425,190.96,308.487,190.96z"/>
	<circle display="inline" fill="#878E92" cx="318.013" cy="172.46" r="9.532"/>
	<path display="inline" fill="#AFB3B7" d="M36.333,104.001h15.677c0.515,0,0.937-0.422,0.937-0.938c0-0.518-0.422-0.938-0.937-0.938
		H36.333c-0.514,0-0.937,0.42-0.937,0.938C35.397,103.579,35.82,104.001,36.333,104.001z"/>
	<path display="inline" fill="#AFB3B7" d="M31.634,109.438h20.377c0.515,0,0.937-0.422,0.937-0.938c0-0.52-0.422-0.938-0.937-0.938
		H31.634c-0.514,0-0.937,0.418-0.937,0.938C30.697,109.017,31.12,109.438,31.634,109.438z"/>
	<path display="inline" fill="#AFB3B7" d="M31.634,114.875h20.377c0.515,0,0.937-0.422,0.937-0.938s-0.422-0.938-0.937-0.938H31.634
		c-0.514,0-0.937,0.421-0.937,0.938S31.12,114.875,31.634,114.875z"/>
	<path display="inline" fill="#AFB3B7" d="M31.634,119.855h20.377c0.515,0,0.937-0.422,0.937-0.938c0-0.518-0.422-0.938-0.937-0.938
		H31.634c-0.514,0-0.937,0.42-0.937,0.938C30.697,119.434,31.12,119.855,31.634,119.855z"/>
	<path display="inline" fill="#AFB3B7" d="M31.634,125.293h20.377c0.515,0,0.937-0.422,0.937-0.938c0-0.52-0.422-0.938-0.937-0.938
		H31.634c-0.514,0-0.937,0.418-0.937,0.938C30.697,124.871,31.12,125.293,31.634,125.293z"/>
	<path display="inline" fill="#AFB3B7" d="M31.634,130.729h20.377c0.515,0,0.937-0.422,0.937-0.938s-0.422-0.938-0.937-0.938H31.634
		c-0.514,0-0.937,0.421-0.937,0.938S31.12,130.729,31.634,130.729z"/>
	<path display="inline" fill="#5F686E" d="M66.098,119.855h20.377c0.515,0,0.937-0.422,0.937-0.938c0-0.518-0.422-0.938-0.937-0.938
		H66.098c-0.514,0-0.937,0.42-0.937,0.938C65.161,119.434,65.584,119.855,66.098,119.855z"/>
	<path display="inline" fill="#5F686E" d="M66.098,114.875h20.377c0.515,0,0.937-0.422,0.937-0.938c0-0.518-0.422-0.938-0.937-0.938
		H66.098c-0.514,0-0.937,0.42-0.937,0.938C65.161,114.453,65.584,114.875,66.098,114.875z"/>
	<path display="inline" fill="#5F686E" d="M66.098,125.293h20.377c0.515,0,0.937-0.422,0.937-0.938c0-0.52-0.422-0.938-0.937-0.938
		H66.098c-0.514,0-0.937,0.418-0.937,0.938C65.161,124.871,65.584,125.293,66.098,125.293z"/>
	<path display="inline" fill="#5F686E" d="M66.098,130.729h20.377c0.515,0,0.937-0.422,0.937-0.938s-0.422-0.938-0.937-0.938H66.098
		c-0.514,0-0.937,0.421-0.937,0.938S65.584,130.729,66.098,130.729z"/>
	<path display="inline" fill="#AFB3B7" d="M262.112,201.057h20.377c0.513,0,0.935-0.422,0.935-0.938
		c0-0.518-0.422-0.938-0.935-0.938h-20.377c-0.515,0-0.937,0.42-0.937,0.938C261.176,200.635,261.598,201.057,262.112,201.057z"/>
	<path display="inline" fill="#AFB3B7" d="M262.112,206.494h20.377c0.513,0,0.935-0.422,0.935-0.938c0-0.52-0.422-0.938-0.935-0.938
		h-20.377c-0.515,0-0.937,0.418-0.937,0.938C261.176,206.072,261.598,206.494,262.112,206.494z"/>
	<path display="inline" fill="#AFB3B7" d="M262.112,211.931h20.377c0.513,0,0.935-0.422,0.935-0.938s-0.422-0.938-0.935-0.938
		h-20.377c-0.515,0-0.937,0.421-0.937,0.938S261.598,211.931,262.112,211.931z"/>
	<path display="inline" fill="#AFB3B7" d="M307.824,201.057h20.38c0.513,0,0.935-0.422,0.935-0.938c0-0.518-0.422-0.938-0.935-0.938
		h-20.38c-0.513,0-0.935,0.42-0.935,0.938C306.89,200.635,307.312,201.057,307.824,201.057z"/>
	<path display="inline" fill="#AFB3B7" d="M307.824,206.494h20.38c0.513,0,0.935-0.422,0.935-0.938c0-0.52-0.422-0.938-0.935-0.938
		h-20.38c-0.513,0-0.935,0.418-0.935,0.938C306.89,206.072,307.312,206.494,307.824,206.494z"/>
	<path display="inline" fill="#AFB3B7" d="M307.824,211.931h20.38c0.513,0,0.935-0.422,0.935-0.938s-0.422-0.938-0.935-0.938h-20.38
		c-0.513,0-0.935,0.421-0.935,0.938S307.312,211.931,307.824,211.931z"/>
	<path display="inline" fill="#5F686E" d="M57.958,50.255c-1.894,0-3.43-1.536-3.43-3.431V20.001c0-1.894,1.536-3.43,3.43-3.43
		h35.44c1.895,0,3.43,1.536,3.43,3.43v26.823c0,1.895-1.535,3.431-3.43,3.431H57.958z"/>
	<path display="inline" fill="#AFB3B7" d="M100.258,130.666c-1.894,0-3.43-1.536-3.43-3.431V93.412c0-1.894,1.536-3.43,3.43-3.43
		h18.686c1.895,0,3.43,1.536,3.43,3.43v33.823c0,1.895-1.535,3.431-3.43,3.431H100.258z"/>
	<path display="inline" fill="#5F686E" d="M76.286,79.359H34.127c-1.894,0-3.43-1.535-3.43-3.43v-4.5c0-1.894,1.536-3.43,3.43-3.43
		h42.159V79.359z"/>
	<path display="inline" fill="#37424A" d="M76.286,79.359h40.942c1.893,0,3.43-1.535,3.43-3.43v-4.5c0-1.894-1.537-3.43-3.43-3.43
		H76.286V79.359z"/>
	<path display="inline" fill="#37424A" d="M288.563,94.514h-42.159c-1.894,0-3.43-1.535-3.43-3.43v-4.5
		c0-1.894,1.536-3.43,3.43-3.43h42.159V94.514z"/>
	<path display="inline" fill="#5F686E" d="M288.563,94.514h40.942c1.893,0,3.43-1.535,3.43-3.43v-4.5c0-1.894-1.537-3.43-3.43-3.43
		h-40.942V94.514z"/>
	<path display="inline" fill="#37424A" d="M287.953,47.881h-42.159c-1.894,0-3.43-1.535-3.43-3.43v-4.5
		c0-1.894,1.536-3.43,3.43-3.43h42.159V47.881z"/>
	<path display="inline" fill="#5F686E" d="M287.953,47.881h40.942c1.893,0,3.43-1.535,3.43-3.43v-4.5c0-1.894-1.537-3.43-3.43-3.43
		h-40.942V47.881z"/>
	<path display="inline" fill="#37424A" d="M287.953,66.744h-42.159c-1.894,0-3.43-1.535-3.43-3.43v-4.5
		c0-1.894,1.536-3.43,3.43-3.43h42.159V66.744z"/>
	<path display="inline" fill="#5F686E" d="M287.953,66.744h40.942c1.893,0,3.43-1.535,3.43-3.43v-4.5c0-1.894-1.537-3.43-3.43-3.43
		h-40.942V66.744z"/>
	<path display="inline" fill="#AFB3B7" d="M204.096,236.667c-1.895,0-3.43-1.536-3.43-3.43v-9.717c0-1.894,1.535-3.43,3.43-3.43
		h131.769c1.893,0,3.43,1.536,3.43,3.43v9.717c0,1.894-1.537,3.43-3.43,3.43H204.096z"/>
	<path display="inline" fill="#AFB3B7" d="M9.794,9.518c-1.895,0-3.43-1.536-3.43-3.43V4.945c0-1.894,1.535-3.43,3.43-3.43h131.769
		c1.893,0,3.43,1.536,3.43,3.43v1.143c0,1.894-1.537,3.43-3.43,3.43H9.794z"/>
	<path display="inline" fill="#37424A" d="M34.241,148.518c-1.895,0-3.43-1.535-3.43-3.43v-1.143c0-1.893,1.535-3.43,3.43-3.43
		h84.702c1.893,0,3.43,1.537,3.43,3.43v1.143c0,1.895-1.537,3.43-3.43,3.43H34.241z"/>
	<circle display="inline" fill="#37424A" cx="142.386" cy="65.033" r="2.606"/>
	<circle display="inline" fill="#AFB3B7" cx="142.386" cy="75" r="2.606"/>
	<circle display="inline" fill="#AFB3B7" cx="142.386" cy="84.967" r="2.606"/>
	<circle display="inline" fill="#5F686E" cx="10.229" cy="75" r="2.606"/>
	<circle display="inline" fill="#5F686E" cx="10.229" cy="84.967" r="2.606"/>
</g>
<g id="forecast" display="none">
	<path display="inline" fill="#5F686E" d="M99.076,113.895h19.048c1.063,0,1.93-0.867,1.93-1.934c0-1.065-0.867-1.932-1.93-1.932
		H99.076c-1.063,0-1.93,0.866-1.93,1.932C97.146,113.027,98.014,113.895,99.076,113.895z"/>
	<path display="inline" fill="#AFB3B7" d="M6.364,174.376v33.168c0,1.063,0.867,1.93,1.934,1.93c1.065,0,1.932-0.867,1.932-1.93
		v-33.168c0-1.063-0.866-1.93-1.932-1.93C7.231,172.446,6.364,173.313,6.364,174.376z"/>
	<circle display="inline" fill="#37424A" cx="42.265" cy="83.303" r="18.394"/>
	<path display="inline" fill="#5F686E" d="M42.267,64.908c10.159,0,18.393,8.237,18.393,18.395c0,10.159-8.233,18.396-18.393,18.396
		V64.908z"/>
	<circle display="inline" fill="#37424A" cx="108.601" cy="83.303" r="18.394"/>
	<path display="inline" fill="#AFB3B7" d="M56.458,174.393h38.441c1.062,0,1.929-0.867,1.929-1.935c0-1.064-0.867-1.931-1.929-1.931
		H56.458c-1.062,0-1.93,0.866-1.93,1.931C54.528,173.525,55.396,174.393,56.458,174.393z"/>
	<path display="inline" fill="#37424A" d="M262.776,190.96h19.047c1.062,0,1.929-0.867,1.929-1.934c0-1.065-0.867-1.932-1.929-1.932
		h-19.047c-1.063,0-1.93,0.866-1.93,1.932C260.847,190.093,261.714,190.96,262.776,190.96z"/>
	<circle display="inline" fill="#878E92" cx="272.301" cy="172.46" r="9.532"/>
	<path display="inline" fill="#37424A" d="M308.487,190.96h19.047c1.063,0,1.93-0.867,1.93-1.934c0-1.065-0.867-1.932-1.93-1.932
		h-19.047c-1.063,0-1.93,0.866-1.93,1.932C306.558,190.093,307.425,190.96,308.487,190.96z"/>
	<circle display="inline" fill="#878E92" cx="318.013" cy="172.46" r="9.532"/>
	<path display="inline" fill="#AFB3B7" d="M32.077,60.031h20.377c0.515,0,0.937-0.422,0.937-0.938c0-0.518-0.422-0.938-0.937-0.938
		H32.077c-0.514,0-0.937,0.42-0.937,0.938C31.14,59.609,31.563,60.031,32.077,60.031z"/>
	<path display="inline" fill="#AFB3B7" d="M98.412,60.031h20.377c0.515,0,0.937-0.422,0.937-0.938c0-0.518-0.422-0.938-0.937-0.938
		H98.412c-0.514,0-0.937,0.42-0.937,0.938C97.476,59.609,97.898,60.031,98.412,60.031z"/>
	<path display="inline" fill="#AFB3B7" d="M11.166,245.376h20.377c0.515,0,0.937-0.422,0.937-0.938c0-0.52-0.422-0.938-0.937-0.938
		H11.166c-0.514,0-0.937,0.418-0.937,0.938C10.229,244.954,10.652,245.376,11.166,245.376z"/>
	<path display="inline" fill="#AFB3B7" d="M11.166,250.813h20.377c0.515,0,0.937-0.422,0.937-0.938s-0.422-0.938-0.937-0.938H11.166
		c-0.514,0-0.937,0.421-0.937,0.938S10.652,250.813,11.166,250.813z"/>
	<path display="inline" fill="#AFB3B7" d="M11.166,255.793h20.377c0.515,0,0.937-0.422,0.937-0.938c0-0.518-0.422-0.938-0.937-0.938
		H11.166c-0.514,0-0.937,0.42-0.937,0.938C10.229,255.371,10.652,255.793,11.166,255.793z"/>
	<path display="inline" fill="#AFB3B7" d="M11.166,261.23h20.377c0.515,0,0.937-0.422,0.937-0.938c0-0.52-0.422-0.938-0.937-0.938
		H11.166c-0.514,0-0.937,0.418-0.937,0.938C10.229,260.809,10.652,261.23,11.166,261.23z"/>
	<path display="inline" fill="#AFB3B7" d="M11.166,266.667h20.377c0.515,0,0.937-0.422,0.937-0.938s-0.422-0.938-0.937-0.938H11.166
		c-0.514,0-0.937,0.421-0.937,0.938S10.652,266.667,11.166,266.667z"/>
	<path display="inline" fill="#AFB3B7" d="M98.412,120.992h20.377c0.515,0,0.937-0.422,0.937-0.938c0-0.518-0.422-0.938-0.937-0.938
		H98.412c-0.514,0-0.937,0.42-0.937,0.938C97.476,120.57,97.898,120.992,98.412,120.992z"/>
	<path display="inline" fill="#AFB3B7" d="M36.63,111.962h20.377c0.515,0,0.937-0.422,0.937-0.938c0-0.518-0.422-0.938-0.937-0.938
		H36.63c-0.514,0-0.937,0.42-0.937,0.938C35.693,111.54,36.116,111.962,36.63,111.962z"/>
	<path display="inline" fill="#5F686E" d="M36.63,121.929h20.377c0.515,0,0.937-0.422,0.937-0.938c0-0.518-0.422-0.938-0.937-0.938
		H36.63c-0.514,0-0.937,0.42-0.937,0.938C35.693,121.507,36.116,121.929,36.63,121.929z"/>
	<path display="inline" fill="#37424A" d="M36.63,131.896h20.377c0.515,0,0.937-0.422,0.937-0.938c0-0.518-0.422-0.938-0.937-0.938
		H36.63c-0.514,0-0.937,0.42-0.937,0.938C35.693,131.474,36.116,131.896,36.63,131.896z"/>
	<path display="inline" fill="#AFB3B7" d="M98.412,126.43h20.377c0.515,0,0.937-0.422,0.937-0.938c0-0.52-0.422-0.938-0.937-0.938
		H98.412c-0.514,0-0.937,0.418-0.937,0.938C97.476,126.008,97.898,126.43,98.412,126.43z"/>
	<path display="inline" fill="#AFB3B7" d="M98.412,131.866h20.377c0.515,0,0.937-0.422,0.937-0.938s-0.422-0.938-0.937-0.938H98.412
		c-0.514,0-0.937,0.421-0.937,0.938S97.898,131.866,98.412,131.866z"/>
	<path display="inline" fill="#AFB3B7" d="M262.112,201.057h20.377c0.513,0,0.935-0.422,0.935-0.938
		c0-0.518-0.422-0.938-0.935-0.938h-20.377c-0.515,0-0.937,0.42-0.937,0.938C261.176,200.635,261.598,201.057,262.112,201.057z"/>
	<path display="inline" fill="#AFB3B7" d="M262.112,206.494h20.377c0.513,0,0.935-0.422,0.935-0.938c0-0.52-0.422-0.938-0.935-0.938
		h-20.377c-0.515,0-0.937,0.418-0.937,0.938C261.176,206.072,261.598,206.494,262.112,206.494z"/>
	<path display="inline" fill="#AFB3B7" d="M262.112,211.931h20.377c0.513,0,0.935-0.422,0.935-0.938s-0.422-0.938-0.935-0.938
		h-20.377c-0.515,0-0.937,0.421-0.937,0.938S261.598,211.931,262.112,211.931z"/>
	<path display="inline" fill="#AFB3B7" d="M307.824,201.057h20.38c0.513,0,0.935-0.422,0.935-0.938c0-0.518-0.422-0.938-0.935-0.938
		h-20.38c-0.513,0-0.935,0.42-0.935,0.938C306.89,200.635,307.312,201.057,307.824,201.057z"/>
	<path display="inline" fill="#AFB3B7" d="M307.824,206.494h20.38c0.513,0,0.935-0.422,0.935-0.938c0-0.52-0.422-0.938-0.935-0.938
		h-20.38c-0.513,0-0.935,0.418-0.935,0.938C306.89,206.072,307.312,206.494,307.824,206.494z"/>
	<path display="inline" fill="#AFB3B7" d="M307.824,211.931h20.38c0.513,0,0.935-0.422,0.935-0.938s-0.422-0.938-0.935-0.938h-20.38
		c-0.513,0-0.935,0.421-0.935,0.938S307.312,211.931,307.824,211.931z"/>
	<path display="inline" fill="#AFB3B7" d="M10.012,50.255c-1.894,0-3.43-1.536-3.43-3.431V20.001c0-1.894,1.536-3.43,3.43-3.43
		h130.66c1.895,0,3.43,1.536,3.43,3.43v26.823c0,1.895-1.535,3.431-3.43,3.431H10.012z"/>
	<path display="inline" fill="#5F686E" d="M100.258,277.351c-1.894,0-3.43-1.536-3.43-3.431v-33.823c0-1.894,1.536-3.43,3.43-3.43
		h18.686c1.895,0,3.43,1.536,3.43,3.43v33.823c0,1.895-1.535,3.431-3.43,3.431H100.258z"/>
	<path display="inline" fill="#5F686E" d="M76.286,217.61H34.127c-1.894,0-3.43-1.535-3.43-3.43v-4.5c0-1.894,1.536-3.43,3.43-3.43
		h42.159V217.61z"/>
	<path display="inline" fill="#37424A" d="M76.286,217.61h40.942c1.893,0,3.43-1.535,3.43-3.43v-4.5c0-1.894-1.537-3.43-3.43-3.43
		H76.286V217.61z"/>
	<path display="inline" fill="#37424A" d="M288.563,94.514h-42.159c-1.894,0-3.43-1.535-3.43-3.43v-4.5
		c0-1.894,1.536-3.43,3.43-3.43h42.159V94.514z"/>
	<path display="inline" fill="#5F686E" d="M288.563,94.514h40.942c1.893,0,3.43-1.535,3.43-3.43v-4.5c0-1.894-1.537-3.43-3.43-3.43
		h-40.942V94.514z"/>
	<path display="inline" fill="#37424A" d="M287.953,47.881h-42.159c-1.894,0-3.43-1.535-3.43-3.43v-4.5
		c0-1.894,1.536-3.43,3.43-3.43h42.159V47.881z"/>
	<path display="inline" fill="#5F686E" d="M287.953,47.881h40.942c1.893,0,3.43-1.535,3.43-3.43v-4.5c0-1.894-1.537-3.43-3.43-3.43
		h-40.942V47.881z"/>
	<path display="inline" fill="#37424A" d="M287.953,66.744h-42.159c-1.894,0-3.43-1.535-3.43-3.43v-4.5
		c0-1.894,1.536-3.43,3.43-3.43h42.159V66.744z"/>
	<path display="inline" fill="#5F686E" d="M287.953,66.744h40.942c1.893,0,3.43-1.535,3.43-3.43v-4.5c0-1.894-1.537-3.43-3.43-3.43
		h-40.942V66.744z"/>
	<path display="inline" fill="#AFB3B7" d="M204.096,236.667c-1.895,0-3.43-1.536-3.43-3.43v-9.717c0-1.894,1.535-3.43,3.43-3.43
		h131.769c1.893,0,3.43,1.536,3.43,3.43v9.717c0,1.894-1.537,3.43-3.43,3.43H204.096z"/>
	<path display="inline" fill="#37424A" d="M9.794,9.518c-1.895,0-3.43-1.536-3.43-3.43V4.945c0-1.894,1.535-3.43,3.43-3.43h131.769
		c1.893,0,3.43,1.536,3.43,3.43v1.143c0,1.894-1.537,3.43-3.43,3.43H9.794z"/>
	<path display="inline" fill="#5F686E" d="M9.794,148.518c-1.895,0-3.43-1.535-3.43-3.43v-1.143c0-1.893,1.535-3.43,3.43-3.43
		h131.769c1.893,0,3.43,1.537,3.43,3.43v1.143c0,1.895-1.537,3.43-3.43,3.43H9.794z"/>
	<circle display="inline" fill="#AFB3B7" cx="27.534" cy="111.024" r="2.606"/>
	<circle display="inline" fill="#5F686E" cx="27.534" cy="120.991" r="2.606"/>
	<circle display="inline" fill="#37424A" cx="27.534" cy="130.958" r="2.606"/>
	<path display="inline" fill="#5F686E" d="M108.601,64.908c10.159,0,18.393,8.237,18.393,18.395
		c0,10.159-8.233,18.396-18.393,18.396V64.908z"/>
</g>
<g id="raan_widget" display="none">
	<path display="inline" fill="#AFB3B7" d="M6.364,174.376v33.168c0,1.063,0.867,1.93,1.934,1.93c1.065,0,1.932-0.867,1.932-1.93
		v-33.168c0-1.063-0.866-1.93-1.932-1.93C7.231,172.446,6.364,173.313,6.364,174.376z"/>
	<path display="inline" fill="#AFB3B7" d="M56.458,174.393h38.441c1.062,0,1.929-0.867,1.929-1.935c0-1.064-0.867-1.931-1.929-1.931
		H56.458c-1.062,0-1.93,0.866-1.93,1.931C54.528,173.525,55.396,174.393,56.458,174.393z"/>
	<path display="inline" fill="#37424A" d="M262.776,190.96h19.047c1.062,0,1.929-0.867,1.929-1.934c0-1.065-0.867-1.932-1.929-1.932
		h-19.047c-1.063,0-1.93,0.866-1.93,1.932C260.847,190.093,261.714,190.96,262.776,190.96z"/>
	<circle display="inline" fill="#878E92" cx="272.301" cy="172.46" r="9.532"/>
	<path display="inline" fill="#37424A" d="M308.487,190.96h19.047c1.063,0,1.93-0.867,1.93-1.934c0-1.065-0.867-1.932-1.93-1.932
		h-19.047c-1.063,0-1.93,0.866-1.93,1.932C306.558,190.093,307.425,190.96,308.487,190.96z"/>
	<circle display="inline" fill="#878E92" cx="318.013" cy="172.46" r="9.532"/>
	<path display="inline" fill="#AFB3B7" d="M27.166,57.036H88.73c0.515,0,0.937-0.422,0.937-0.938c0-0.52-0.422-0.938-0.937-0.938
		H27.166c-0.514,0-0.937,0.418-0.937,0.938C26.229,56.614,26.652,57.036,27.166,57.036z"/>
	<path display="inline" fill="#AFB3B7" d="M11.166,62.473H88.73c0.515,0,0.937-0.422,0.937-0.938s-0.422-0.938-0.937-0.938H11.166
		c-0.514,0-0.937,0.421-0.937,0.938S10.652,62.473,11.166,62.473z"/>
	<path display="inline" fill="#AFB3B7" d="M11.166,67.453H88.73c0.515,0,0.937-0.422,0.937-0.938c0-0.518-0.422-0.938-0.937-0.938
		H11.166c-0.514,0-0.937,0.42-0.937,0.938C10.229,67.031,10.652,67.453,11.166,67.453z"/>
	<path display="inline" fill="#AFB3B7" d="M11.166,72.891H88.73c0.515,0,0.937-0.422,0.937-0.938c0-0.52-0.422-0.938-0.937-0.938
		H11.166c-0.514,0-0.937,0.418-0.937,0.938C10.229,72.469,10.652,72.891,11.166,72.891z"/>
	<path display="inline" fill="#AFB3B7" d="M11.166,78.327H88.73c0.515,0,0.937-0.422,0.937-0.938s-0.422-0.938-0.937-0.938H11.166
		c-0.514,0-0.937,0.421-0.937,0.938S10.652,78.327,11.166,78.327z"/>
	<path display="inline" fill="#AFB3B7" d="M11.166,90.239H88.73c0.515,0,0.937-0.422,0.937-0.938s-0.422-0.938-0.937-0.938H11.166
		c-0.514,0-0.937,0.421-0.937,0.938S10.652,90.239,11.166,90.239z"/>
	<path display="inline" fill="#AFB3B7" d="M11.166,95.22H88.73c0.515,0,0.937-0.422,0.937-0.938c0-0.518-0.422-0.938-0.937-0.938
		H11.166c-0.514,0-0.937,0.42-0.937,0.938C10.229,94.798,10.652,95.22,11.166,95.22z"/>
	<path display="inline" fill="#AFB3B7" d="M11.166,100.657H88.73c0.515,0,0.937-0.422,0.937-0.938c0-0.52-0.422-0.938-0.937-0.938
		H11.166c-0.514,0-0.937,0.418-0.937,0.938C10.229,100.235,10.652,100.657,11.166,100.657z"/>
	<path display="inline" fill="#AFB3B7" d="M11.166,106.094H88.73c0.515,0,0.937-0.422,0.937-0.938s-0.422-0.938-0.937-0.938H11.166
		c-0.514,0-0.937,0.421-0.937,0.938S10.652,106.094,11.166,106.094z"/>
	<path display="inline" fill="#AFB3B7" d="M11.166,118.304H88.73c0.515,0,0.937-0.422,0.937-0.938s-0.422-0.938-0.937-0.938H11.166
		c-0.514,0-0.937,0.421-0.937,0.938S10.652,118.304,11.166,118.304z"/>
	<path display="inline" fill="#AFB3B7" d="M11.166,123.284H88.73c0.515,0,0.937-0.422,0.937-0.938c0-0.518-0.422-0.938-0.937-0.938
		H11.166c-0.514,0-0.937,0.42-0.937,0.938C10.229,122.862,10.652,123.284,11.166,123.284z"/>
	<path display="inline" fill="#AFB3B7" d="M11.166,128.722H88.73c0.515,0,0.937-0.422,0.937-0.938c0-0.52-0.422-0.938-0.937-0.938
		H11.166c-0.514,0-0.937,0.418-0.937,0.938C10.229,128.3,10.652,128.722,11.166,128.722z"/>
	<path display="inline" fill="#AFB3B7" d="M-58.215,187.096h20.377c0.515,0,0.937-0.422,0.937-0.938
		c0-0.518-0.422-0.938-0.937-0.938h-20.377c-0.514,0-0.937,0.42-0.937,0.938C-59.151,186.674-58.729,187.096-58.215,187.096z"/>
	<path display="inline" fill="#AFB3B7" d="M-119.997,178.065h20.377c0.515,0,0.937-0.422,0.937-0.938
		c0-0.518-0.422-0.938-0.937-0.938h-20.377c-0.514,0-0.937,0.42-0.937,0.938C-120.934,177.644-120.511,178.065-119.997,178.065z"/>
	<path display="inline" fill="#5F686E" d="M-119.997,188.032h20.377c0.515,0,0.937-0.422,0.937-0.938
		c0-0.518-0.422-0.938-0.937-0.938h-20.377c-0.514,0-0.937,0.42-0.937,0.938C-120.934,187.61-120.511,188.032-119.997,188.032z"/>
	<path display="inline" fill="#AFB3B7" d="M-58.215,192.533h20.377c0.515,0,0.937-0.422,0.937-0.938c0-0.52-0.422-0.938-0.937-0.938
		h-20.377c-0.514,0-0.937,0.418-0.937,0.938C-59.151,192.111-58.729,192.533-58.215,192.533z"/>
	<path display="inline" fill="#AFB3B7" d="M-58.215,197.97h20.377c0.515,0,0.937-0.422,0.937-0.938s-0.422-0.938-0.937-0.938
		h-20.377c-0.514,0-0.937,0.421-0.937,0.938S-58.729,197.97-58.215,197.97z"/>
	<path display="inline" fill="#AFB3B7" d="M262.112,201.057h20.377c0.513,0,0.935-0.422,0.935-0.938
		c0-0.518-0.422-0.938-0.935-0.938h-20.377c-0.515,0-0.937,0.42-0.937,0.938C261.176,200.635,261.598,201.057,262.112,201.057z"/>
	<path display="inline" fill="#AFB3B7" d="M262.112,206.494h20.377c0.513,0,0.935-0.422,0.935-0.938c0-0.52-0.422-0.938-0.935-0.938
		h-20.377c-0.515,0-0.937,0.418-0.937,0.938C261.176,206.072,261.598,206.494,262.112,206.494z"/>
	<path display="inline" fill="#AFB3B7" d="M262.112,211.931h20.377c0.513,0,0.935-0.422,0.935-0.938s-0.422-0.938-0.935-0.938
		h-20.377c-0.515,0-0.937,0.421-0.937,0.938S261.598,211.931,262.112,211.931z"/>
	<path display="inline" fill="#AFB3B7" d="M307.824,201.057h20.38c0.513,0,0.935-0.422,0.935-0.938c0-0.518-0.422-0.938-0.935-0.938
		h-20.38c-0.513,0-0.935,0.42-0.935,0.938C306.89,200.635,307.312,201.057,307.824,201.057z"/>
	<path display="inline" fill="#AFB3B7" d="M307.824,206.494h20.38c0.513,0,0.935-0.422,0.935-0.938c0-0.52-0.422-0.938-0.935-0.938
		h-20.38c-0.513,0-0.935,0.418-0.935,0.938C306.89,206.072,307.312,206.494,307.824,206.494z"/>
	<path display="inline" fill="#AFB3B7" d="M307.824,211.931h20.38c0.513,0,0.935-0.422,0.935-0.938s-0.422-0.938-0.935-0.938h-20.38
		c-0.513,0-0.935,0.421-0.935,0.938S307.312,211.931,307.824,211.931z"/>
	<path display="inline" fill="#AFB3B7" d="M10.012,42.255c-1.894,0-3.43-1.536-3.43-3.431V20.001c0-1.894,1.536-3.43,3.43-3.43
		h130.66c1.895,0,3.43,1.536,3.43,3.43v18.823c0,1.895-1.535,3.431-3.43,3.431H10.012z"/>
	<path display="inline" fill="#5F686E" d="M100.258,277.351c-1.894,0-3.43-1.536-3.43-3.431v-33.823c0-1.894,1.536-3.43,3.43-3.43
		h18.686c1.895,0,3.43,1.536,3.43,3.43v33.823c0,1.895-1.535,3.431-3.43,3.431H100.258z"/>
	<path display="inline" fill="#5F686E" d="M76.286,217.61H34.127c-1.894,0-3.43-1.535-3.43-3.43v-4.5c0-1.894,1.536-3.43,3.43-3.43
		h42.159V217.61z"/>
	<path display="inline" fill="#37424A" d="M76.286,217.61h40.942c1.893,0,3.43-1.535,3.43-3.43v-4.5c0-1.894-1.537-3.43-3.43-3.43
		H76.286V217.61z"/>
	<path display="inline" fill="#37424A" d="M288.563,94.514h-42.159c-1.894,0-3.43-1.535-3.43-3.43v-4.5
		c0-1.894,1.536-3.43,3.43-3.43h42.159V94.514z"/>
	<path display="inline" fill="#5F686E" d="M288.563,94.514h40.942c1.893,0,3.43-1.535,3.43-3.43v-4.5c0-1.894-1.537-3.43-3.43-3.43
		h-40.942V94.514z"/>
	<path display="inline" fill="#37424A" d="M287.953,47.881h-42.159c-1.894,0-3.43-1.535-3.43-3.43v-4.5
		c0-1.894,1.536-3.43,3.43-3.43h42.159V47.881z"/>
	<path display="inline" fill="#5F686E" d="M287.953,47.881h40.942c1.893,0,3.43-1.535,3.43-3.43v-4.5c0-1.894-1.537-3.43-3.43-3.43
		h-40.942V47.881z"/>
	<path display="inline" fill="#37424A" d="M287.953,66.744h-42.159c-1.894,0-3.43-1.535-3.43-3.43v-4.5
		c0-1.894,1.536-3.43,3.43-3.43h42.159V66.744z"/>
	<path display="inline" fill="#5F686E" d="M287.953,66.744h40.942c1.893,0,3.43-1.535,3.43-3.43v-4.5c0-1.894-1.537-3.43-3.43-3.43
		h-40.942V66.744z"/>
	<path display="inline" fill="#AFB3B7" d="M204.096,236.667c-1.895,0-3.43-1.536-3.43-3.43v-9.717c0-1.894,1.535-3.43,3.43-3.43
		h131.769c1.893,0,3.43,1.536,3.43,3.43v9.717c0,1.894-1.537,3.43-3.43,3.43H204.096z"/>
	<path display="inline" fill="#AFB3B7" d="M9.794,9.518c-1.895,0-3.43-1.536-3.43-3.43V4.945c0-1.894,1.535-3.43,3.43-3.43h131.769
		c1.893,0,3.43,1.536,3.43,3.43v1.143c0,1.894-1.537,3.43-3.43,3.43H9.794z"/>
	<path display="inline" fill="#AFB3B7" d="M9.794,148.518c-1.895,0-3.43-1.535-3.43-3.43v-1.143c0-1.893,1.535-3.43,3.43-3.43
		h131.769c1.893,0,3.43,1.537,3.43,3.43v1.143c0,1.895-1.537,3.43-3.43,3.43H9.794z"/>
	<circle display="inline" fill="#AFB3B7" cx="-129.093" cy="177.128" r="2.606"/>
	<circle display="inline" fill="#5F686E" cx="-129.093" cy="187.095" r="2.606"/>
	<path display="inline" fill="#5F686E" d="M108.601-60.092c10.159,0,18.393,8.237,18.393,18.395
		c0,10.159-8.233,18.396-18.393,18.396V-60.092z"/>
	<path display="inline" fill="#37424A" d="M104.652,129.284c-1.893,0-3.43-1.536-3.43-3.431V58.03c0-1.894,1.537-3.43,3.43-3.43
		h35.44c1.895,0,3.43,1.536,3.43,3.43v67.823c0,1.895-1.535,3.431-3.43,3.431H104.652z"/>
	<circle display="inline" fill="#5F686E" cx="122.373" cy="64" r="6.434"/>
	<path display="inline" fill="#FFFFFF" d="M112.185,96.031h20.377c0.516,0,0.938-0.422,0.938-0.938c0-0.518-0.422-0.938-0.938-0.938
		h-20.377c-0.514,0-0.936,0.42-0.936,0.938C111.249,95.609,111.671,96.031,112.185,96.031z"/>
	<path display="inline" fill="#FFFFFF" d="M126.896,87.282c0-2.502-2.028-4.521-4.523-4.521c-2.499,0-4.521,2.02-4.521,4.521
		c0,2.498,2.022,4.521,4.521,4.521C124.868,91.804,126.896,89.78,126.896,87.282z"/>
	<path display="inline" fill="#FFFFFF" d="M112.185,117.803h20.377c0.516,0,0.938-0.422,0.938-0.938
		c0-0.518-0.422-0.938-0.938-0.938h-20.377c-0.514,0-0.936,0.42-0.936,0.938C111.249,117.381,111.671,117.803,112.185,117.803z"/>
	<path display="inline" fill="#5F686E" d="M107.287,126.803h30.172c0.764,0,1.388-0.422,1.388-0.938
		c0-0.518-0.624-0.938-1.388-0.938h-30.172c-0.761,0-1.386,0.42-1.386,0.938C105.901,126.381,106.526,126.803,107.287,126.803z"/>
	<path display="inline" fill="#5F686E" d="M107.287,75.938h30.172c0.764,0,1.388-0.422,1.388-0.938c0-0.518-0.624-0.938-1.388-0.938
		h-30.172c-0.761,0-1.386,0.42-1.386,0.938C105.901,75.516,106.526,75.938,107.287,75.938z"/>
	<path display="inline" fill="#FFFFFF" d="M126.896,109.054c0-2.502-2.028-4.521-4.523-4.521c-2.499,0-4.521,2.02-4.521,4.521
		c0,2.498,2.022,4.521,4.521,4.521C124.868,113.575,126.896,111.552,126.896,109.054z"/>
</g>
<g id="rwbhp_portal" display="none">
	<path display="inline" fill="#AFB3B7" d="M6.364,174.376v33.168c0,1.063,0.867,1.93,1.934,1.93c1.065,0,1.932-0.867,1.932-1.93
		v-33.168c0-1.063-0.866-1.93-1.932-1.93C7.231,172.446,6.364,173.313,6.364,174.376z"/>
	<path display="inline" fill="#AFB3B7" d="M56.458,174.393h38.441c1.062,0,1.929-0.867,1.929-1.935c0-1.064-0.867-1.931-1.929-1.931
		H56.458c-1.062,0-1.93,0.866-1.93,1.931C54.528,173.525,55.396,174.393,56.458,174.393z"/>
	<path display="inline" fill="#37424A" d="M17.024,78.233h19.047c1.062,0,1.929-0.867,1.929-1.934c0-1.065-0.867-1.932-1.929-1.932
		H17.024c-1.063,0-1.93,0.866-1.93,1.932C15.095,77.366,15.962,78.233,17.024,78.233z"/>
	<path display="inline" fill="#878E92" d="M65.478,78.233h19.047c1.062,0,1.929-0.867,1.929-1.934c0-1.065-0.867-1.932-1.929-1.932
		H65.478c-1.063,0-1.93,0.866-1.93,1.932C63.548,77.366,64.415,78.233,65.478,78.233z"/>
	<path display="inline" fill="#AFB3B7" d="M115.763,78.233h19.047c1.062,0,1.929-0.867,1.929-1.934c0-1.065-0.867-1.932-1.929-1.932
		h-19.047c-1.063,0-1.93,0.866-1.93,1.932C113.833,77.366,114.7,78.233,115.763,78.233z"/>
	<circle display="inline" fill="#878E92" cx="272.301" cy="172.46" r="9.532"/>
	<circle display="inline" fill="#37424A" cx="26.547" cy="56.189" r="13.409"/>
	<circle display="inline" fill="#AFB3B7" cx="125.284" cy="56.189" r="13.409"/>
	<circle display="inline" fill="#878E92" cx="75.342" cy="56.189" r="13.408"/>
	<path display="inline" fill="#37424A" d="M308.487,190.96h19.047c1.063,0,1.93-0.867,1.93-1.934c0-1.065-0.867-1.932-1.93-1.932
		h-19.047c-1.063,0-1.93,0.866-1.93,1.932C306.558,190.093,307.425,190.96,308.487,190.96z"/>
	<circle display="inline" fill="#878E92" cx="318.013" cy="172.46" r="9.532"/>
	<path display="inline" fill="#37424A" d="M84.818,92.957h53.406c0.515,0,0.937-0.422,0.937-0.938s-0.422-0.938-0.937-0.938H84.818
		c-0.514,0-0.937,0.421-0.937,0.938S84.305,92.957,84.818,92.957z"/>
	<path display="inline" fill="#AFB3B7" d="M10.698,31.551h127.527c0.515,0,0.937-0.422,0.937-0.938s-0.422-0.938-0.937-0.938H10.698
		c-0.514,0-0.937,0.421-0.937,0.938S10.184,31.551,10.698,31.551z"/>
	<path display="inline" fill="#AFB3B7" d="M10.698,4.484h127.527c0.515,0,0.937-0.422,0.937-0.938s-0.422-0.938-0.937-0.938H10.698
		c-0.514,0-0.937,0.421-0.937,0.938S10.184,4.484,10.698,4.484z"/>
	<path display="inline" fill="#878E92" d="M84.818,97.938h53.406c0.515,0,0.937-0.422,0.937-0.938c0-0.518-0.422-0.938-0.937-0.938
		H84.818c-0.514,0-0.937,0.42-0.937,0.938C83.882,97.516,84.305,97.938,84.818,97.938z"/>
	<path display="inline" fill="#878E92" d="M84.818,103.375h53.406c0.515,0,0.937-0.422,0.937-0.938c0-0.52-0.422-0.938-0.937-0.938
		H84.818c-0.514,0-0.937,0.418-0.937,0.938C83.882,102.953,84.305,103.375,84.818,103.375z"/>
	<path display="inline" fill="#878E92" d="M84.818,108.375h53.406c0.515,0,0.937-0.422,0.937-0.938c0-0.52-0.422-0.938-0.937-0.938
		H84.818c-0.514,0-0.937,0.418-0.937,0.938C83.882,107.953,84.305,108.375,84.818,108.375z"/>
	<path display="inline" fill="#37424A" d="M84.818,115.648h53.406c0.515,0,0.937-0.422,0.937-0.938s-0.422-0.938-0.937-0.938H84.818
		c-0.514,0-0.937,0.421-0.937,0.938S84.305,115.648,84.818,115.648z"/>
	<path display="inline" fill="#878E92" d="M84.818,120.629h53.406c0.515,0,0.937-0.422,0.937-0.938c0-0.518-0.422-0.938-0.937-0.938
		H84.818c-0.514,0-0.937,0.42-0.937,0.938C83.882,120.207,84.305,120.629,84.818,120.629z"/>
	<path display="inline" fill="#878E92" d="M84.818,126.066h53.406c0.515,0,0.937-0.422,0.937-0.938c0-0.52-0.422-0.938-0.937-0.938
		H84.818c-0.514,0-0.937,0.418-0.937,0.938C83.882,125.645,84.305,126.066,84.818,126.066z"/>
	<path display="inline" fill="#878E92" d="M84.818,131.066h53.406c0.515,0,0.937-0.422,0.937-0.938c0-0.52-0.422-0.938-0.937-0.938
		H84.818c-0.514,0-0.937,0.418-0.937,0.938C83.882,130.645,84.305,131.066,84.818,131.066z"/>
	<path display="inline" fill="#AFB3B7" d="M-58.215,187.096h20.377c0.515,0,0.937-0.422,0.937-0.938
		c0-0.518-0.422-0.938-0.937-0.938h-20.377c-0.514,0-0.937,0.42-0.937,0.938C-59.151,186.674-58.729,187.096-58.215,187.096z"/>
	<path display="inline" fill="#5F686E" d="M-119.997,188.032h20.377c0.515,0,0.937-0.422,0.937-0.938
		c0-0.518-0.422-0.938-0.937-0.938h-20.377c-0.514,0-0.937,0.42-0.937,0.938C-120.934,187.61-120.511,188.032-119.997,188.032z"/>
	<path display="inline" fill="#AFB3B7" d="M-58.215,192.533h20.377c0.515,0,0.937-0.422,0.937-0.938c0-0.52-0.422-0.938-0.937-0.938
		h-20.377c-0.514,0-0.937,0.418-0.937,0.938C-59.151,192.111-58.729,192.533-58.215,192.533z"/>
	<path display="inline" fill="#AFB3B7" d="M-58.215,197.97h20.377c0.515,0,0.937-0.422,0.937-0.938s-0.422-0.938-0.937-0.938
		h-20.377c-0.514,0-0.937,0.421-0.937,0.938S-58.729,197.97-58.215,197.97z"/>
	<path display="inline" fill="#AFB3B7" d="M262.112,201.057h20.377c0.513,0,0.935-0.422,0.935-0.938
		c0-0.518-0.422-0.938-0.935-0.938h-20.377c-0.515,0-0.937,0.42-0.937,0.938C261.176,200.635,261.598,201.057,262.112,201.057z"/>
	<path display="inline" fill="#AFB3B7" d="M262.112,206.494h20.377c0.513,0,0.935-0.422,0.935-0.938c0-0.52-0.422-0.938-0.935-0.938
		h-20.377c-0.515,0-0.937,0.418-0.937,0.938C261.176,206.072,261.598,206.494,262.112,206.494z"/>
	<path display="inline" fill="#AFB3B7" d="M262.112,211.931h20.377c0.513,0,0.935-0.422,0.935-0.938s-0.422-0.938-0.935-0.938
		h-20.377c-0.515,0-0.937,0.421-0.937,0.938S261.598,211.931,262.112,211.931z"/>
	<path display="inline" fill="#AFB3B7" d="M307.824,201.057h20.38c0.513,0,0.935-0.422,0.935-0.938c0-0.518-0.422-0.938-0.935-0.938
		h-20.38c-0.513,0-0.935,0.42-0.935,0.938C306.89,200.635,307.312,201.057,307.824,201.057z"/>
	<path display="inline" fill="#AFB3B7" d="M307.824,206.494h20.38c0.513,0,0.935-0.422,0.935-0.938c0-0.52-0.422-0.938-0.935-0.938
		h-20.38c-0.513,0-0.935,0.418-0.935,0.938C306.89,206.072,307.312,206.494,307.824,206.494z"/>
	<path display="inline" fill="#AFB3B7" d="M307.824,211.931h20.38c0.513,0,0.935-0.422,0.935-0.938s-0.422-0.938-0.935-0.938h-20.38
		c-0.513,0-0.935,0.421-0.935,0.938S307.312,211.931,307.824,211.931z"/>
	<path display="inline" fill="#AFB3B7" d="M10.012-77.745c-1.894,0-3.43-1.536-3.43-3.431v-18.823c0-1.894,1.536-3.43,3.43-3.43
		h130.66c1.895,0,3.43,1.536,3.43,3.43v18.823c0,1.895-1.535,3.431-3.43,3.431H10.012z"/>
	<path display="inline" fill="#5F686E" d="M100.258,277.351c-1.894,0-3.43-1.536-3.43-3.431v-33.823c0-1.894,1.536-3.43,3.43-3.43
		h18.686c1.895,0,3.43,1.536,3.43,3.43v33.823c0,1.895-1.535,3.431-3.43,3.431H100.258z"/>
	<path display="inline" fill="#5F686E" d="M76.286,217.61H34.127c-1.894,0-3.43-1.535-3.43-3.43v-4.5c0-1.894,1.536-3.43,3.43-3.43
		h42.159V217.61z"/>
	<path display="inline" fill="#37424A" d="M76.286,217.61h40.942c1.893,0,3.43-1.535,3.43-3.43v-4.5c0-1.894-1.537-3.43-3.43-3.43
		H76.286V217.61z"/>
	<path display="inline" fill="#37424A" d="M288.563,94.514h-42.159c-1.894,0-3.43-1.535-3.43-3.43v-4.5
		c0-1.894,1.536-3.43,3.43-3.43h42.159V94.514z"/>
	<path display="inline" fill="#5F686E" d="M288.563,94.514h40.942c1.893,0,3.43-1.535,3.43-3.43v-4.5c0-1.894-1.537-3.43-3.43-3.43
		h-40.942V94.514z"/>
	<path display="inline" fill="#37424A" d="M288.563,57.505h-42.159c-1.894,0-3.43-1.535-3.43-3.43v-4.5
		c0-1.894,1.536-3.43,3.43-3.43h42.159V57.505z"/>
	<path display="inline" fill="#5F686E" d="M288.563,57.505h40.942c1.893,0,3.43-1.535,3.43-3.43v-4.5c0-1.894-1.537-3.43-3.43-3.43
		h-40.942V57.505z"/>
	<path display="inline" fill="#37424A" d="M288.563,76.368h-42.159c-1.894,0-3.43-1.535-3.43-3.43v-4.5
		c0-1.894,1.536-3.43,3.43-3.43h42.159V76.368z"/>
	<path display="inline" fill="#5F686E" d="M288.563,76.368h40.942c1.893,0,3.43-1.535,3.43-3.43v-4.5c0-1.894-1.537-3.43-3.43-3.43
		h-40.942V76.368z"/>
	<path display="inline" fill="#AFB3B7" d="M204.096,236.667c-1.895,0-3.43-1.536-3.43-3.43v-9.717c0-1.894,1.535-3.43,3.43-3.43
		h131.769c1.893,0,3.43,1.536,3.43,3.43v9.717c0,1.894-1.537,3.43-3.43,3.43H204.096z"/>
	<path display="inline" fill="#878E92" d="M160.033,9.518c-1.895,0-3.43-1.536-3.43-3.43V4.945c0-1.894,1.535-3.43,3.43-3.43
		h131.769c1.893,0,3.43,1.536,3.43,3.43v1.143c0,1.894-1.537,3.43-3.43,3.43H160.033z"/>
	<path display="inline" fill="#878E92" d="M9.794,148.518c-1.895,0-3.43-1.535-3.43-3.43v-1.143c0-1.893,1.535-3.43,3.43-3.43
		h131.769c1.893,0,3.43,1.537,3.43,3.43v1.143c0,1.895-1.537,3.43-3.43,3.43H9.794z"/>
	<circle display="inline" fill="#5F686E" cx="-129.093" cy="187.095" r="2.606"/>
	<path display="inline" fill="#5F686E" d="M108.601-60.092c10.159,0,18.393,8.237,18.393,18.395
		c0,10.159-8.233,18.396-18.393,18.396V-60.092z"/>
	<path display="inline" fill="#37424A" d="M10.229,93.806c0-1.893,1.536-3.43,3.431-3.43h57.91c1.894,0,3.43,1.537,3.43,3.43v3.416
		c0,1.895-1.536,3.43-3.43,3.43H13.66c-1.895,0-3.431-1.535-3.431-3.43V93.806z"/>
	<path display="inline" fill="#878E92" d="M10.229,109.213c0-1.893,1.536-3.43,3.431-3.43h57.91c1.894,0,3.43,1.537,3.43,3.43v3.416
		c0,1.895-1.536,3.43-3.43,3.43H13.66c-1.895,0-3.431-1.535-3.431-3.43V109.213z"/>
	<path display="inline" fill="#878E92" d="M10.229,124.621c0-1.893,1.536-3.43,3.431-3.43h57.91c1.894,0,3.43,1.537,3.43,3.43v3.416
		c0,1.895-1.536,3.43-3.43,3.43H13.66c-1.895,0-3.431-1.535-3.431-3.43V124.621z"/>
	<circle display="inline" fill="#37424A" cx="24.264" cy="17.137" r="6.434"/>
	<circle display="inline" fill="#878E92" cx="57.938" cy="17.137" r="6.434"/>
	<circle display="inline" fill="#878E92" cx="91.611" cy="17.137" r="6.434"/>
	<circle display="inline" fill="#878E92" cx="125.285" cy="17.137" r="6.434"/>
	<path display="inline" fill="#FFFFFF" d="M166.563,196.396c0-2.502-2.028-4.521-4.523-4.521c-2.499,0-4.521,2.02-4.521,4.521
		c0,2.498,2.022,4.521,4.521,4.521C164.535,200.918,166.563,198.895,166.563,196.396z"/>
	<path display="inline" fill="#FFFFFF" d="M151.852,226.917h20.377c0.516,0,0.938-0.422,0.938-0.938
		c0-0.518-0.422-0.938-0.938-0.938h-20.377c-0.514,0-0.936,0.42-0.936,0.938C150.916,226.495,151.338,226.917,151.852,226.917z"/>
	<path display="inline" fill="#5F686E" d="M146.954,235.917h30.172c0.764,0,1.388-0.422,1.388-0.938
		c0-0.518-0.624-0.938-1.388-0.938h-30.172c-0.761,0-1.386,0.42-1.386,0.938C145.568,235.495,146.193,235.917,146.954,235.917z"/>
	<path display="inline" fill="#5F686E" d="M146.954,185.052h30.172c0.764,0,1.388-0.422,1.388-0.938
		c0-0.518-0.624-0.938-1.388-0.938h-30.172c-0.761,0-1.386,0.42-1.386,0.938C145.568,184.63,146.193,185.052,146.954,185.052z"/>
	<path display="inline" fill="#FFFFFF" d="M166.563,218.168c0-2.502-2.028-4.521-4.523-4.521c-2.499,0-4.521,2.02-4.521,4.521
		c0,2.498,2.022,4.521,4.521,4.521C164.535,222.689,166.563,220.666,166.563,218.168z"/>
	<circle display="inline" fill="#FFFFFF" cx="69.689" cy="95.514" r="1.978"/>
	<path display="inline" fill="#FFFFFF" d="M16.075,96.451h47.359c0.515,0,0.937-0.422,0.937-0.938c0-0.518-0.422-0.938-0.937-0.938
		H16.075c-0.514,0-0.937,0.42-0.937,0.938C15.139,96.029,15.562,96.451,16.075,96.451z"/>
	<circle display="inline" fill="#FFFFFF" cx="69.689" cy="110.772" r="1.978"/>
	<path display="inline" fill="#FFFFFF" d="M16.075,111.71h47.359c0.515,0,0.937-0.422,0.937-0.938c0-0.518-0.422-0.938-0.937-0.938
		H16.075c-0.514,0-0.937,0.42-0.937,0.938C15.139,111.288,15.562,111.71,16.075,111.71z"/>
	<circle display="inline" fill="#FFFFFF" cx="69.689" cy="126.329" r="1.978"/>
	<path display="inline" fill="#FFFFFF" d="M16.075,127.267h47.359c0.515,0,0.937-0.422,0.937-0.938c0-0.518-0.422-0.938-0.937-0.938
		H16.075c-0.514,0-0.937,0.42-0.937,0.938C15.139,126.845,15.562,127.267,16.075,127.267z"/>
</g>
<g id="waaqs">
	<path fill="#AFB3B7" d="M6.364,174.376v33.168c0,1.063,0.867,1.93,1.934,1.93c1.065,0,1.932-0.867,1.932-1.93v-33.168
		c0-1.063-0.866-1.93-1.932-1.93C7.231,172.446,6.364,173.313,6.364,174.376z"/>
	<path fill="#878E92" d="M85.506,101.39h26.295c0.726,0,1.318-0.867,1.318-1.935c0-1.064-0.593-1.931-1.318-1.931H85.506
		c-0.726,0-1.32,0.866-1.32,1.931C84.186,100.522,84.78,101.39,85.506,101.39z"/>
	<path fill="#37424A" d="M-129.939,247.381h19.047c1.062,0,1.929-0.867,1.929-1.934c0-1.065-0.867-1.932-1.929-1.932h-19.047
		c-1.063,0-1.93,0.866-1.93,1.932C-131.869,246.514-131.001,247.381-129.939,247.381z"/>
	<path fill="#878E92" d="M-81.486,247.381h19.047c1.062,0,1.929-0.867,1.929-1.934c0-1.065-0.867-1.932-1.929-1.932h-19.047
		c-1.063,0-1.93,0.866-1.93,1.932C-83.416,246.514-82.548,247.381-81.486,247.381z"/>
	<path fill="#AFB3B7" d="M-31.201,247.381h19.047c1.062,0,1.929-0.867,1.929-1.934c0-1.065-0.867-1.932-1.929-1.932h-19.047
		c-1.063,0-1.93,0.866-1.93,1.932C-33.13,246.514-32.263,247.381-31.201,247.381z"/>
	<circle fill="#878E92" cx="272.301" cy="172.46" r="9.532"/>
	<circle fill="#37424A" cx="-120.416" cy="225.337" r="13.409"/>
	<circle fill="#AFB3B7" cx="-21.679" cy="225.337" r="13.409"/>
	<circle fill="#878E92" cx="-71.622" cy="225.337" r="13.408"/>
	<path fill="#37424A" d="M308.487,190.96h19.047c1.063,0,1.93-0.867,1.93-1.934c0-1.065-0.867-1.932-1.93-1.932h-19.047
		c-1.063,0-1.93,0.866-1.93,1.932C306.558,190.093,307.425,190.96,308.487,190.96z"/>
	<circle fill="#878E92" cx="318.013" cy="172.46" r="9.532"/>
	<path fill="#878E92" d="M6.833,111.357h137.169c0.515,0,0.937-0.422,0.937-0.938s-0.422-0.938-0.937-0.938H6.833
		c-0.514,0-0.937,0.421-0.937,0.938S6.319,111.357,6.833,111.357z"/>
	<path fill="#AFB3B7" d="M55.959,71.833h87.347c0.516,0,0.938-0.422,0.938-0.938s-0.422-0.938-0.938-0.938H55.959
		c-0.514,0-0.936,0.421-0.936,0.938S55.446,71.833,55.959,71.833z"/>
	<path fill="#37424A" d="M58.959,65.947l11.707-1.479l11.5-6.838L92.19,47.601l13.31,7.705l10.667,6.957l13.166-0.763l10.974,4.447
		c0.516,0,0.938-0.422,0.938-0.938s-0.422-0.938-0.938-0.938l-10.959-4.419l-13.237,0.725l-10.726-6.978l-13.221-7.666L82.074,55.75
		l-11.408,6.841l-11.707,1.479c-0.514,0-0.936,0.421-0.936,0.938S58.446,65.947,58.959,65.947z"/>
	<path fill="#AFB3B7" d="M53.962,67.958V16.069c0-0.516-0.422-0.938-0.938-0.938s-0.938,0.422-0.938,0.938v51.889
		c0,0.514,0.421,0.936,0.938,0.936S53.962,68.472,53.962,67.958z"/>
	<path fill="#AFB3B7" d="M10.698,156.876h127.527c0.515,0,0.937-0.422,0.937-0.938S138.739,155,138.225,155H10.698
		c-0.514,0-0.937,0.421-0.937,0.938S10.184,156.876,10.698,156.876z"/>
	<path fill="#AFB3B7" d="M6.833,116.338h137.169c0.515,0,0.937-0.422,0.937-0.938c0-0.518-0.422-0.938-0.937-0.938H6.833
		c-0.514,0-0.937,0.42-0.937,0.938C5.896,115.916,6.319,116.338,6.833,116.338z"/>
	<path fill="#878E92" d="M7.301,125.242h31.127c0.515,0,0.937-0.422,0.937-0.938s-0.422-0.938-0.937-0.938H7.301
		c-0.514,0-0.937,0.421-0.937,0.938S6.787,125.242,7.301,125.242z"/>
	<path fill="#AFB3B7" d="M7.301,130.223h31.127c0.515,0,0.937-0.422,0.937-0.938c0-0.518-0.422-0.938-0.937-0.938H7.301
		c-0.514,0-0.937,0.42-0.937,0.938C6.364,129.801,6.787,130.223,7.301,130.223z"/>
	<path fill="#AFB3B7" d="M7.301,135.66h31.127c0.515,0,0.937-0.422,0.937-0.938c0-0.52-0.422-0.938-0.937-0.938H7.301
		c-0.514,0-0.937,0.418-0.937,0.938C6.364,135.238,6.787,135.66,7.301,135.66z"/>
	<path fill="#878E92" d="M60.114,125.242h31.127c0.515,0,0.937-0.422,0.937-0.938s-0.422-0.938-0.937-0.938H60.114
		c-0.514,0-0.937,0.421-0.937,0.938S59.601,125.242,60.114,125.242z"/>
	<path fill="#AFB3B7" d="M60.114,130.223h31.127c0.515,0,0.937-0.422,0.937-0.938c0-0.518-0.422-0.938-0.937-0.938H60.114
		c-0.514,0-0.937,0.42-0.937,0.938C59.178,129.801,59.601,130.223,60.114,130.223z"/>
	<path fill="#AFB3B7" d="M60.114,135.66h31.127c0.515,0,0.937-0.422,0.937-0.938c0-0.52-0.422-0.938-0.937-0.938H60.114
		c-0.514,0-0.937,0.418-0.937,0.938C59.178,135.238,59.601,135.66,60.114,135.66z"/>
	<path fill="#878E92" d="M112.407,125.242h31.127c0.515,0,0.937-0.422,0.937-0.938s-0.422-0.938-0.937-0.938h-31.127
		c-0.514,0-0.937,0.421-0.937,0.938S111.894,125.242,112.407,125.242z"/>
	<path fill="#AFB3B7" d="M112.407,130.223h31.127c0.515,0,0.937-0.422,0.937-0.938c0-0.518-0.422-0.938-0.937-0.938h-31.127
		c-0.514,0-0.937,0.42-0.937,0.938C111.471,129.801,111.894,130.223,112.407,130.223z"/>
	<path fill="#AFB3B7" d="M112.407,135.66h31.127c0.515,0,0.937-0.422,0.937-0.938c0-0.52-0.422-0.938-0.937-0.938h-31.127
		c-0.514,0-0.937,0.418-0.937,0.938C111.471,135.238,111.894,135.66,112.407,135.66z"/>
	<path fill="#AFB3B7" d="M-58.215,187.096h20.377c0.515,0,0.937-0.422,0.937-0.938c0-0.518-0.422-0.938-0.937-0.938h-20.377
		c-0.514,0-0.937,0.42-0.937,0.938C-59.151,186.674-58.729,187.096-58.215,187.096z"/>
	<path fill="#37424A" d="M16.596,57.773h25.377c0.515,0,0.937-0.422,0.937-0.938c0-0.518-0.422-0.938-0.937-0.938H16.596
		c-0.514,0-0.937,0.42-0.937,0.938C15.659,57.351,16.082,57.773,16.596,57.773z"/>
	<path fill="#AFB3B7" d="M-58.215,192.533h20.377c0.515,0,0.937-0.422,0.937-0.938c0-0.52-0.422-0.938-0.937-0.938h-20.377
		c-0.514,0-0.937,0.418-0.937,0.938C-59.151,192.111-58.729,192.533-58.215,192.533z"/>
	<path fill="#AFB3B7" d="M-58.215,197.97h20.377c0.515,0,0.937-0.422,0.937-0.938s-0.422-0.938-0.937-0.938h-20.377
		c-0.514,0-0.937,0.421-0.937,0.938S-58.729,197.97-58.215,197.97z"/>
	<path fill="#AFB3B7" d="M262.112,201.057h20.377c0.513,0,0.935-0.422,0.935-0.938c0-0.518-0.422-0.938-0.935-0.938h-20.377
		c-0.515,0-0.937,0.42-0.937,0.938C261.176,200.635,261.598,201.057,262.112,201.057z"/>
	<path fill="#AFB3B7" d="M262.112,206.494h20.377c0.513,0,0.935-0.422,0.935-0.938c0-0.52-0.422-0.938-0.935-0.938h-20.377
		c-0.515,0-0.937,0.418-0.937,0.938C261.176,206.072,261.598,206.494,262.112,206.494z"/>
	<path fill="#AFB3B7" d="M262.112,211.931h20.377c0.513,0,0.935-0.422,0.935-0.938s-0.422-0.938-0.935-0.938h-20.377
		c-0.515,0-0.937,0.421-0.937,0.938S261.598,211.931,262.112,211.931z"/>
	<path fill="#AFB3B7" d="M307.824,201.057h20.38c0.513,0,0.935-0.422,0.935-0.938c0-0.518-0.422-0.938-0.935-0.938h-20.38
		c-0.513,0-0.935,0.42-0.935,0.938C306.89,200.635,307.312,201.057,307.824,201.057z"/>
	<path fill="#AFB3B7" d="M307.824,206.494h20.38c0.513,0,0.935-0.422,0.935-0.938c0-0.52-0.422-0.938-0.935-0.938h-20.38
		c-0.513,0-0.935,0.418-0.935,0.938C306.89,206.072,307.312,206.494,307.824,206.494z"/>
	<path fill="#AFB3B7" d="M307.824,211.931h20.38c0.513,0,0.935-0.422,0.935-0.938s-0.422-0.938-0.935-0.938h-20.38
		c-0.513,0-0.935,0.421-0.935,0.938S307.312,211.931,307.824,211.931z"/>
	<path fill="#AFB3B7" d="M10.012-77.745c-1.894,0-3.43-1.536-3.43-3.431v-18.823c0-1.894,1.536-3.43,3.43-3.43h130.66
		c1.895,0,3.43,1.536,3.43,3.43v18.823c0,1.895-1.535,3.431-3.43,3.431H10.012z"/>
	<path fill="#37424A" d="M9.794,42.304c-1.894,0-3.43-1.536-3.43-3.431V19.03c0-1.894,1.536-3.43,3.43-3.43h29.686
		c1.895,0,3.43,1.536,3.43,3.43v19.843c0,1.895-1.535,3.431-3.43,3.431H9.794z"/>
	<path fill="#37424A" d="M98.653,90.548H56.494c-1.894,0-3.43-1.535-3.43-3.43v-4.5c0-1.894,1.536-3.43,3.43-3.43h42.159V90.548z"/>
	<path fill="#AFB3B7" d="M98.653,90.548h40.942c1.893,0,3.43-1.535,3.43-3.43v-4.5c0-1.894-1.537-3.43-3.43-3.43H98.653V90.548z"/>
	<path fill="#37424A" d="M288.563,94.514h-42.159c-1.894,0-3.43-1.535-3.43-3.43v-4.5c0-1.894,1.536-3.43,3.43-3.43h42.159V94.514z"
		/>
	<path fill="#5F686E" d="M288.563,94.514h40.942c1.893,0,3.43-1.535,3.43-3.43v-4.5c0-1.894-1.537-3.43-3.43-3.43h-40.942V94.514z"
		/>
	<path fill="#37424A" d="M288.563,57.505h-42.159c-1.894,0-3.43-1.535-3.43-3.43v-4.5c0-1.894,1.536-3.43,3.43-3.43h42.159V57.505z"
		/>
	<path fill="#5F686E" d="M288.563,57.505h40.942c1.893,0,3.43-1.535,3.43-3.43v-4.5c0-1.894-1.537-3.43-3.43-3.43h-40.942V57.505z"
		/>
	<path fill="#37424A" d="M288.563,76.368h-42.159c-1.894,0-3.43-1.535-3.43-3.43v-4.5c0-1.894,1.536-3.43,3.43-3.43h42.159V76.368z"
		/>
	<path fill="#5F686E" d="M288.563,76.368h40.942c1.893,0,3.43-1.535,3.43-3.43v-4.5c0-1.894-1.537-3.43-3.43-3.43h-40.942V76.368z"
		/>
	<path fill="#AFB3B7" d="M204.096,236.667c-1.895,0-3.43-1.536-3.43-3.43v-9.717c0-1.894,1.535-3.43,3.43-3.43h131.769
		c1.893,0,3.43,1.536,3.43,3.43v9.717c0,1.894-1.537,3.43-3.43,3.43H204.096z"/>
	<path fill="#878E92" d="M8.577,9.518c-1.895,0-3.43-1.536-3.43-3.43V4.945c0-1.894,1.535-3.43,3.43-3.43h131.769
		c1.893,0,3.43,1.536,3.43,3.43v1.143c0,1.894-1.537,3.43-3.43,3.43H8.577z"/>
	<path fill="#878E92" d="M9.794,148.518c-1.895,0-3.43-1.535-3.43-3.43v-1.143c0-1.893,1.535-3.43,3.43-3.43h131.769
		c1.893,0,3.43,1.537,3.43,3.43v1.143c0,1.895-1.537,3.43-3.43,3.43H9.794z"/>
	<circle fill="#37424A" cx="10.362" cy="56.835" r="2.606"/>
	<path fill="#AFB3B7" d="M16.596,66.616h25.377c0.515,0,0.937-0.422,0.937-0.938c0-0.518-0.422-0.938-0.937-0.938H16.596
		c-0.514,0-0.937,0.42-0.937,0.938C15.659,66.194,16.082,66.616,16.596,66.616z"/>
	<circle fill="#AFB3B7" cx="10.362" cy="65.678" r="2.606"/>
	<path fill="#AFB3B7" d="M16.596,79.773h25.377c0.515,0,0.937-0.422,0.937-0.938c0-0.518-0.422-0.938-0.937-0.938H16.596
		c-0.514,0-0.937,0.42-0.937,0.938C15.659,79.352,16.082,79.773,16.596,79.773z"/>
	<circle fill="#AFB3B7" cx="10.362" cy="78.836" r="2.606"/>
	<path fill="#AFB3B7" d="M16.596,88.411h25.377c0.515,0,0.937-0.422,0.937-0.938c0-0.518-0.422-0.938-0.937-0.938H16.596
		c-0.514,0-0.937,0.42-0.937,0.938C15.659,87.989,16.082,88.411,16.596,88.411z"/>
	<circle fill="#AFB3B7" cx="10.362" cy="87.474" r="2.606"/>
	<path fill="#5F686E" d="M108.601-60.092c10.159,0,18.393,8.237,18.393,18.395c0,10.159-8.233,18.396-18.393,18.396V-60.092z"/>
	<path fill="#37424A" d="M180.979,136.731c0-1.893,1.536-3.43,3.431-3.43h57.91c1.894,0,3.43,1.537,3.43,3.43v3.416
		c0,1.895-1.536,3.43-3.43,3.43h-57.91c-1.895,0-3.431-1.535-3.431-3.43V136.731z"/>
	<path fill="#878E92" d="M180.979,152.139c0-1.893,1.536-3.43,3.431-3.43h57.91c1.894,0,3.43,1.537,3.43,3.43v3.416
		c0,1.895-1.536,3.43-3.43,3.43h-57.91c-1.895,0-3.431-1.535-3.431-3.43V152.139z"/>
	<path fill="#878E92" d="M180.979,167.547c0-1.893,1.536-3.43,3.431-3.43h57.91c1.894,0,3.43,1.537,3.43,3.43v3.416
		c0,1.895-1.536,3.43-3.43,3.43h-57.91c-1.895,0-3.431-1.535-3.431-3.43V167.547z"/>
	<circle fill="#37424A" cx="24.264" cy="-12.113" r="6.434"/>
	<circle fill="#878E92" cx="57.938" cy="-12.113" r="6.434"/>
	<circle fill="#878E92" cx="91.611" cy="-12.113" r="6.434"/>
	<circle fill="#878E92" cx="125.285" cy="-12.113" r="6.434"/>
	<path fill="#FFFFFF" d="M166.563,196.396c0-2.502-2.028-4.521-4.523-4.521c-2.499,0-4.521,2.02-4.521,4.521
		c0,2.498,2.022,4.521,4.521,4.521C164.535,200.918,166.563,198.895,166.563,196.396z"/>
	<path fill="#FFFFFF" d="M151.852,226.917h20.377c0.516,0,0.938-0.422,0.938-0.938c0-0.518-0.422-0.938-0.938-0.938h-20.377
		c-0.514,0-0.936,0.42-0.936,0.938C150.916,226.495,151.338,226.917,151.852,226.917z"/>
	<path fill="#5F686E" d="M146.954,235.917h30.172c0.764,0,1.388-0.422,1.388-0.938c0-0.518-0.624-0.938-1.388-0.938h-30.172
		c-0.761,0-1.386,0.42-1.386,0.938C145.568,235.495,146.193,235.917,146.954,235.917z"/>
	<path fill="#5F686E" d="M146.954,185.052h30.172c0.764,0,1.388-0.422,1.388-0.938c0-0.518-0.624-0.938-1.388-0.938h-30.172
		c-0.761,0-1.386,0.42-1.386,0.938C145.568,184.63,146.193,185.052,146.954,185.052z"/>
	<path fill="#FFFFFF" d="M166.563,218.168c0-2.502-2.028-4.521-4.523-4.521c-2.499,0-4.521,2.02-4.521,4.521
		c0,2.498,2.022,4.521,4.521,4.521C164.535,222.689,166.563,220.666,166.563,218.168z"/>
	<path fill="#FFFFFF" d="M186.825,139.377h47.359c0.515,0,0.937-0.422,0.937-0.938c0-0.518-0.422-0.938-0.937-0.938h-47.359
		c-0.514,0-0.937,0.42-0.937,0.938C185.889,138.955,186.312,139.377,186.825,139.377z"/>
	<circle fill="#FFFFFF" cx="240.438" cy="153.698" r="1.978"/>
	<path fill="#FFFFFF" d="M186.825,154.636h47.359c0.515,0,0.937-0.422,0.937-0.938c0-0.518-0.422-0.938-0.937-0.938h-47.359
		c-0.514,0-0.937,0.42-0.937,0.938C185.889,154.214,186.312,154.636,186.825,154.636z"/>
	<circle fill="#FFFFFF" cx="240.438" cy="169.255" r="1.978"/>
	<path fill="#FFFFFF" d="M186.825,170.192h47.359c0.515,0,0.937-0.422,0.937-0.938c0-0.518-0.422-0.938-0.937-0.938h-47.359
		c-0.514,0-0.937,0.42-0.937,0.938C185.889,169.771,186.312,170.192,186.825,170.192z"/>
	<circle fill="#37424A" cx="92.178" cy="47.146" r="1.978"/>
	<circle fill="#37424A" cx="104.184" cy="53.414" r="1.978"/>
	<circle fill="#37424A" cx="115.819" cy="61.257" r="1.978"/>
	<circle fill="#37424A" cx="128.971" cy="60.257" r="1.978"/>
	<circle fill="#37424A" cx="141.244" cy="65.34" r="1.978"/>
	<circle fill="#37424A" cx="59.178" cy="64.773" r="1.978"/>
	<circle fill="#37424A" cx="70.844" cy="63.363" r="1.978"/>
	<circle fill="#37424A" cx="83.2" cy="56.02" r="1.978"/>
</g>
<g id="workbench">
	<rect x="-179" y="-10" fill="#FFFFFF" width="165" height="165"/>
	<path fill="#37424A" d="M-150.724,101.322h19.047c1.063,0,1.93-0.867,1.93-1.934c0-1.065-0.867-1.932-1.93-1.932h-19.047
		c-1.063,0-1.93,0.866-1.93,1.932C-152.654,100.455-151.787,101.322-150.724,101.322z"/>
	<circle fill="#878E92" cx="-141.2" cy="83.303" r="9.53"/>
	<path fill="#37424A" d="M-162.579,65.122h38.441c1.062,0,1.929-0.867,1.929-1.935c0-1.064-0.867-1.931-1.929-1.931h-38.441
		c-1.062,0-1.93,0.866-1.93,1.931C-164.508,64.255-163.64,65.122-162.579,65.122z"/>
	<path fill="#37424A" d="M-103.193,101.322h19.047c1.062,0,1.929-0.867,1.929-1.934c0-1.065-0.867-1.932-1.929-1.932h-19.047
		c-1.063,0-1.93,0.866-1.93,1.932C-105.123,100.455-104.255,101.322-103.193,101.322z"/>
	<circle fill="#878E92" cx="-93.668" cy="82.822" r="9.532"/>
	<path fill="#37424A" d="M-57.482,101.322h19.047c1.063,0,1.93-0.867,1.93-1.934c0-1.065-0.867-1.932-1.93-1.932h-19.047
		c-1.063,0-1.93,0.866-1.93,1.932C-59.412,100.455-58.544,101.322-57.482,101.322z"/>
	<circle fill="#878E92" cx="-47.957" cy="82.822" r="9.532"/>
	<path fill="#AFB3B7" d="M-151.832,111.419h20.377c0.515,0,0.937-0.422,0.937-0.938c0-0.518-0.422-0.938-0.937-0.938h-20.377
		c-0.514,0-0.937,0.42-0.937,0.938C-152.768,110.997-152.345,111.419-151.832,111.419z"/>
	<path fill="#AFB3B7" d="M-151.832,116.856h20.377c0.515,0,0.937-0.422,0.937-0.938c0-0.52-0.422-0.938-0.937-0.938h-20.377
		c-0.514,0-0.937,0.418-0.937,0.938C-152.768,116.435-152.345,116.856-151.832,116.856z"/>
	<path fill="#AFB3B7" d="M-151.832,122.293h20.377c0.515,0,0.937-0.422,0.937-0.938s-0.422-0.938-0.937-0.938h-20.377
		c-0.514,0-0.937,0.421-0.937,0.938S-152.345,122.293-151.832,122.293z"/>
	<path fill="#AFB3B7" d="M-103.857,111.419h20.377c0.513,0,0.935-0.422,0.935-0.938c0-0.518-0.422-0.938-0.935-0.938h-20.377
		c-0.515,0-0.937,0.42-0.937,0.938C-104.793,110.997-104.372,111.419-103.857,111.419z"/>
	<path fill="#AFB3B7" d="M-103.857,116.856h20.377c0.513,0,0.935-0.422,0.935-0.938c0-0.52-0.422-0.938-0.935-0.938h-20.377
		c-0.515,0-0.937,0.418-0.937,0.938C-104.793,116.435-104.372,116.856-103.857,116.856z"/>
	<path fill="#AFB3B7" d="M-103.857,122.293h20.377c0.513,0,0.935-0.422,0.935-0.938s-0.422-0.938-0.935-0.938h-20.377
		c-0.515,0-0.937,0.421-0.937,0.938S-104.372,122.293-103.857,122.293z"/>
	<path fill="#AFB3B7" d="M-58.145,111.419h20.38c0.513,0,0.935-0.422,0.935-0.938c0-0.518-0.422-0.938-0.935-0.938h-20.38
		c-0.513,0-0.935,0.42-0.935,0.938C-59.08,110.997-58.658,111.419-58.145,111.419z"/>
	<path fill="#AFB3B7" d="M-58.145,116.856h20.38c0.513,0,0.935-0.422,0.935-0.938c0-0.52-0.422-0.938-0.935-0.938h-20.38
		c-0.513,0-0.935,0.418-0.935,0.938C-59.08,116.435-58.658,116.856-58.145,116.856z"/>
	<path fill="#AFB3B7" d="M-58.145,122.293h20.38c0.513,0,0.935-0.422,0.935-0.938s-0.422-0.938-0.935-0.938h-20.38
		c-0.513,0-0.935,0.421-0.935,0.938S-58.658,122.293-58.145,122.293z"/>
	<path fill="#5F686E" d="M-161.079,57.284c-1.894,0-3.43-1.536-3.43-3.431V18.03c0-1.894,1.536-3.43,3.43-3.43h35.44
		c1.895,0,3.43,1.536,3.43,3.43v35.823c0,1.895-1.535,3.431-3.43,3.431H-161.079z"/>
	<path fill="#37424A" d="M-71.047,25.977h-42.159c-1.894,0-3.43-1.535-3.43-3.43v-4.5c0-1.894,1.536-3.43,3.43-3.43h42.159V25.977z"
		/>
	<path fill="#5F686E" d="M-71.047,25.977h40.942c1.893,0,3.43-1.535,3.43-3.43v-4.5c0-1.894-1.537-3.43-3.43-3.43h-40.942V25.977z"
		/>
	<path fill="#37424A" d="M-71.047,45.91h-42.159c-1.894,0-3.43-1.535-3.43-3.43v-4.5c0-1.894,1.536-3.43,3.43-3.43h42.159V45.91z"/>
	<path fill="#5F686E" d="M-71.047,45.91h40.942c1.893,0,3.43-1.535,3.43-3.43v-4.5c0-1.894-1.537-3.43-3.43-3.43h-40.942V45.91z"/>
	<path fill="#37424A" d="M-71.047,64.773h-42.159c-1.894,0-3.43-1.535-3.43-3.43v-4.5c0-1.894,1.536-3.43,3.43-3.43h42.159V64.773z"
		/>
	<path fill="#5F686E" d="M-71.047,64.773h40.942c1.893,0,3.43-1.535,3.43-3.43v-4.5c0-1.894-1.537-3.43-3.43-3.43h-40.942V64.773z"
		/>
	<path fill="#AFB3B7" d="M-161.874,147.029c-1.895,0-3.43-1.536-3.43-3.43v-9.717c0-1.894,1.535-3.43,3.43-3.43h131.769
		c1.893,0,3.43,1.536,3.43,3.43v9.717c0,1.894-1.537,3.43-3.43,3.43H-161.874z"/>
	<path fill="#AFB3B7" d="M-161.874,7.547c-1.895,0-3.43-1.536-3.43-3.43V2.975c0-1.894,1.535-3.43,3.43-3.43h131.769
		c1.893,0,3.43,1.536,3.43,3.43v1.143c0,1.894-1.537,3.43-3.43,3.43H-161.874z"/>
	<circle fill="#37424A" cx="-71.047" cy="20.297" r="2.606"/>
	<circle fill="#37424A" cx="-71.047" cy="40.23" r="2.606"/>
	<circle fill="#37424A" cx="-71.047" cy="59.295" r="2.606"/>
	<rect x="175.416" y="30.832" fill="#FF853A" width="50.5" height="19.515"/>
	<rect x="175.416" y="76.713" fill="#FFDF57" width="50.5" height="19.516"/>
	<rect x="175.416" y="53.772" fill="#5BC0DE" width="50.5" height="19.515"/>
	<rect x="175.416" y="99.654" fill="#37424A" width="50.5" height="19.514"/>
</g>
</svg>
