<?xml version="1.0" encoding="utf-8"?>
<!-- Generator: Adobe Illustrator 16.0.0, SVG Export Plug-In . SVG Version: 6.00 Build 0)  -->
<!DOCTYPE svg PUBLIC "-//W3C//DTD SVG 1.1//EN" "http://www.w3.org/Graphics/SVG/1.1/DTD/svg11.dtd">
<svg version="1.1" id="Layer_1" xmlns="http://www.w3.org/2000/svg" xmlns:xlink="http://www.w3.org/1999/xlink" x="0px" y="0px"
	 width="150px" height="150px" viewBox="0 0 150 150" enable-background="new 0 0 150 150" xml:space="preserve">
<path fill="#37424A" d="M20.943,103.293H39.99c1.063,0,1.93-0.867,1.93-1.934c0-1.065-0.867-1.932-1.93-1.932H20.943
	c-1.063,0-1.93,0.866-1.93,1.932C19.014,102.426,19.881,103.293,20.943,103.293z"/>
<circle fill="#878E92" cx="30.468" cy="85.273" r="9.53"/>
<path fill="#37424A" d="M9.089,67.093H47.53c1.062,0,1.929-0.867,1.929-1.935c0-1.064-0.867-1.931-1.929-1.931H9.089
	c-1.062,0-1.93,0.866-1.93,1.931C7.159,66.226,8.027,67.093,9.089,67.093z"/>
<path fill="#37424A" d="M68.475,103.293h19.047c1.062,0,1.929-0.867,1.929-1.934c0-1.065-0.867-1.932-1.929-1.932H68.475
	c-1.063,0-1.93,0.866-1.93,1.932C66.545,102.426,67.412,103.293,68.475,103.293z"/>
<circle fill="#878E92" cx="78" cy="84.793" r="9.532"/>
<path fill="#37424A" d="M114.186,103.293h19.047c1.063,0,1.93-0.867,1.93-1.934c0-1.065-0.867-1.932-1.93-1.932h-19.047
	c-1.063,0-1.93,0.866-1.93,1.932C112.256,102.426,113.123,103.293,114.186,103.293z"/>
<circle fill="#878E92" cx="123.711" cy="84.793" r="9.532"/>
<path fill="#AFB3B7" d="M19.836,113.39h20.377c0.515,0,0.937-0.422,0.937-0.938c0-0.518-0.422-0.938-0.937-0.938H19.836
	c-0.514,0-0.937,0.42-0.937,0.938C18.899,112.968,19.322,113.39,19.836,113.39z"/>
<path fill="#AFB3B7" d="M19.836,118.827h20.377c0.515,0,0.937-0.422,0.937-0.938c0-0.52-0.422-0.938-0.937-0.938H19.836
	c-0.514,0-0.937,0.418-0.937,0.938C18.899,118.405,19.322,118.827,19.836,118.827z"/>
<path fill="#AFB3B7" d="M19.836,124.264h20.377c0.515,0,0.937-0.422,0.937-0.938s-0.422-0.938-0.937-0.938H19.836
	c-0.514,0-0.937,0.421-0.937,0.938S19.322,124.264,19.836,124.264z"/>
<path fill="#AFB3B7" d="M67.811,113.39h20.377c0.513,0,0.935-0.422,0.935-0.938c0-0.518-0.422-0.938-0.935-0.938H67.811
	c-0.515,0-0.937,0.42-0.937,0.938C66.874,112.968,67.296,113.39,67.811,113.39z"/>
<path fill="#AFB3B7" d="M67.811,118.827h20.377c0.513,0,0.935-0.422,0.935-0.938c0-0.52-0.422-0.938-0.935-0.938H67.811
	c-0.515,0-0.937,0.418-0.937,0.938C66.874,118.405,67.296,118.827,67.811,118.827z"/>
<path fill="#AFB3B7" d="M67.811,124.264h20.377c0.513,0,0.935-0.422,0.935-0.938s-0.422-0.938-0.935-0.938H67.811
	c-0.515,0-0.937,0.421-0.937,0.938S67.296,124.264,67.811,124.264z"/>
<path fill="#AFB3B7" d="M113.522,113.39h20.38c0.513,0,0.935-0.422,0.935-0.938c0-0.518-0.422-0.938-0.935-0.938h-20.38
	c-0.513,0-0.935,0.42-0.935,0.938C112.588,112.968,113.01,113.39,113.522,113.39z"/>
<path fill="#AFB3B7" d="M113.522,118.827h20.38c0.513,0,0.935-0.422,0.935-0.938c0-0.52-0.422-0.938-0.935-0.938h-20.38
	c-0.513,0-0.935,0.418-0.935,0.938C112.588,118.405,113.01,118.827,113.522,118.827z"/>
<path fill="#AFB3B7" d="M113.522,124.264h20.38c0.513,0,0.935-0.422,0.935-0.938s-0.422-0.938-0.935-0.938h-20.38
	c-0.513,0-0.935,0.421-0.935,0.938S113.01,124.264,113.522,124.264z"/>
<path fill="#5F686E" d="M10.589,59.255c-1.894,0-3.43-1.536-3.43-3.431V20.001c0-1.894,1.536-3.43,3.43-3.43h35.44
	c1.895,0,3.43,1.536,3.43,3.43v35.823c0,1.895-1.535,3.431-3.43,3.431H10.589z"/>
<path fill="#37424A" d="M100.62,27.947H58.461c-1.894,0-3.43-1.535-3.43-3.43v-4.5c0-1.894,1.536-3.43,3.43-3.43h42.159V27.947z"/>
<path fill="#5F686E" d="M100.62,27.947h40.942c1.893,0,3.43-1.535,3.43-3.43v-4.5c0-1.894-1.537-3.43-3.43-3.43H100.62V27.947z"/>
<path fill="#37424A" d="M100.62,47.881H58.461c-1.894,0-3.43-1.535-3.43-3.43v-4.5c0-1.894,1.536-3.43,3.43-3.43h42.159V47.881z"/>
<path fill="#5F686E" d="M100.62,47.881h40.942c1.893,0,3.43-1.535,3.43-3.43v-4.5c0-1.894-1.537-3.43-3.43-3.43H100.62V47.881z"/>
<path fill="#37424A" d="M100.62,66.744H58.461c-1.894,0-3.43-1.535-3.43-3.43v-4.5c0-1.894,1.536-3.43,3.43-3.43h42.159V66.744z"/>
<path fill="#5F686E" d="M100.62,66.744h40.942c1.893,0,3.43-1.535,3.43-3.43v-4.5c0-1.894-1.537-3.43-3.43-3.43H100.62V66.744z"/>
<path fill="#AFB3B7" d="M9.794,149c-1.895,0-3.43-1.536-3.43-3.43v-9.717c0-1.894,1.535-3.43,3.43-3.43h131.769
	c1.893,0,3.43,1.536,3.43,3.43v9.717c0,1.894-1.537,3.43-3.43,3.43H9.794z"/>
<path fill="#AFB3B7" d="M9.794,9.518c-1.895,0-3.43-1.536-3.43-3.43V4.945c0-1.894,1.535-3.43,3.43-3.43h131.769
	c1.893,0,3.43,1.536,3.43,3.43v1.143c0,1.894-1.537,3.43-3.43,3.43H9.794z"/>
<circle fill="#37424A" cx="100.621" cy="22.268" r="2.606"/>
<circle fill="#37424A" cx="100.621" cy="42.201" r="2.606"/>
<circle fill="#37424A" cx="100.621" cy="61.266" r="2.606"/>
</svg>
