<?xml version="1.0" encoding="utf-8"?>
<!-- Generator: Adobe Illustrator 16.0.0, SVG Export Plug-In . SVG Version: 6.00 Build 0)  -->
<!DOCTYPE svg PUBLIC "-//W3C//DTD SVG 1.1//EN" "http://www.w3.org/Graphics/SVG/1.1/DTD/svg11.dtd">
<svg version="1.1" xmlns="http://www.w3.org/2000/svg" xmlns:xlink="http://www.w3.org/1999/xlink" x="0px" y="0px" width="150px"
	 height="150px" viewBox="0 0 150 150" enable-background="new 0 0 150 150" xml:space="preserve">
<g id="intranet_1_" display="none">
	<path display="inline" fill="#37424A" d="M20.276,103.322h19.047c1.063,0,1.93-0.867,1.93-1.934c0-1.065-0.867-1.932-1.93-1.932
		H20.276c-1.063,0-1.93,0.866-1.93,1.932C18.346,102.455,19.213,103.322,20.276,103.322z"/>
	<circle display="inline" fill="#878E92" cx="29.8" cy="85.303" r="9.53"/>
	<path display="inline" fill="#37424A" d="M8.421,67.122h38.441c1.062,0,1.929-0.867,1.929-1.935c0-1.064-0.867-1.931-1.929-1.931
		H8.421c-1.062,0-1.93,0.866-1.93,1.931C6.492,66.255,7.36,67.122,8.421,67.122z"/>
	<path display="inline" fill="#37424A" d="M67.807,103.322h19.046c1.063,0,1.93-0.867,1.93-1.934c0-1.065-0.867-1.932-1.93-1.932
		H67.807c-1.063,0-1.93,0.866-1.93,1.932C65.877,102.455,66.745,103.322,67.807,103.322z"/>
	<circle display="inline" fill="#878E92" cx="77.332" cy="84.822" r="9.531"/>
	<path display="inline" fill="#37424A" d="M113.518,103.322h19.047c1.063,0,1.93-0.867,1.93-1.934c0-1.065-0.867-1.932-1.93-1.932
		h-19.047c-1.063,0-1.93,0.866-1.93,1.932C111.588,102.455,112.455,103.322,113.518,103.322z"/>
	<circle display="inline" fill="#878E92" cx="123.044" cy="84.822" r="9.532"/>
	<path display="inline" fill="#AFB3B7" d="M19.168,113.419h20.377c0.515,0,0.937-0.422,0.937-0.938c0-0.518-0.422-0.938-0.937-0.938
		H19.168c-0.514,0-0.937,0.42-0.937,0.938C18.232,112.997,18.655,113.419,19.168,113.419z"/>
	<path display="inline" fill="#AFB3B7" d="M19.168,118.856h20.377c0.515,0,0.937-0.422,0.937-0.938c0-0.52-0.422-0.938-0.937-0.938
		H19.168c-0.514,0-0.937,0.418-0.937,0.938C18.232,118.435,18.655,118.856,19.168,118.856z"/>
	<path display="inline" fill="#AFB3B7" d="M19.168,124.293h20.377c0.515,0,0.937-0.422,0.937-0.938s-0.422-0.938-0.937-0.938H19.168
		c-0.514,0-0.937,0.421-0.937,0.938S18.655,124.293,19.168,124.293z"/>
	<path display="inline" fill="#AFB3B7" d="M67.143,113.419H87.52c0.514,0,0.936-0.422,0.936-0.938c0-0.518-0.422-0.938-0.936-0.938
		H67.143c-0.515,0-0.937,0.42-0.937,0.938C66.207,112.997,66.628,113.419,67.143,113.419z"/>
	<path display="inline" fill="#AFB3B7" d="M67.143,118.856H87.52c0.514,0,0.936-0.422,0.936-0.938c0-0.52-0.422-0.938-0.936-0.938
		H67.143c-0.515,0-0.937,0.418-0.937,0.938C66.207,118.435,66.628,118.856,67.143,118.856z"/>
	<path display="inline" fill="#AFB3B7" d="M67.143,124.293H87.52c0.514,0,0.936-0.422,0.936-0.938s-0.422-0.938-0.936-0.938H67.143
		c-0.515,0-0.937,0.421-0.937,0.938S66.628,124.293,67.143,124.293z"/>
	<path display="inline" fill="#AFB3B7" d="M112.855,113.419h20.379c0.514,0,0.936-0.422,0.936-0.938
		c0-0.518-0.422-0.938-0.936-0.938h-20.379c-0.514,0-0.936,0.42-0.936,0.938C111.92,112.997,112.342,113.419,112.855,113.419z"/>
	<path display="inline" fill="#AFB3B7" d="M112.855,118.856h20.379c0.514,0,0.936-0.422,0.936-0.938c0-0.52-0.422-0.938-0.936-0.938
		h-20.379c-0.514,0-0.936,0.418-0.936,0.938C111.92,118.435,112.342,118.856,112.855,118.856z"/>
	<path display="inline" fill="#AFB3B7" d="M112.855,124.293h20.379c0.514,0,0.936-0.422,0.936-0.938s-0.422-0.938-0.936-0.938
		h-20.379c-0.514,0-0.936,0.421-0.936,0.938S112.342,124.293,112.855,124.293z"/>
	<path display="inline" fill="#5F686E" d="M9.921,59.284c-1.894,0-3.43-1.536-3.43-3.431V20.03c0-1.894,1.536-3.43,3.43-3.43h35.44
		c1.895,0,3.43,1.536,3.43,3.43v35.823c0,1.895-1.535,3.431-3.43,3.431H9.921z"/>
	<path display="inline" fill="#37424A" d="M99.953,27.977h-42.16c-1.894,0-3.43-1.535-3.43-3.43v-4.5c0-1.894,1.536-3.43,3.43-3.43
		h42.16V27.977z"/>
	<path display="inline" fill="#5F686E" d="M99.953,27.977h40.941c1.893,0,3.43-1.535,3.43-3.43v-4.5c0-1.894-1.537-3.43-3.43-3.43
		H99.953V27.977z"/>
	<path display="inline" fill="#37424A" d="M99.953,47.91h-42.16c-1.894,0-3.43-1.535-3.43-3.43v-4.5c0-1.894,1.536-3.43,3.43-3.43
		h42.16V47.91z"/>
	<path display="inline" fill="#5F686E" d="M99.953,47.91h40.941c1.893,0,3.43-1.535,3.43-3.43v-4.5c0-1.894-1.537-3.43-3.43-3.43
		H99.953V47.91z"/>
	<path display="inline" fill="#37424A" d="M99.953,66.773h-42.16c-1.894,0-3.43-1.535-3.43-3.43v-4.5c0-1.894,1.536-3.43,3.43-3.43
		h42.16V66.773z"/>
	<path display="inline" fill="#5F686E" d="M99.953,66.773h40.941c1.893,0,3.43-1.535,3.43-3.43v-4.5c0-1.894-1.537-3.43-3.43-3.43
		H99.953V66.773z"/>
	<path display="inline" fill="#AFB3B7" d="M9.126,149.029c-1.895,0-3.43-1.536-3.43-3.43v-9.717c0-1.894,1.535-3.43,3.43-3.43
		h131.768c1.893,0,3.43,1.536,3.43,3.43v9.717c0,1.894-1.537,3.43-3.43,3.43H9.126z"/>
	<path display="inline" fill="#AFB3B7" d="M9.126,9.547c-1.895,0-3.43-1.536-3.43-3.43V4.975c0-1.894,1.535-3.43,3.43-3.43h131.768
		c1.893,0,3.43,1.536,3.43,3.43v1.143c0,1.894-1.537,3.43-3.43,3.43H9.126z"/>
	<circle display="inline" fill="#37424A" cx="99.953" cy="22.297" r="2.605"/>
	<circle display="inline" fill="#37424A" cx="99.953" cy="42.23" r="2.605"/>
	<circle display="inline" fill="#37424A" cx="99.953" cy="61.295" r="2.605"/>
</g>
<g id="css_library">
	<circle fill="#37424A" cx="10.229" cy="65.033" r="2.606"/>
	<path fill="#37424A" d="M32.741,93.904h19.047c1.063,0,1.93-0.867,1.93-1.934c0-1.065-0.867-1.932-1.93-1.932H32.741
		c-1.063,0-1.93,0.866-1.93,1.932C30.812,93.037,31.679,93.904,32.741,93.904z"/>
	<path fill="#5F686E" d="M6.364,58.416v33.168c0,1.063,0.867,1.93,1.934,1.93c1.065,0,1.932-0.867,1.932-1.93V58.416
		c0-1.063-0.866-1.93-1.932-1.93C7.231,56.486,6.364,57.354,6.364,58.416z"/>
	<circle fill="#5F686E" cx="75.679" cy="99.513" r="9.53"/>
	<path fill="#37424A" d="M56.458,58.093h38.441c1.062,0,1.929-0.867,1.929-1.935c0-1.064-0.867-1.931-1.929-1.931H56.458
		c-1.062,0-1.93,0.866-1.93,1.931C54.528,57.226,55.396,58.093,56.458,58.093z"/>
	<path fill="#37424A" d="M262.776,190.96h19.047c1.062,0,1.929-0.867,1.929-1.934c0-1.065-0.867-1.932-1.929-1.932h-19.047
		c-1.063,0-1.93,0.866-1.93,1.932C260.847,190.093,261.714,190.96,262.776,190.96z"/>
	<circle fill="#878E92" cx="272.301" cy="172.46" r="9.532"/>
	<path fill="#37424A" d="M308.487,190.96h19.047c1.063,0,1.93-0.867,1.93-1.934c0-1.065-0.867-1.932-1.93-1.932h-19.047
		c-1.063,0-1.93,0.866-1.93,1.932C306.558,190.093,307.425,190.96,308.487,190.96z"/>
	<circle fill="#878E92" cx="318.013" cy="172.46" r="9.532"/>
	<path fill="#AFB3B7" d="M36.333,104.001h15.677c0.515,0,0.937-0.422,0.937-0.938c0-0.518-0.422-0.938-0.937-0.938H36.333
		c-0.514,0-0.937,0.42-0.937,0.938C35.397,103.579,35.82,104.001,36.333,104.001z"/>
	<path fill="#AFB3B7" d="M31.634,109.438h20.377c0.515,0,0.937-0.422,0.937-0.938c0-0.52-0.422-0.938-0.937-0.938H31.634
		c-0.514,0-0.937,0.418-0.937,0.938C30.697,109.017,31.12,109.438,31.634,109.438z"/>
	<path fill="#AFB3B7" d="M31.634,114.875h20.377c0.515,0,0.937-0.422,0.937-0.938s-0.422-0.938-0.937-0.938H31.634
		c-0.514,0-0.937,0.421-0.937,0.938S31.12,114.875,31.634,114.875z"/>
	<path fill="#AFB3B7" d="M31.634,119.855h20.377c0.515,0,0.937-0.422,0.937-0.938c0-0.518-0.422-0.938-0.937-0.938H31.634
		c-0.514,0-0.937,0.42-0.937,0.938C30.697,119.434,31.12,119.855,31.634,119.855z"/>
	<path fill="#AFB3B7" d="M31.634,125.293h20.377c0.515,0,0.937-0.422,0.937-0.938c0-0.52-0.422-0.938-0.937-0.938H31.634
		c-0.514,0-0.937,0.418-0.937,0.938C30.697,124.871,31.12,125.293,31.634,125.293z"/>
	<path fill="#AFB3B7" d="M31.634,130.729h20.377c0.515,0,0.937-0.422,0.937-0.938s-0.422-0.938-0.937-0.938H31.634
		c-0.514,0-0.937,0.421-0.937,0.938S31.12,130.729,31.634,130.729z"/>
	<path fill="#5F686E" d="M66.098,119.855h20.377c0.515,0,0.937-0.422,0.937-0.938c0-0.518-0.422-0.938-0.937-0.938H66.098
		c-0.514,0-0.937,0.42-0.937,0.938C65.161,119.434,65.584,119.855,66.098,119.855z"/>
	<path fill="#5F686E" d="M66.098,114.875h20.377c0.515,0,0.937-0.422,0.937-0.938c0-0.518-0.422-0.938-0.937-0.938H66.098
		c-0.514,0-0.937,0.42-0.937,0.938C65.161,114.453,65.584,114.875,66.098,114.875z"/>
	<path fill="#5F686E" d="M66.098,125.293h20.377c0.515,0,0.937-0.422,0.937-0.938c0-0.52-0.422-0.938-0.937-0.938H66.098
		c-0.514,0-0.937,0.418-0.937,0.938C65.161,124.871,65.584,125.293,66.098,125.293z"/>
	<path fill="#5F686E" d="M66.098,130.729h20.377c0.515,0,0.937-0.422,0.937-0.938s-0.422-0.938-0.937-0.938H66.098
		c-0.514,0-0.937,0.421-0.937,0.938S65.584,130.729,66.098,130.729z"/>
	<path fill="#AFB3B7" d="M262.112,201.057h20.377c0.513,0,0.935-0.422,0.935-0.938c0-0.518-0.422-0.938-0.935-0.938h-20.377
		c-0.515,0-0.937,0.42-0.937,0.938C261.176,200.635,261.598,201.057,262.112,201.057z"/>
	<path fill="#AFB3B7" d="M262.112,206.494h20.377c0.513,0,0.935-0.422,0.935-0.938c0-0.52-0.422-0.938-0.935-0.938h-20.377
		c-0.515,0-0.937,0.418-0.937,0.938C261.176,206.072,261.598,206.494,262.112,206.494z"/>
	<path fill="#AFB3B7" d="M262.112,211.931h20.377c0.513,0,0.935-0.422,0.935-0.938s-0.422-0.938-0.935-0.938h-20.377
		c-0.515,0-0.937,0.421-0.937,0.938S261.598,211.931,262.112,211.931z"/>
	<path fill="#AFB3B7" d="M307.824,201.057h20.38c0.513,0,0.935-0.422,0.935-0.938c0-0.518-0.422-0.938-0.935-0.938h-20.38
		c-0.513,0-0.935,0.42-0.935,0.938C306.89,200.635,307.312,201.057,307.824,201.057z"/>
	<path fill="#AFB3B7" d="M307.824,206.494h20.38c0.513,0,0.935-0.422,0.935-0.938c0-0.52-0.422-0.938-0.935-0.938h-20.38
		c-0.513,0-0.935,0.418-0.935,0.938C306.89,206.072,307.312,206.494,307.824,206.494z"/>
	<path fill="#AFB3B7" d="M307.824,211.931h20.38c0.513,0,0.935-0.422,0.935-0.938s-0.422-0.938-0.935-0.938h-20.38
		c-0.513,0-0.935,0.421-0.935,0.938S307.312,211.931,307.824,211.931z"/>
	<path fill="#5F686E" d="M57.958,50.255c-1.894,0-3.43-1.536-3.43-3.431V20.001c0-1.894,1.536-3.43,3.43-3.43h35.44
		c1.895,0,3.43,1.536,3.43,3.43v26.823c0,1.895-1.535,3.431-3.43,3.431H57.958z"/>
	<path fill="#AFB3B7" d="M100.258,130.666c-1.894,0-3.43-1.536-3.43-3.431V93.412c0-1.894,1.536-3.43,3.43-3.43h18.686
		c1.895,0,3.43,1.536,3.43,3.43v33.823c0,1.895-1.535,3.431-3.43,3.431H100.258z"/>
	<path fill="#5F686E" d="M76.286,79.359H34.127c-1.894,0-3.43-1.535-3.43-3.43v-4.5c0-1.894,1.536-3.43,3.43-3.43h42.159V79.359z"/>
	<path fill="#37424A" d="M76.286,79.359h40.942c1.893,0,3.43-1.535,3.43-3.43v-4.5c0-1.894-1.537-3.43-3.43-3.43H76.286V79.359z"/>
	<path fill="#37424A" d="M288.563,94.514h-42.159c-1.894,0-3.43-1.535-3.43-3.43v-4.5c0-1.894,1.536-3.43,3.43-3.43h42.159V94.514z"
		/>
	<path fill="#5F686E" d="M288.563,94.514h40.942c1.893,0,3.43-1.535,3.43-3.43v-4.5c0-1.894-1.537-3.43-3.43-3.43h-40.942V94.514z"
		/>
	<path fill="#37424A" d="M287.953,47.881h-42.159c-1.894,0-3.43-1.535-3.43-3.43v-4.5c0-1.894,1.536-3.43,3.43-3.43h42.159V47.881z"
		/>
	<path fill="#5F686E" d="M287.953,47.881h40.942c1.893,0,3.43-1.535,3.43-3.43v-4.5c0-1.894-1.537-3.43-3.43-3.43h-40.942V47.881z"
		/>
	<path fill="#37424A" d="M287.953,66.744h-42.159c-1.894,0-3.43-1.535-3.43-3.43v-4.5c0-1.894,1.536-3.43,3.43-3.43h42.159V66.744z"
		/>
	<path fill="#5F686E" d="M287.953,66.744h40.942c1.893,0,3.43-1.535,3.43-3.43v-4.5c0-1.894-1.537-3.43-3.43-3.43h-40.942V66.744z"
		/>
	<path fill="#AFB3B7" d="M204.096,236.667c-1.895,0-3.43-1.536-3.43-3.43v-9.717c0-1.894,1.535-3.43,3.43-3.43h131.769
		c1.893,0,3.43,1.536,3.43,3.43v9.717c0,1.894-1.537,3.43-3.43,3.43H204.096z"/>
	<path fill="#AFB3B7" d="M9.794,9.518c-1.895,0-3.43-1.536-3.43-3.43V4.945c0-1.894,1.535-3.43,3.43-3.43h131.769
		c1.893,0,3.43,1.536,3.43,3.43v1.143c0,1.894-1.537,3.43-3.43,3.43H9.794z"/>
	<path fill="#37424A" d="M34.241,148.518c-1.895,0-3.43-1.535-3.43-3.43v-1.143c0-1.893,1.535-3.43,3.43-3.43h84.702
		c1.893,0,3.43,1.537,3.43,3.43v1.143c0,1.895-1.537,3.43-3.43,3.43H34.241z"/>
	<circle fill="#37424A" cx="142.386" cy="65.033" r="2.606"/>
	<circle fill="#AFB3B7" cx="142.386" cy="75" r="2.606"/>
	<circle fill="#AFB3B7" cx="142.386" cy="84.967" r="2.606"/>
	<circle fill="#5F686E" cx="10.229" cy="75" r="2.606"/>
	<circle fill="#5F686E" cx="10.229" cy="84.967" r="2.606"/>
</g>
<g id="forecast" display="none">
	<path display="inline" fill="#5F686E" d="M99.076,113.895h19.048c1.063,0,1.93-0.867,1.93-1.934c0-1.065-0.867-1.932-1.93-1.932
		H99.076c-1.063,0-1.93,0.866-1.93,1.932C97.146,113.027,98.014,113.895,99.076,113.895z"/>
	<path display="inline" fill="#AFB3B7" d="M6.364,174.376v33.168c0,1.063,0.867,1.93,1.934,1.93c1.065,0,1.932-0.867,1.932-1.93
		v-33.168c0-1.063-0.866-1.93-1.932-1.93C7.231,172.446,6.364,173.313,6.364,174.376z"/>
	<circle display="inline" fill="#37424A" cx="42.265" cy="83.303" r="18.394"/>
	<circle display="inline" fill="#37424A" cx="108.601" cy="83.303" r="18.394"/>
	<path display="inline" fill="#AFB3B7" d="M56.458,174.393h38.441c1.062,0,1.929-0.867,1.929-1.935c0-1.064-0.867-1.931-1.929-1.931
		H56.458c-1.062,0-1.93,0.866-1.93,1.931C54.528,173.525,55.396,174.393,56.458,174.393z"/>
	<path display="inline" fill="#37424A" d="M262.776,190.96h19.047c1.062,0,1.929-0.867,1.929-1.934c0-1.065-0.867-1.932-1.929-1.932
		h-19.047c-1.063,0-1.93,0.866-1.93,1.932C260.847,190.093,261.714,190.96,262.776,190.96z"/>
	<circle display="inline" fill="#878E92" cx="272.301" cy="172.46" r="9.532"/>
	<path display="inline" fill="#37424A" d="M308.487,190.96h19.047c1.063,0,1.93-0.867,1.93-1.934c0-1.065-0.867-1.932-1.93-1.932
		h-19.047c-1.063,0-1.93,0.866-1.93,1.932C306.558,190.093,307.425,190.96,308.487,190.96z"/>
	<circle display="inline" fill="#878E92" cx="318.013" cy="172.46" r="9.532"/>
	<path display="inline" fill="#AFB3B7" d="M32.077,60.031h20.377c0.515,0,0.937-0.422,0.937-0.938c0-0.518-0.422-0.938-0.937-0.938
		H32.077c-0.514,0-0.937,0.42-0.937,0.938C31.14,59.609,31.563,60.031,32.077,60.031z"/>
	<path display="inline" fill="#AFB3B7" d="M98.412,60.031h20.377c0.515,0,0.937-0.422,0.937-0.938c0-0.518-0.422-0.938-0.937-0.938
		H98.412c-0.514,0-0.937,0.42-0.937,0.938C97.476,59.609,97.898,60.031,98.412,60.031z"/>
	<path display="inline" fill="#AFB3B7" d="M11.166,245.376h20.377c0.515,0,0.937-0.422,0.937-0.938c0-0.52-0.422-0.938-0.937-0.938
		H11.166c-0.514,0-0.937,0.418-0.937,0.938C10.229,244.954,10.652,245.376,11.166,245.376z"/>
	<path display="inline" fill="#AFB3B7" d="M11.166,250.813h20.377c0.515,0,0.937-0.422,0.937-0.938s-0.422-0.938-0.937-0.938H11.166
		c-0.514,0-0.937,0.421-0.937,0.938S10.652,250.813,11.166,250.813z"/>
	<path display="inline" fill="#AFB3B7" d="M11.166,255.793h20.377c0.515,0,0.937-0.422,0.937-0.938c0-0.518-0.422-0.938-0.937-0.938
		H11.166c-0.514,0-0.937,0.42-0.937,0.938C10.229,255.371,10.652,255.793,11.166,255.793z"/>
	<path display="inline" fill="#AFB3B7" d="M11.166,261.23h20.377c0.515,0,0.937-0.422,0.937-0.938c0-0.52-0.422-0.938-0.937-0.938
		H11.166c-0.514,0-0.937,0.418-0.937,0.938C10.229,260.809,10.652,261.23,11.166,261.23z"/>
	<path display="inline" fill="#AFB3B7" d="M11.166,266.667h20.377c0.515,0,0.937-0.422,0.937-0.938s-0.422-0.938-0.937-0.938H11.166
		c-0.514,0-0.937,0.421-0.937,0.938S10.652,266.667,11.166,266.667z"/>
	<path display="inline" fill="#AFB3B7" d="M98.412,120.992h20.377c0.515,0,0.937-0.422,0.937-0.938c0-0.518-0.422-0.938-0.937-0.938
		H98.412c-0.514,0-0.937,0.42-0.937,0.938C97.476,120.57,97.898,120.992,98.412,120.992z"/>
	<path display="inline" fill="#AFB3B7" d="M36.63,111.962h20.377c0.515,0,0.937-0.422,0.937-0.938c0-0.518-0.422-0.938-0.937-0.938
		H36.63c-0.514,0-0.937,0.42-0.937,0.938C35.693,111.54,36.116,111.962,36.63,111.962z"/>
	<path display="inline" fill="#5F686E" d="M36.63,121.929h20.377c0.515,0,0.937-0.422,0.937-0.938c0-0.518-0.422-0.938-0.937-0.938
		H36.63c-0.514,0-0.937,0.42-0.937,0.938C35.693,121.507,36.116,121.929,36.63,121.929z"/>
	<path display="inline" fill="#37424A" d="M36.63,131.896h20.377c0.515,0,0.937-0.422,0.937-0.938c0-0.518-0.422-0.938-0.937-0.938
		H36.63c-0.514,0-0.937,0.42-0.937,0.938C35.693,131.474,36.116,131.896,36.63,131.896z"/>
	<path display="inline" fill="#AFB3B7" d="M98.412,126.43h20.377c0.515,0,0.937-0.422,0.937-0.938c0-0.52-0.422-0.938-0.937-0.938
		H98.412c-0.514,0-0.937,0.418-0.937,0.938C97.476,126.008,97.898,126.43,98.412,126.43z"/>
	<path display="inline" fill="#AFB3B7" d="M98.412,131.866h20.377c0.515,0,0.937-0.422,0.937-0.938s-0.422-0.938-0.937-0.938H98.412
		c-0.514,0-0.937,0.421-0.937,0.938S97.898,131.866,98.412,131.866z"/>
	<path display="inline" fill="#AFB3B7" d="M262.112,201.057h20.377c0.513,0,0.935-0.422,0.935-0.938
		c0-0.518-0.422-0.938-0.935-0.938h-20.377c-0.515,0-0.937,0.42-0.937,0.938C261.176,200.635,261.598,201.057,262.112,201.057z"/>
	<path display="inline" fill="#AFB3B7" d="M262.112,206.494h20.377c0.513,0,0.935-0.422,0.935-0.938c0-0.52-0.422-0.938-0.935-0.938
		h-20.377c-0.515,0-0.937,0.418-0.937,0.938C261.176,206.072,261.598,206.494,262.112,206.494z"/>
	<path display="inline" fill="#AFB3B7" d="M262.112,211.931h20.377c0.513,0,0.935-0.422,0.935-0.938s-0.422-0.938-0.935-0.938
		h-20.377c-0.515,0-0.937,0.421-0.937,0.938S261.598,211.931,262.112,211.931z"/>
	<path display="inline" fill="#AFB3B7" d="M307.824,201.057h20.38c0.513,0,0.935-0.422,0.935-0.938c0-0.518-0.422-0.938-0.935-0.938
		h-20.38c-0.513,0-0.935,0.42-0.935,0.938C306.89,200.635,307.312,201.057,307.824,201.057z"/>
	<path display="inline" fill="#AFB3B7" d="M307.824,206.494h20.38c0.513,0,0.935-0.422,0.935-0.938c0-0.52-0.422-0.938-0.935-0.938
		h-20.38c-0.513,0-0.935,0.418-0.935,0.938C306.89,206.072,307.312,206.494,307.824,206.494z"/>
	<path display="inline" fill="#AFB3B7" d="M307.824,211.931h20.38c0.513,0,0.935-0.422,0.935-0.938s-0.422-0.938-0.935-0.938h-20.38
		c-0.513,0-0.935,0.421-0.935,0.938S307.312,211.931,307.824,211.931z"/>
	<path display="inline" fill="#5F686E" d="M10.012,50.255c-1.894,0-3.43-1.536-3.43-3.431V20.001c0-1.894,1.536-3.43,3.43-3.43
		h130.66c1.895,0,3.43,1.536,3.43,3.43v26.823c0,1.895-1.535,3.431-3.43,3.431H10.012z"/>
	<path display="inline" fill="#5F686E" d="M100.258,277.351c-1.894,0-3.43-1.536-3.43-3.431v-33.823c0-1.894,1.536-3.43,3.43-3.43
		h18.686c1.895,0,3.43,1.536,3.43,3.43v33.823c0,1.895-1.535,3.431-3.43,3.431H100.258z"/>
	<path display="inline" fill="#5F686E" d="M76.286,217.61H34.127c-1.894,0-3.43-1.535-3.43-3.43v-4.5c0-1.894,1.536-3.43,3.43-3.43
		h42.159V217.61z"/>
	<path display="inline" fill="#37424A" d="M76.286,217.61h40.942c1.893,0,3.43-1.535,3.43-3.43v-4.5c0-1.894-1.537-3.43-3.43-3.43
		H76.286V217.61z"/>
	<path display="inline" fill="#37424A" d="M288.563,94.514h-42.159c-1.894,0-3.43-1.535-3.43-3.43v-4.5
		c0-1.894,1.536-3.43,3.43-3.43h42.159V94.514z"/>
	<path display="inline" fill="#5F686E" d="M288.563,94.514h40.942c1.893,0,3.43-1.535,3.43-3.43v-4.5c0-1.894-1.537-3.43-3.43-3.43
		h-40.942V94.514z"/>
	<path display="inline" fill="#37424A" d="M287.953,47.881h-42.159c-1.894,0-3.43-1.535-3.43-3.43v-4.5
		c0-1.894,1.536-3.43,3.43-3.43h42.159V47.881z"/>
	<path display="inline" fill="#5F686E" d="M287.953,47.881h40.942c1.893,0,3.43-1.535,3.43-3.43v-4.5c0-1.894-1.537-3.43-3.43-3.43
		h-40.942V47.881z"/>
	<path display="inline" fill="#37424A" d="M287.953,66.744h-42.159c-1.894,0-3.43-1.535-3.43-3.43v-4.5
		c0-1.894,1.536-3.43,3.43-3.43h42.159V66.744z"/>
	<path display="inline" fill="#5F686E" d="M287.953,66.744h40.942c1.893,0,3.43-1.535,3.43-3.43v-4.5c0-1.894-1.537-3.43-3.43-3.43
		h-40.942V66.744z"/>
	<path display="inline" fill="#AFB3B7" d="M204.096,236.667c-1.895,0-3.43-1.536-3.43-3.43v-9.717c0-1.894,1.535-3.43,3.43-3.43
		h131.769c1.893,0,3.43,1.536,3.43,3.43v9.717c0,1.894-1.537,3.43-3.43,3.43H204.096z"/>
	<path display="inline" fill="#AFB3B7" d="M9.794,9.518c-1.895,0-3.43-1.536-3.43-3.43V4.945c0-1.894,1.535-3.43,3.43-3.43h131.769
		c1.893,0,3.43,1.536,3.43,3.43v1.143c0,1.894-1.537,3.43-3.43,3.43H9.794z"/>
	<path display="inline" fill="#AFB3B7" d="M9.794,148.518c-1.895,0-3.43-1.535-3.43-3.43v-1.143c0-1.893,1.535-3.43,3.43-3.43
		h131.769c1.893,0,3.43,1.537,3.43,3.43v1.143c0,1.895-1.537,3.43-3.43,3.43H9.794z"/>
	<circle display="inline" fill="#AFB3B7" cx="27.534" cy="111.024" r="2.606"/>
	<circle display="inline" fill="#5F686E" cx="27.534" cy="120.991" r="2.606"/>
	<circle display="inline" fill="#37424A" cx="27.534" cy="130.958" r="2.606"/>
</g>
<g id="workbench">
	<rect x="-179" y="-10" fill="#FFFFFF" width="165" height="165"/>
	<path fill="#37424A" d="M-150.724,101.322h19.047c1.063,0,1.93-0.867,1.93-1.934c0-1.065-0.867-1.932-1.93-1.932h-19.047
		c-1.063,0-1.93,0.866-1.93,1.932C-152.654,100.455-151.787,101.322-150.724,101.322z"/>
	<circle fill="#878E92" cx="-141.2" cy="83.303" r="9.53"/>
	<path fill="#37424A" d="M-162.579,65.122h38.441c1.062,0,1.929-0.867,1.929-1.935c0-1.064-0.867-1.931-1.929-1.931h-38.441
		c-1.062,0-1.93,0.866-1.93,1.931C-164.508,64.255-163.64,65.122-162.579,65.122z"/>
	<path fill="#37424A" d="M-103.193,101.322h19.047c1.062,0,1.929-0.867,1.929-1.934c0-1.065-0.867-1.932-1.929-1.932h-19.047
		c-1.063,0-1.93,0.866-1.93,1.932C-105.123,100.455-104.255,101.322-103.193,101.322z"/>
	<circle fill="#878E92" cx="-93.668" cy="82.822" r="9.532"/>
	<path fill="#37424A" d="M-57.482,101.322h19.047c1.063,0,1.93-0.867,1.93-1.934c0-1.065-0.867-1.932-1.93-1.932h-19.047
		c-1.063,0-1.93,0.866-1.93,1.932C-59.412,100.455-58.544,101.322-57.482,101.322z"/>
	<circle fill="#878E92" cx="-47.957" cy="82.822" r="9.532"/>
	<path fill="#AFB3B7" d="M-151.832,111.419h20.377c0.515,0,0.937-0.422,0.937-0.938c0-0.518-0.422-0.938-0.937-0.938h-20.377
		c-0.514,0-0.937,0.42-0.937,0.938C-152.768,110.997-152.345,111.419-151.832,111.419z"/>
	<path fill="#AFB3B7" d="M-151.832,116.856h20.377c0.515,0,0.937-0.422,0.937-0.938c0-0.52-0.422-0.938-0.937-0.938h-20.377
		c-0.514,0-0.937,0.418-0.937,0.938C-152.768,116.435-152.345,116.856-151.832,116.856z"/>
	<path fill="#AFB3B7" d="M-151.832,122.293h20.377c0.515,0,0.937-0.422,0.937-0.938s-0.422-0.938-0.937-0.938h-20.377
		c-0.514,0-0.937,0.421-0.937,0.938S-152.345,122.293-151.832,122.293z"/>
	<path fill="#AFB3B7" d="M-103.857,111.419h20.377c0.513,0,0.935-0.422,0.935-0.938c0-0.518-0.422-0.938-0.935-0.938h-20.377
		c-0.515,0-0.937,0.42-0.937,0.938C-104.793,110.997-104.372,111.419-103.857,111.419z"/>
	<path fill="#AFB3B7" d="M-103.857,116.856h20.377c0.513,0,0.935-0.422,0.935-0.938c0-0.52-0.422-0.938-0.935-0.938h-20.377
		c-0.515,0-0.937,0.418-0.937,0.938C-104.793,116.435-104.372,116.856-103.857,116.856z"/>
	<path fill="#AFB3B7" d="M-103.857,122.293h20.377c0.513,0,0.935-0.422,0.935-0.938s-0.422-0.938-0.935-0.938h-20.377
		c-0.515,0-0.937,0.421-0.937,0.938S-104.372,122.293-103.857,122.293z"/>
	<path fill="#AFB3B7" d="M-58.145,111.419h20.38c0.513,0,0.935-0.422,0.935-0.938c0-0.518-0.422-0.938-0.935-0.938h-20.38
		c-0.513,0-0.935,0.42-0.935,0.938C-59.08,110.997-58.658,111.419-58.145,111.419z"/>
	<path fill="#AFB3B7" d="M-58.145,116.856h20.38c0.513,0,0.935-0.422,0.935-0.938c0-0.52-0.422-0.938-0.935-0.938h-20.38
		c-0.513,0-0.935,0.418-0.935,0.938C-59.08,116.435-58.658,116.856-58.145,116.856z"/>
	<path fill="#AFB3B7" d="M-58.145,122.293h20.38c0.513,0,0.935-0.422,0.935-0.938s-0.422-0.938-0.935-0.938h-20.38
		c-0.513,0-0.935,0.421-0.935,0.938S-58.658,122.293-58.145,122.293z"/>
	<path fill="#5F686E" d="M-161.079,57.284c-1.894,0-3.43-1.536-3.43-3.431V18.03c0-1.894,1.536-3.43,3.43-3.43h35.44
		c1.895,0,3.43,1.536,3.43,3.43v35.823c0,1.895-1.535,3.431-3.43,3.431H-161.079z"/>
	<path fill="#37424A" d="M-71.047,25.977h-42.159c-1.894,0-3.43-1.535-3.43-3.43v-4.5c0-1.894,1.536-3.43,3.43-3.43h42.159V25.977z"
		/>
	<path fill="#5F686E" d="M-71.047,25.977h40.942c1.893,0,3.43-1.535,3.43-3.43v-4.5c0-1.894-1.537-3.43-3.43-3.43h-40.942V25.977z"
		/>
	<path fill="#37424A" d="M-71.047,45.91h-42.159c-1.894,0-3.43-1.535-3.43-3.43v-4.5c0-1.894,1.536-3.43,3.43-3.43h42.159V45.91z"/>
	<path fill="#5F686E" d="M-71.047,45.91h40.942c1.893,0,3.43-1.535,3.43-3.43v-4.5c0-1.894-1.537-3.43-3.43-3.43h-40.942V45.91z"/>
	<path fill="#37424A" d="M-71.047,64.773h-42.159c-1.894,0-3.43-1.535-3.43-3.43v-4.5c0-1.894,1.536-3.43,3.43-3.43h42.159V64.773z"
		/>
	<path fill="#5F686E" d="M-71.047,64.773h40.942c1.893,0,3.43-1.535,3.43-3.43v-4.5c0-1.894-1.537-3.43-3.43-3.43h-40.942V64.773z"
		/>
	<path fill="#AFB3B7" d="M-161.874,147.029c-1.895,0-3.43-1.536-3.43-3.43v-9.717c0-1.894,1.535-3.43,3.43-3.43h131.769
		c1.893,0,3.43,1.536,3.43,3.43v9.717c0,1.894-1.537,3.43-3.43,3.43H-161.874z"/>
	<path fill="#AFB3B7" d="M-161.874,7.547c-1.895,0-3.43-1.536-3.43-3.43V2.975c0-1.894,1.535-3.43,3.43-3.43h131.769
		c1.893,0,3.43,1.536,3.43,3.43v1.143c0,1.894-1.537,3.43-3.43,3.43H-161.874z"/>
	<circle fill="#37424A" cx="-71.047" cy="20.297" r="2.606"/>
	<circle fill="#37424A" cx="-71.047" cy="40.23" r="2.606"/>
	<circle fill="#37424A" cx="-71.047" cy="59.295" r="2.606"/>
	<rect x="175.416" y="30.832" fill="#FF853A" width="50.5" height="19.515"/>
	<rect x="175.416" y="76.713" fill="#FFDF57" width="50.5" height="19.516"/>
	<rect x="175.416" y="53.772" fill="#5BC0DE" width="50.5" height="19.515"/>
	<rect x="175.416" y="99.654" fill="#37424A" width="50.5" height="19.514"/>
</g>
</svg>
