<?xml version="1.0" encoding="utf-8"?>
<!-- Generator: Adobe Illustrator 16.0.0, SVG Export Plug-In . SVG Version: 6.00 Build 0)  -->
<!DOCTYPE svg PUBLIC "-//W3C//DTD SVG 1.1//EN" "http://www.w3.org/Graphics/SVG/1.1/DTD/svg11.dtd">
<svg version="1.1" xmlns="http://www.w3.org/2000/svg" xmlns:xlink="http://www.w3.org/1999/xlink" x="0px" y="0px" width="135px"
	 height="100px" viewBox="0 0 135 100" enable-background="new 0 0 135 100" xml:space="preserve">
<g id="Layer_2" display="none">
	<rect x="-13" y="-16.5" display="inline" fill="#1B1B1B" stroke="#FFFFFF" stroke-miterlimit="10" width="160.203" height="144"/>
</g>
<g id="Layer_1">
	<path fill="#FFFFFF" d="M25.318,79.252c-0.294-1.275-0.49-2.648-0.588-3.923c-1.765,2.942-5,4.706-8.823,4.706
		c-5.097,0-10.292-3.922-10.292-12.449c0-8.234,3.333-12.254,10.489-15.882c5.587-2.842,8.136-4.607,8.136-10.194
		c0-3.333-0.98-6.079-4.215-6.079c-3.137,0-4.608,2.254-4.608,6.764v2.941H7.084v-2.941c0-8.725,4.705-14.214,13.136-14.214
		c10.391,0,12.352,7.155,12.352,16.174v17.057c0,11.274,0.097,14.41,0.881,18.039L25.318,79.252L25.318,79.252z M24.141,53.861
		c-0.882,1.177-2.058,2.156-4.215,3.432c-3.921,2.352-5.783,4.51-5.783,9.215c0,4.41,1.96,6.076,4.607,6.076
		c3.137,0,5.391-2.45,5.391-7.645V53.861z"/>
	<path fill="#FFFFFF" d="M51.246,80.035c-8.43,0-13.528-5-13.528-13.725v-3.332h8.333v2.842c0,4.51,2.059,6.764,5.195,6.764
		c3.039,0,5.293-1.959,5.293-5.979c0-2.746-0.588-4.217-3.234-6.274l-7.744-6.177c-4.412-3.528-6.96-6.469-6.96-12.743
		c0-8.431,4.412-13.43,12.646-13.43c8.234,0,12.843,4.999,12.843,13.724v3.431h-8.333v-2.941c0-4.215-1.471-6.764-4.51-6.764
		c-2.939,0-4.41,2.254-4.41,5.98c0,2.745,0.588,4.019,3.234,6.078l7.746,6.177c4.411,3.529,6.959,6.665,6.959,12.939
		C64.773,75.035,59.479,80.035,51.246,80.035z"/>
	<path fill="#FFFFFF" d="M71.73,79.252V28.766h8.333v50.486H71.73z"/>
	<g>
		<path fill="#FFFFFF" d="M118.924,28.001c-3.818,0.197-6.506,1.926-7.98,4.784c-1.57-3.235-4.119-4.803-8.824-4.803
			c-2.842,0-6.078,1.666-6.961,3.921v-3.137h-8.037v50.486h8.332V42.196c0-4.51,1.668-6.666,4.605-6.666
			c3.037,0,4.605,2.156,4.605,6.666v37.056h8.332V42.196c0-4.51,1.668-6.666,4.607-6.666c0.479,0,0.913,0.06,1.316,0.167v-7.696
			H118.924z"/>
	</g>
	<path fill="#E41D3D" d="M132,90.182h-8.309V11.415H132V90.182z"/>
</g>
</svg>
