<?xml version="1.0" encoding="utf-8"?>
<!-- Generator: Adobe Illustrator 26.4.1, SVG Export Plug-In . SVG Version: 6.00 Build 0)  -->
<svg version="1.1" xmlns="http://www.w3.org/2000/svg" xmlns:xlink="http://www.w3.org/1999/xlink" x="0px" y="0px"
	 viewBox="0 0 128.8 77" style="enable-background:new 0 0 128.8 77;" xml:space="preserve">
<style type="text/css">
	.st0{display:none;}
	.st1{display:inline;}
	.st2{fill:#1B1B1B;}
	.st3{fill:#FFFFFF;}
	.st4{display:inline;fill:#FFFFFF;}
	.st5{display:inline;fill:#E41D3D;}
	.st6{fill:#E41D3D;}
</style>
<g id="Layer_3" class="st0">
	<g id="Layer_2_00000148656562992282684980000017986159365060371340_" class="st1">
		<rect x="-16.8" y="-30.5" class="st2" width="160.2" height="144"/>
	</g>
</g>
<g id="Layer_1" class="st0">
	<path class="st3" d="M21.5,65.3c-0.3-1.3-0.5-2.6-0.6-3.9c-1.8,2.9-5,4.7-8.8,4.7C7,66,1.8,62.1,1.8,53.6c0-8.2,3.3-12.3,10.5-15.9
		c5.6-2.8,8.1-4.6,8.1-10.2c0-3.3-1-6.1-4.2-6.1c-3.1,0-4.6,2.3-4.6,6.8v2.9H3.3v-2.9C3.3,19.5,8,14,16.4,14
		c10.4,0,12.4,7.2,12.4,16.2v17.1c0,11.3,0.1,14.4,0.9,18L21.5,65.3L21.5,65.3z M20.3,39.9c-0.9,1.2-2.1,2.2-4.2,3.4
		c-3.9,2.4-5.8,4.5-5.8,9.2c0,4.4,2,6.1,4.6,6.1c3.1,0,5.4-2.4,5.4-7.6C20.3,50.9,20.3,39.9,20.3,39.9z"/>
	<path class="st4" d="M21.5,65.3c-0.3-1.3-0.5-2.6-0.6-3.9c-1.8,2.9-5,4.7-8.8,4.7C7,66,1.8,62.1,1.8,53.6c0-8.2,3.3-12.3,10.5-15.9
		c5.6-2.8,8.1-4.6,8.1-10.2c0-3.3-1-6.1-4.2-6.1c-3.1,0-4.6,2.3-4.6,6.8v2.9H3.3v-2.9C3.3,19.5,8,14,16.4,14
		c10.4,0,12.4,7.2,12.4,16.2v17.1c0,11.3,0.1,14.4,0.9,18L21.5,65.3L21.5,65.3z M20.3,39.9c-0.9,1.2-2.1,2.2-4.2,3.4
		c-3.9,2.4-5.8,4.5-5.8,9.2c0,4.4,2,6.1,4.6,6.1c3.1,0,5.4-2.4,5.4-7.6C20.3,50.9,20.3,39.9,20.3,39.9z"/>
	<path class="st4" d="M47.4,66c-8.4,0-13.5-5-13.5-13.7V49h8.3v2.8c0,4.5,2.1,6.8,5.2,6.8c3,0,5.3-2,5.3-6c0-2.7-0.6-4.2-3.2-6.3
		l-7.7-6.2c-4.4-3.5-7-6.5-7-12.7C34.8,19,39.2,14,47.4,14s12.8,5,12.8,13.7v3.4h-8.3v-2.9c0-4.2-1.5-6.8-4.5-6.8
		c-2.9,0-4.4,2.3-4.4,6c0,2.7,0.6,4,3.2,6.1l7.7,6.2c4.4,3.5,7,6.7,7,12.9C60.9,61,55.6,66,47.4,66z"/>
	<path class="st4" d="M67.9,65.3V14.8h8.3v50.5H67.9z"/>
	<path class="st4" d="M115.1,14c-3.8,0.2-6.5,1.9-8,4.8c-1.6-3.2-4.1-4.8-8.8-4.8c-2.8,0-6.1,1.7-7,3.9v-3.1h-8v50.5h8.3V28.2
		c0-4.5,1.7-6.7,4.6-6.7c3,0,4.6,2.2,4.6,6.7v37.1h8.3V28.2c0-4.5,1.7-6.7,4.6-6.7c0.5,0,0.9,0.1,1.3,0.2L115.1,14L115.1,14z"/>
	<path class="st5" d="M128.2,76.2h-8.3V-2.6h8.3V76.2z"/>
	<path class="st4" d="M11.6,31.1v2.1c0,0-6.1,2.1-8.3,5.7l0-7.8H11.6z"/>
	<path class="st4" d="M51.9,31.1v1.1c0,0,7.6,4.4,8.3,6.8l0-7.9H51.9z"/>
	<path class="st4" d="M42.2,49.2v-1.1c0,0-7.6-5.8-8.3-8.1l0,9.2H42.2z"/>
</g>
<g id="Layer_2">
	<path class="st3" d="M67.9,65.3V14.8h8.3v50.5H67.9z"/>
	<path class="st3" d="M115.1,14c-3.8,0.2-6.5,1.9-8,4.8c-1.6-3.2-4.1-4.8-8.8-4.8c-2.8,0-6.1,1.7-7,3.9v-3.1h-8v50.5h8.3V28.2
		c0-4.5,1.7-6.7,4.6-6.7c3,0,4.6,2.2,4.6,6.7v37.1h8.3V28.2c0-4.5,1.7-6.7,4.6-6.7c0.5,0,0.9,0.1,1.3,0.2L115.1,14L115.1,14z"/>
	<path class="st6" d="M128.2,76.2h-8.3V0.8h8.3V76.2z"/>
	<path class="st3" d="M2.2,36.9c2.3-3.6,8.3-5.7,8.3-5.7v-3.1c0-4.5,1.5-6.8,4.6-6.8c3.2,0,4.2,2.7,4.2,6.1c0,5.6-2.5,7.4-8.1,10.2
		C4.1,41.3,0.8,45.4,0.8,53.6C0.8,62.1,6,66,11.1,66c3.8,0,7.1-1.8,8.8-4.7c0.1,1.3,0.3,2.6,0.6,3.9l8.1,0c-0.8-3.6-0.9-6.8-0.9-18
		V30.2c0-9-2-16.2-12.4-16.2C7,14,2.3,19.5,2.3,28.2L2.2,36.9z M19.3,50.9c0,5.2-2.3,7.6-5.4,7.6c-2.6,0-4.6-1.7-4.6-6.1
		c0-4.7,1.9-6.9,5.8-9.2c2.2-1.3,3.3-2.3,4.2-3.4V50.9z"/>
	<path class="st3" d="M60.3,27.7C60.3,19,55.6,14,47.4,14s-12.6,5-12.6,13.4c0,6.3,2.5,9.2,7,12.7l7.7,6.2c2.6,2.1,3.2,3.5,3.2,6.3
		c0,4-2.3,6-5.3,6c-3.1,0-5.2-2.3-5.2-6.8l0-3.1c0,0-7.6-5.8-8.3-8.1v11.7C33.9,61,39,66,47.4,66c8.2,0,13.5-5,13.5-13.4
		c0-6.3-2.5-9.4-7-12.9l-7.7-6.2c-2.6-2.1-3.2-3.3-3.2-6.1c0-3.7,1.5-6,4.4-6c3,0,4.5,2.5,4.5,6.8l0,2.1c0,0,7.6,4.4,8.3,6.8
		L60.3,27.7z"/>
	<g>
		<g class="st0">
			<path class="st4" d="M2.9,74.2l-0.6,2H1l2.2-6.9h1.6l2.2,6.9H5.7l-0.6-2H2.9z M4.9,73.3l-0.5-1.7c-0.1-0.4-0.2-0.9-0.4-1.3h0
				c-0.1,0.4-0.2,0.9-0.3,1.3l-0.5,1.7H4.9z"/>
			<path class="st4" d="M9.1,76.2v-6.9h1.4l1.8,3c0.5,0.8,0.9,1.6,1.2,2.3l0,0c-0.1-0.9-0.1-1.8-0.1-2.9v-2.4h1.2v6.9h-1.3l-1.8-3
				c-0.4-0.8-0.9-1.6-1.2-2.4l0,0c0.1,0.9,0.1,1.8,0.1,2.9v2.5H9.1z"/>
			<path class="st4" d="M18.4,70.3h-2v-1.1h5.2v1.1h-2v5.9h-1.3V70.3z"/>
			<path class="st4" d="M29.6,72.7c0,2.3-1.4,3.6-3.3,3.6c-2,0-3.2-1.5-3.2-3.5c0-2.1,1.3-3.6,3.3-3.6
				C28.4,69.1,29.6,70.7,29.6,72.7z M24.4,72.7c0,1.4,0.7,2.5,1.9,2.5c1.2,0,1.9-1.1,1.9-2.6c0-1.3-0.6-2.5-1.9-2.5
				C25.1,70.2,24.4,71.3,24.4,72.7z"/>
			<path class="st4" d="M31.7,76.2v-6.9h1.4l1.8,3c0.5,0.8,0.9,1.6,1.2,2.3l0,0C36,73.6,36,72.7,36,71.7v-2.4h1.2v6.9h-1.3l-1.8-3
				c-0.4-0.8-0.9-1.6-1.2-2.4l0,0c0.1,0.9,0.1,1.8,0.1,2.9v2.5H31.7z"/>
			<path class="st4" d="M39.6,74.8c0.4,0.2,1,0.4,1.7,0.4c0.8,0,1.3-0.4,1.3-0.9c0-0.5-0.4-0.8-1.2-1.1c-1.1-0.4-1.9-1-1.9-2
				c0-1.1,0.9-2,2.4-2c0.8,0,1.3,0.2,1.7,0.3l-0.3,1c-0.3-0.1-0.7-0.3-1.4-0.3c-0.8,0-1.1,0.4-1.1,0.8c0,0.5,0.4,0.8,1.3,1.1
				c1.2,0.5,1.8,1.1,1.8,2.1c0,1.1-0.8,2.1-2.6,2.1c-0.7,0-1.5-0.2-1.9-0.4L39.6,74.8z"/>
			<path class="st4" d="M47.3,69.3v6.9H46v-6.9H47.3z"/>
			<path class="st4" d="M55.6,73.4c0-0.9-0.1-2-0.1-2.9h0c-0.2,0.8-0.5,1.8-0.8,2.7l-1,3h-1l-0.9-3c-0.3-0.9-0.5-1.8-0.7-2.7h0
				c0,0.9-0.1,2-0.1,3l-0.2,2.8h-1.2l0.5-6.9h1.7l0.9,2.8c0.2,0.8,0.5,1.6,0.6,2.4h0c0.2-0.8,0.4-1.6,0.7-2.4l1-2.8h1.6l0.4,6.9
				h-1.2L55.6,73.4z"/>
			<path class="st4" d="M60.7,74.2l-0.6,2h-1.3l2.2-6.9h1.6l2.2,6.9h-1.4l-0.6-2H60.7z M62.6,73.3l-0.5-1.7
				c-0.1-0.4-0.2-0.9-0.4-1.3h0c-0.1,0.4-0.2,0.9-0.3,1.3l-0.5,1.7H62.6z"/>
			<path class="st4" d="M66.8,76.2v-6.9h1.4l1.8,3c0.5,0.8,0.9,1.6,1.2,2.3l0,0c-0.1-0.9-0.1-1.8-0.1-2.9v-2.4h1.2v6.9H71l-1.8-3
				c-0.4-0.8-0.9-1.6-1.2-2.4l0,0c0.1,0.9,0.1,1.8,0.1,2.9v2.5H66.8z"/>
			<path class="st4" d="M80.9,72.7c0,2.3-1.4,3.6-3.3,3.6c-2,0-3.2-1.5-3.2-3.5c0-2.1,1.3-3.6,3.3-3.6
				C79.7,69.1,80.9,70.7,80.9,72.7z M75.8,72.7c0,1.4,0.7,2.5,1.9,2.5c1.2,0,1.9-1.1,1.9-2.6c0-1.3-0.6-2.5-1.9-2.5
				C76.4,70.2,75.8,71.3,75.8,72.7z"/>
			<path class="st4" d="M84.6,76.2l-2.2-6.9h1.4l0.9,3.1c0.3,0.9,0.5,1.7,0.7,2.5h0c0.2-0.8,0.4-1.7,0.7-2.5l1-3.2h1.3l-2.4,6.9
				H84.6z"/>
			<path class="st4" d="M90,75.5c0-0.5,0.3-0.8,0.8-0.8c0.5,0,0.8,0.3,0.8,0.8c0,0.5-0.3,0.8-0.8,0.8C90.4,76.3,90,75.9,90,75.5z"/>
			<path class="st4" d="M98.7,76c-0.3,0.1-1,0.3-1.8,0.3c-2.2,0-3.5-1.4-3.5-3.5c0-2.3,1.6-3.7,3.7-3.7c0.8,0,1.4,0.2,1.7,0.3
				l-0.3,1c-0.3-0.1-0.8-0.3-1.3-0.3c-1.4,0-2.4,0.9-2.4,2.5c0,1.5,0.9,2.5,2.4,2.5c0.5,0,1-0.1,1.4-0.2L98.7,76z"/>
			<path class="st4" d="M106.9,72.7c0,2.3-1.4,3.6-3.3,3.6c-2,0-3.2-1.5-3.2-3.5c0-2.1,1.3-3.6,3.3-3.6
				C105.7,69.1,106.9,70.7,106.9,72.7z M101.7,72.7c0,1.4,0.7,2.5,1.9,2.5c1.2,0,1.9-1.1,1.9-2.6c0-1.3-0.6-2.5-1.9-2.5
				C102.4,70.2,101.7,71.3,101.7,72.7z"/>
			<path class="st4" d="M114.8,73.4c0-0.9-0.1-2-0.1-2.9h0c-0.2,0.8-0.5,1.8-0.8,2.7l-1,3h-1l-0.9-3c-0.3-0.9-0.5-1.8-0.7-2.7h0
				c0,0.9-0.1,2-0.1,3l-0.2,2.8h-1.2l0.5-6.9h1.7l0.9,2.8c0.2,0.8,0.5,1.6,0.6,2.4h0c0.2-0.8,0.4-1.6,0.7-2.4l1-2.8h1.6l0.4,6.9H115
				L114.8,73.4z"/>
		</g>
	</g>
</g>
</svg>
