<?xml version="1.0" encoding="utf-8"?>
<!-- Generator: Adobe Illustrator 26.4.1, SVG Export Plug-In . SVG Version: 6.00 Build 0)  -->
<svg version="1.1" id="Layer_1" xmlns="http://www.w3.org/2000/svg" xmlns:xlink="http://www.w3.org/1999/xlink" x="0px" y="0px"
	 viewBox="0 0 135 100" style="enable-background:new 0 0 135 100;" xml:space="preserve">
<style type="text/css">
	.st0{fill:#FFFFFF;}
	.st1{fill:#E41D3D;}
	.st2{display:none;}
	.st3{display:inline;fill:#FFFFFF;}
</style>
<g id="Layer_2_00000123437084927205254600000006605020348567202176_">
	<path class="st0" d="M71.7,79.3V28.8H80v50.5H71.7z"/>
	<path class="st0" d="M118.9,28c-3.8,0.2-6.5,1.9-8,4.8c-1.6-3.2-4.1-4.8-8.8-4.8c-2.8,0-6.1,1.7-7,3.9v-3.1h-8v50.5h8.3V42.2
		c0-4.5,1.7-6.7,4.6-6.7c3,0,4.6,2.2,4.6,6.7v37.1h8.3V42.2c0-4.5,1.7-6.7,4.6-6.7c0.5,0,0.9,0.1,1.3,0.2L118.9,28L118.9,28z"/>
	<path class="st1" d="M132,90.2h-8.3V11.4h8.3V90.2z"/>
	<path class="st0" d="M6.1,50.9c2.3-3.6,8.3-5.7,8.3-5.7v-3.1c0-4.5,1.5-6.8,4.6-6.8c3.2,0,4.2,2.7,4.2,6.1c0,5.6-2.5,7.4-8.1,10.2
		c-7.2,3.7-10.5,7.8-10.5,16C4.6,76.1,9.8,80,14.9,80c3.8,0,7.1-1.8,8.8-4.7c0.1,1.3,0.3,2.6,0.6,3.9h8.1c-0.8-3.6-0.9-6.8-0.9-18
		v-17c0-9-2-16.2-12.4-16.2C10.7,28,6,33.5,6,42.2L6.1,50.9z M23.1,64.9c0,5.2-2.3,7.6-5.4,7.6c-2.6,0-4.6-1.7-4.6-6.1
		c0-4.7,1.9-6.9,5.8-9.2c2.2-1.3,3.3-2.3,4.2-3.4C23.1,53.8,23.1,64.9,23.1,64.9z"/>
	<path class="st0" d="M64.1,41.7C64.1,33,59.5,28,51.2,28s-12.6,5-12.6,13.4c0,6.3,2.5,9.2,7,12.7l7.7,6.2c2.6,2.1,3.2,3.5,3.2,6.3
		c0,4-2.3,6-5.3,6c-3.1,0-5.2-2.3-5.2-6.8v-3.1c0,0-7.6-5.8-8.3-8.1v11.7C37.7,75,42.8,80,51.2,80c8.2,0,13.5-5,13.5-13.4
		c0-6.3-2.5-9.4-7-12.9L50,47.5c-2.6-2.1-3.2-3.3-3.2-6.1c0-3.7,1.5-6,4.4-6c3,0,4.5,2.5,4.5,6.8v2.1c0,0,7.6,4.4,8.3,6.8L64.1,41.7
		z"/>
	<g>
		<g class="st2">
			<path class="st3" d="M6.7,88.2l-0.6,2H4.8L7,83.3h1.6l2.2,6.9H9.6l-0.6-2H6.7z M8.7,87.3l-0.5-1.7c-0.1-0.4-0.2-0.9-0.4-1.3l0,0
				c-0.1,0.4-0.2,0.9-0.3,1.3L7,87.3H8.7z"/>
			<path class="st3" d="M12.9,90.2v-6.9h1.4l1.8,3c0.5,0.8,0.9,1.6,1.2,2.3l0,0c-0.1-0.9-0.1-1.8-0.1-2.9v-2.4h1.2v6.9h-1.3l-1.8-3
				c-0.4-0.8-0.9-1.6-1.2-2.4l0,0c0.1,0.9,0.1,1.8,0.1,2.9v2.5H12.9z"/>
			<path class="st3" d="M22.2,84.3h-2v-1.1h5.2v1.1h-2v5.9h-1.3L22.2,84.3L22.2,84.3z"/>
			<path class="st3" d="M33.4,86.7c0,2.3-1.4,3.6-3.3,3.6c-2,0-3.2-1.5-3.2-3.5c0-2.1,1.3-3.6,3.3-3.6
				C32.2,83.1,33.4,84.7,33.4,86.7z M28.3,86.7c0,1.4,0.7,2.5,1.9,2.5c1.2,0,1.9-1.1,1.9-2.6c0-1.3-0.6-2.5-1.9-2.5
				C28.9,84.2,28.3,85.3,28.3,86.7z"/>
			<path class="st3" d="M35.5,90.2v-6.9H37l1.8,3c0.5,0.8,0.9,1.6,1.2,2.3l0,0c-0.1-0.9-0.1-1.8-0.1-2.9v-2.4H41v6.9h-1.3l-1.8-3
				c-0.4-0.8-0.9-1.6-1.2-2.4l0,0c0.1,0.9,0.1,1.8,0.1,2.9v2.5H35.5z"/>
			<path class="st3" d="M43.5,88.8c0.4,0.2,1,0.4,1.7,0.4c0.8,0,1.3-0.4,1.3-0.9s-0.4-0.8-1.2-1.1c-1.1-0.4-1.9-1-1.9-2
				c0-1.1,0.9-2,2.4-2c0.8,0,1.3,0.2,1.7,0.3l-0.3,1c-0.3-0.1-0.7-0.3-1.4-0.3c-0.8,0-1.1,0.4-1.1,0.8c0,0.5,0.4,0.8,1.3,1.1
				c1.2,0.5,1.8,1.1,1.8,2.1c0,1.1-0.8,2.1-2.6,2.1c-0.7,0-1.5-0.2-1.9-0.4L43.5,88.8z"/>
			<path class="st3" d="M51.1,83.3v6.9h-1.3v-6.9H51.1z"/>
			<path class="st3" d="M59.4,87.4c0-0.9-0.1-2-0.1-2.9l0,0c-0.2,0.8-0.5,1.8-0.8,2.7l-1,3h-1l-0.9-3c-0.3-0.9-0.5-1.8-0.7-2.7l0,0
				c0,0.9-0.1,2-0.1,3l-0.2,2.8h-1.2l0.5-6.9h1.7l0.9,2.8c0.2,0.8,0.5,1.6,0.6,2.4l0,0c0.2-0.8,0.4-1.6,0.7-2.4l1-2.8h1.6l0.4,6.9
				h-1.2L59.4,87.4z"/>
			<path class="st3" d="M64.5,88.2l-0.6,2h-1.3l2.2-6.9h1.6l2.2,6.9h-1.4l-0.6-2H64.5z M66.5,87.3L66,85.6c-0.1-0.4-0.2-0.9-0.4-1.3
				l0,0c-0.1,0.4-0.2,0.9-0.3,1.3l-0.5,1.7H66.5z"/>
			<path class="st3" d="M70.7,90.2v-6.9h1.4l1.8,3c0.5,0.8,0.9,1.6,1.2,2.3l0,0c-0.1-1-0.1-1.9-0.1-2.9v-2.4h1.2v6.9h-1.3l-1.8-3
				c-0.4-0.8-0.9-1.6-1.2-2.4l0,0c0.1,0.9,0.1,1.8,0.1,2.9v2.5H70.7z"/>
			<path class="st3" d="M84.8,86.7c0,2.3-1.4,3.6-3.3,3.6c-2,0-3.2-1.5-3.2-3.5c0-2.1,1.3-3.6,3.3-3.6
				C83.6,83.1,84.8,84.7,84.8,86.7z M79.6,86.7c0,1.4,0.7,2.5,1.9,2.5c1.2,0,1.9-1.1,1.9-2.6c0-1.3-0.6-2.5-1.9-2.5
				C80.3,84.2,79.6,85.3,79.6,86.7z"/>
			<path class="st3" d="M88.5,90.2l-2.2-6.9h1.4l0.9,3.1c0.3,0.9,0.5,1.7,0.7,2.5l0,0c0.2-0.8,0.4-1.7,0.7-2.5l1-3.2h1.3l-2.4,6.9
				L88.5,90.2L88.5,90.2z"/>
			<path class="st3" d="M93.9,89.5c0-0.5,0.3-0.8,0.8-0.8s0.8,0.3,0.8,0.8s-0.3,0.8-0.8,0.8C94.2,90.3,93.9,89.9,93.9,89.5z"/>
			<path class="st3" d="M102.5,90c-0.3,0.1-1,0.3-1.8,0.3c-2.2,0-3.5-1.4-3.5-3.5c0-2.3,1.6-3.7,3.7-3.7c0.8,0,1.4,0.2,1.7,0.3
				l-0.3,1c-0.3-0.1-0.8-0.3-1.3-0.3c-1.4,0-2.4,0.9-2.4,2.5c0,1.5,0.9,2.5,2.4,2.5c0.5,0,1-0.1,1.4-0.2L102.5,90z"/>
			<path class="st3" d="M110.7,86.7c0,2.3-1.4,3.6-3.3,3.6c-2,0-3.2-1.5-3.2-3.5c0-2.1,1.3-3.6,3.3-3.6
				C109.5,83.1,110.7,84.7,110.7,86.7z M105.6,86.7c0,1.4,0.7,2.5,1.9,2.5c1.2,0,1.9-1.1,1.9-2.6c0-1.3-0.6-2.5-1.9-2.5
				C106.2,84.2,105.6,85.3,105.6,86.7z"/>
			<path class="st3" d="M118.7,87.4c0-0.9-0.1-2-0.1-2.9l0,0c-0.2,0.8-0.5,1.8-0.8,2.7l-1,3h-1l-0.9-3c-0.3-0.9-0.5-1.8-0.7-2.7l0,0
				c0,0.9-0.1,2-0.1,3l-0.2,2.8h-1.2l0.5-6.9h1.7l0.9,2.8c0.2,0.8,0.5,1.6,0.6,2.4l0,0c0.2-0.8,0.4-1.6,0.7-2.4l1-2.8h1.6l0.4,6.9
				h-1.2L118.7,87.4z"/>
		</g>
	</g>
</g>
</svg>
