<?xml version="1.0" encoding="utf-8"?>
<!-- Generator: Adobe Illustrator 16.0.0, SVG Export Plug-In . SVG Version: 6.00 Build 0)  -->
<!DOCTYPE svg PUBLIC "-//W3C//DTD SVG 1.1//EN" "http://www.w3.org/Graphics/SVG/1.1/DTD/svg11.dtd">
<svg version="1.1" id="Layer_1" xmlns="http://www.w3.org/2000/svg" xmlns:xlink="http://www.w3.org/1999/xlink" x="0px" y="0px"
	 width="200px" height="200px" viewBox="0 0 200 200" enable-background="new 0 0 200 200" xml:space="preserve">
<g id="Layer_3">
	<circle fill="#1B1B1B" cx="100.5" cy="100.5" r="98.5"/>
</g>
<g id="Layer_1_1_">
	<g>
		<path fill="#FFFFFF" d="M114.191,53.466c-7.93,0.409-13.508,3.998-16.57,9.934c-3.26-6.718-8.552-9.974-18.321-9.974
			c-5.9,0-12.62,3.459-14.454,8.142v-6.512H48.16v104.82h17.299V82.938c0-9.364,3.464-13.84,9.563-13.84
			c6.306,0,9.563,4.476,9.563,13.84v76.938h17.299V82.938c0-9.364,3.464-13.84,9.566-13.84c0.993,0,1.896,0.123,2.733,0.347V53.466
			H114.191z"/>
	</g>
	<path fill="#E41D3D" d="M141.34,182.566h-17.25V19.03h17.25V182.566z"/>
</g>
</svg>
