<?xml version="1.0" encoding="utf-8"?>
<!-- Generator: Adobe Illustrator 16.0.0, SVG Export Plug-In . SVG Version: 6.00 Build 0)  -->
<!DOCTYPE svg PUBLIC "-//W3C//DTD SVG 1.1//EN" "http://www.w3.org/Graphics/SVG/1.1/DTD/svg11.dtd">
<svg version="1.1" id="Layer_1" xmlns="http://www.w3.org/2000/svg" xmlns:xlink="http://www.w3.org/1999/xlink" x="0px" y="0px"
	 width="200px" height="100px" viewBox="0 0 200 100" enable-background="new 0 0 200 100" xml:space="preserve">
<path d="M130.276,92.629c0,3.373-2.734,6.106-6.106,6.106H76.214c-3.373,0-6.107-2.733-6.107-6.106V44.675
	c0-3.373,2.734-6.107,6.107-6.107h47.956c3.372,0,6.106,2.734,6.106,6.107V92.629z"/>
<path fill="#FFFFFF" d="M127.223,74.136c0,3.373-2.732,6.104-6.105,6.104H79.694c-3.373,0-6.106-2.731-6.106-6.104V63.656
	c0-3.373,2.733-6.107,6.106-6.107h41.423c3.373,0,6.105,2.734,6.105,6.107V74.136z"/>
<path d="M143.528,77.965c0,1.289-1.046,2.334-2.334,2.334h-6.619c-1.288,0-2.333-1.045-2.333-2.334V59.641
	c0-1.289,1.045-2.334,2.333-2.334h6.619c1.288,0,2.334,1.045,2.334,2.334V77.965z"/>
<path d="M149.822,72.706c0,0.534-0.432,0.965-0.965,0.965h-2.734c-0.533,0-0.965-0.431-0.965-0.965v-7.57
	c0-0.532,0.432-0.964,0.965-0.964h2.734c0.533,0,0.965,0.432,0.965,0.964V72.706z"/>
<path d="M55.094,72.706c0,0.534-0.433,0.965-0.964,0.965h-2.738c-0.531,0-0.964-0.431-0.964-0.965v-7.57
	c0-0.532,0.433-0.964,0.964-0.964h2.738c0.531,0,0.964,0.432,0.964,0.964V72.706z"/>
<path d="M68.231,77.965c0,1.289-1.044,2.334-2.333,2.334h-6.62c-1.289,0-2.333-1.045-2.333-2.334V59.641
	c0-1.289,1.044-2.334,2.333-2.334h6.62c1.289,0,2.333,1.045,2.333,2.334V77.965z"/>
<path display="none" fill="#FFFFFF" d="M127.223,74.136c0,3.373-2.732,6.104-6.105,6.104H79.694c-3.373,0-6.106-2.731-6.106-6.104
	V63.656c0-3.373,2.733-6.107,6.106-6.107h41.423c3.373,0,6.105,2.734,6.105,6.107V74.136z"/>
<rect x="81.33" y="72.225" width="3.094" height="22.693"/>
<rect x="77.258" y="75.278" width="3.096" height="22.691"/>
<rect x="105.756" y="72.225" width="3.092" height="22.693"/>
<rect x="85.4" y="68.662" width="3.096" height="22.689"/>
<rect x="101.684" y="68.662" width="3.095" height="22.689"/>
<rect x="109.826" y="68.662" width="3.094" height="22.689"/>
<rect x="89.473" y="64.592" width="3.094" height="22.691"/>
<rect x="97.614" y="64.592" width="3.092" height="22.691"/>
<rect x="122.039" y="64.592" width="3.093" height="22.691"/>
<rect x="113.896" y="64.592" width="3.094" height="22.691"/>
<rect x="93.542" y="61.537" width="3.094" height="22.693"/>
<rect x="117.967" y="61.537" width="3.094" height="22.693"/>
<path fill="none" stroke="#FFFFFF" stroke-miterlimit="10" d="M127.223,74.136c0,3.373-2.732,6.104-6.105,6.104H79.694
	c-3.373,0-6.106-2.731-6.106-6.104V63.656c0-3.373,2.733-6.107,6.106-6.107h41.423c3.373,0,6.105,2.734,6.105,6.107V74.136z"/>
<rect x="61.21" y="24.555" width="3.094" height="31.275"/>
<polygon points="61.21,25.931 61.21,22.837 89.953,22.837 86.9,25.931 "/>
<polygon points="110.524,25.931 113.578,22.837 139.778,22.837 139.778,25.931 "/>
<rect x="136.441" y="24.555" width="3.097" height="31.275"/>
<polygon points="113.02,1.088 90.865,26.231 104.243,23.58 94.121,37.02 114.556,18.587 101.337,20.434 "/>
</svg>
