<?xml version="1.0" encoding="utf-8"?>
<!-- Generator: Adobe Illustrator 16.0.0, SVG Export Plug-In . SVG Version: 6.00 Build 0)  -->
<!DOCTYPE svg PUBLIC "-//W3C//DTD SVG 1.1//EN" "http://www.w3.org/Graphics/SVG/1.1/DTD/svg11.dtd">
<svg version="1.1" id="Layer_1" xmlns="http://www.w3.org/2000/svg" xmlns:xlink="http://www.w3.org/1999/xlink" x="0px" y="0px"
	 width="200px" height="100px" viewBox="0 0 200 100" enable-background="new 0 0 200 100" xml:space="preserve">
<path d="M45.091,68.14C56.04,80.772,65.18,82.323,72.969,76.017c7.789-6.308,12.115-17.336,18.252-30.547
	c9.327-19.012,15.011-27.919,23.664-34.929c13.414-10.86,32.797-12.589,51.34,12.521l-12.979,10.517
	c-9.855-11.727-18.616-15.025-26.405-8.716c-8.005,6.485-12.854,16.863-19.686,30.994C98.268,74.516,93.622,82.94,84.534,90.3
	c-14.927,12.088-35.548,10.518-52.208-11.82L45.091,68.14z"/>
<path d="M112.879,56.674c-12.599-2.944-39.252-10.102-39.252-10.102s2.567-18.04,18.712-13.883
	c16.145,4.156,40.084,10.318,40.084,10.318S125.477,59.621,112.879,56.674z"/>
<polygon points="153.245,33.578 158.795,40.496 157.074,30.889 162.236,35.19 160.658,27.734 165.104,30.746 163.813,24.866 
	168.115,26.444 166.225,23.061 162.522,20.995 152.484,28.738 "/>
<polygon points="45.537,68.514 40.151,61.468 41.647,71.112 36.587,66.691 37.99,74.183 33.617,71.069 34.77,76.976 30.936,75.3 
	32.315,78.294 35.479,81.648 46.184,73.37 "/>
<polygon points="131.113,45.463 135.375,37.857 127.822,42.072 129.201,38.401 123.104,40.7 123.709,37.877 119.219,39.27 
	119.359,37.506 111.332,40.065 116.777,42.505 128.878,46.282 "/>
<polygon points="73.581,46.327 70.918,54.628 77.481,48.994 76.86,52.867 82.378,49.401 82.347,52.288 86.47,50.032 86.683,51.787 
	94.041,47.682 88.22,46.374 75.61,45.079 "/>
</svg>
