<?xml version="1.0" encoding="utf-8"?>
<!-- Generator: Adobe Illustrator 16.0.0, SVG Export Plug-In . SVG Version: 6.00 Build 0)  -->
<!DOCTYPE svg PUBLIC "-//W3C//DTD SVG 1.1//EN" "http://www.w3.org/Graphics/SVG/1.1/DTD/svg11.dtd">
<svg version="1.1" id="Layer_1" xmlns="http://www.w3.org/2000/svg" xmlns:xlink="http://www.w3.org/1999/xlink" x="0px" y="0px"
	 width="200px" height="100px" viewBox="0 0 200 100" enable-background="new 0 0 200 100" xml:space="preserve">
<path d="M186.963,68.166c-1.238-11.34-8.476-21.222-9.219-22.209c-4.328-6.296-16.801-15.995-31.357-24.124
	C133.732,14.76,108.652,2.899,82.896,2.899c-15.231,0-28.422,4.155-39.204,12.347c-11.776,8.949-20.68,22.768-26.506,41.093h-0.001
	c-0.059,0.158-0.506,1.407-1.073,3.523l-1.454,5.006l0.375-0.363c-0.943,4.718-1.788,11.188-1.566,18.637
	c-1.199,0.549-2.034,1.758-2.034,3.164c0,1.924,1.559,3.486,3.484,3.486c1.925,0,3.483-1.563,3.483-3.486
	c0-1.372-0.794-2.555-1.947-3.121c-0.3-9.816,1.362-18.003,2.512-22.381l0.025,0.012c0.004-0.008,0.051-0.097,0.135-0.251
	c5.966-5.61,12.874-8.743,21.006-9.515c-1.054,2.188-1.917,6.02-1.777,12.711c-1.186,0.557-2.008,1.758-2.008,3.152
	c0,1.924,1.559,3.482,3.483,3.482c1.925,0,3.485-1.559,3.485-3.482c0-1.383-0.808-2.573-1.976-3.137
	c-0.25-11.244,2.464-12.714,2.49-12.73c0,0.004-0.047,0.025-0.153,0.049l-0.052-0.229c0.202-0.002,0.4-0.013,0.603-0.013
	c11.378,0,23.601,4.015,36.47,8.901c0.039,0.096,0.081,0.186,0.12,0.281l0.298-0.122c2.489,0.948,5.002,1.927,7.538,2.915
	c8.23,3.209,16.604,6.472,24.907,8.889v0.002c0.184,0.071,17.414,6.563,20.211,18.903c-1.019,0.608-1.705,1.72-1.705,2.991
	c0,1.924,1.561,3.485,3.486,3.485c1.92,0,3.48-1.562,3.48-3.485c0-1.49-0.938-2.76-2.254-3.258
	c-1.421-7.093-6.766-12.38-11.859-15.928c4.014,0.711,7.987,1.121,11.893,1.121c16.935,0,30.398-7.823,41.092-23.892
	c2.266,3.847,5.311,10.058,6.078,16.681c-1.077,0.592-1.809,1.734-1.809,3.052c0,1.925,1.563,3.484,3.484,3.484
	c1.924,0,3.483-1.56,3.483-3.484C189.14,69.931,188.238,68.682,186.963,68.166z M175.334,47.691l-0.012,0.009
	c0.008,0.011,0.088,0.116,0.221,0.302c0.074,0.115,0.138,0.225,0.203,0.336c-22.16,8.608-45.127,0.179-71.637-9.559
	c-2.931-1.079-5.898-2.168-8.913-3.254c16.629-11.055,32.056-15.51,45.855-13.24C158.457,31.47,171.564,42.156,175.334,47.691z
	 M91.929,34.097l-0.187,0.134c-0.013,0.015-0.027,0.03-0.041,0.044c-0.432-0.153-0.869-0.304-1.303-0.456
	c-0.012-0.005-0.026-0.013-0.034-0.017l-0.002,0.004c-3.828-1.344-7.734-2.669-11.75-3.938c-9.519-3.006-18.857-3.139-27.691-0.479
	c6.539-7.219,22.289-21.471,45.393-22.485c13.129,1.928,26.074,6.407,37.603,11.823c-12.602-0.003-26.248,4.856-40.686,14.517
	C92.699,33.602,92.151,33.97,91.929,34.097z M82.896,5.885c0.104,0,0.209,0.003,0.314,0.004
	c-22.615,5.94-36.014,23.049-37.911,25.604c-4.544,2.039-8.929,4.85-13.102,8.432c-3.947,3.387-7.161,6.976-9.641,10.143
	C33.974,20.742,54.228,5.885,82.896,5.885z M44.226,47.867c-7.627,0-14.319,1.743-20.253,5.282c2.49-3.325,5.894-7.29,10.17-10.958
	c3.958-3.397,8.056-6.055,12.28-7.982c2.985,0.602,22.956,5.188,32.348,21.641C66.947,51.479,55.113,47.867,44.226,47.867z
	 M82.928,57.414c-7.396-16.181-23.559-22.739-31.635-25.081c8.372-2.647,17.206-2.528,26.422,0.383
	c4.535,1.433,8.942,2.939,13.252,4.467c5.793,3.21,24.077,14.649,27.571,32.801c-9.521-2.422-19.262-6.217-28.805-9.937
	C87.474,59.169,85.203,58.284,82.928,57.414z M136.811,72.563c-4.914,0-9.975-0.689-15.113-1.827
	c-2.055-13.435-11.382-23.285-19.338-29.421c0.24,0.089,0.483,0.177,0.723,0.265c25.951,9.538,48.586,17.853,70.842,10.592
	C164.01,66.057,152.117,72.563,136.811,72.563z"/>
</svg>
