<?xml version="1.0" encoding="utf-8"?>
<!-- Generator: Adobe Illustrator 16.0.0, SVG Export Plug-In . SVG Version: 6.00 Build 0)  -->
<!DOCTYPE svg PUBLIC "-//W3C//DTD SVG 1.1//EN" "http://www.w3.org/Graphics/SVG/1.1/DTD/svg11.dtd">
<svg version="1.1" id="Layer_1" xmlns="http://www.w3.org/2000/svg" xmlns:xlink="http://www.w3.org/1999/xlink" x="0px" y="0px"
	 width="200px" height="100px" viewBox="0 0 200 100" enable-background="new 0 0 200 100" xml:space="preserve">
<g>
	<path d="M57.225,57.826h-3.66v-1.24l1.15-1.309c0.229-0.236,0.438-0.498,0.627-0.789c0.188-0.289,0.285-0.66,0.289-1.111
		c0-0.342-0.061-0.578-0.188-0.709c-0.125-0.123-0.311-0.184-0.557-0.184c-0.344,0.004-0.637,0.043-0.883,0.111
		c-0.258,0.07-0.389,0.109-0.395,0.113V51.51c0-0.004,0.137-0.051,0.412-0.135c0.139-0.041,0.305-0.074,0.494-0.104
		c0.193-0.02,0.408-0.029,0.645-0.029c1.436-0.021,2.158,0.643,2.164,2.002c-0.012,0.654-0.16,1.203-0.447,1.645
		c-0.295,0.443-0.588,0.807-0.889,1.09l-0.572,0.6h1.934L57.225,57.826z"/>
	<path d="M62.182,54.578c0,0.713-0.051,1.287-0.156,1.725c-0.102,0.441-0.25,0.779-0.445,1.01c-0.193,0.236-0.42,0.396-0.674,0.477
		c-0.273,0.086-0.563,0.127-0.873,0.127c-0.309,0-0.592-0.045-0.848-0.135c-0.266-0.1-0.494-0.268-0.688-0.504
		c-0.189-0.242-0.336-0.58-0.438-1.018c-0.117-0.432-0.174-0.992-0.174-1.68c0-0.709,0.057-1.285,0.174-1.725
		c0.107-0.439,0.258-0.773,0.455-1.01c0.197-0.242,0.424-0.406,0.678-0.488c0.258-0.076,0.537-0.115,0.84-0.115
		c0.305,0,0.586,0.039,0.85,0.115c0.256,0.082,0.482,0.246,0.68,0.488c0.191,0.236,0.344,0.57,0.455,1.01
		C62.127,53.293,62.182,53.867,62.182,54.578z M60.48,54.578c0.008-0.76-0.004-1.32-0.029-1.684
		c-0.037-0.359-0.178-0.539-0.416-0.539c-0.221,0-0.352,0.184-0.389,0.549c-0.045,0.367-0.064,0.924-0.059,1.674
		c-0.006,0.795,0.018,1.367,0.068,1.713c0.055,0.354,0.182,0.527,0.379,0.52c0.209,0.008,0.34-0.158,0.387-0.5
		C60.467,55.973,60.488,55.395,60.48,54.578z"/>
</g>
<g>
	<path d="M138.211,54.578c0,0.713-0.051,1.287-0.156,1.725c-0.102,0.441-0.25,0.779-0.445,1.01c-0.193,0.236-0.42,0.396-0.676,0.477
		c-0.271,0.086-0.563,0.127-0.871,0.127s-0.59-0.045-0.848-0.135c-0.266-0.1-0.494-0.268-0.688-0.504
		c-0.191-0.242-0.338-0.58-0.439-1.018c-0.113-0.432-0.172-0.992-0.172-1.68c0-0.709,0.059-1.285,0.172-1.725
		c0.107-0.439,0.26-0.773,0.457-1.01c0.195-0.242,0.424-0.406,0.68-0.488c0.256-0.076,0.535-0.115,0.838-0.115
		c0.305,0,0.588,0.039,0.85,0.115c0.256,0.082,0.48,0.246,0.678,0.488c0.193,0.236,0.346,0.57,0.455,1.01
		C138.158,53.293,138.211,53.867,138.211,54.578z M136.512,54.578c0.004-0.76-0.006-1.32-0.029-1.684
		c-0.041-0.359-0.18-0.539-0.42-0.539c-0.219,0-0.35,0.184-0.389,0.549c-0.045,0.367-0.063,0.924-0.057,1.674
		c-0.006,0.795,0.018,1.367,0.066,1.713c0.057,0.354,0.182,0.527,0.379,0.52c0.211,0.008,0.34-0.158,0.391-0.5
		C136.496,55.973,136.516,55.395,136.512,54.578z"/>
	<path d="M142.822,56.631h-0.352v1.195h-1.701v-1.195h-2.162v-1.277l0.42-4.014h1.852l-0.721,3.996h0.611l0.461-2.049h1.24v2.049
		h0.471L142.822,56.631z"/>
</g>
<polygon points="133.09,26.988 126.432,20.332 136.529,10.238 125.232,10.775 117.043,18.967 119.109,26.896 74.859,71.146 
	66.93,69.08 58.738,77.27 58.199,88.564 68.297,78.469 74.951,85.125 64.855,95.221 75.992,94.523 84.182,86.332 82.09,77.949 
	81.924,77.785 125.746,33.961 125.912,34.127 134.293,36.219 142.484,28.029 143.182,16.893 "/>
<g>
	<rect x="60.302" y="25.887" transform="matrix(0.7071 -0.7071 0.7071 0.7071 2.049 61.5947)" width="30.139" height="4.874"/>
	<rect x="55.623" y="21.21" transform="matrix(0.7071 -0.7071 0.7071 0.7071 3.9845 56.9123)" width="30.138" height="4.872"/>
	<rect x="50.942" y="16.53" transform="matrix(0.7071 -0.7071 0.7071 0.7071 5.922 52.2295)" width="30.139" height="4.872"/>
	<path d="M128.859,63.359l-3.012,3.008c-1.506,0.045-3.008,0.361-4.42,0.957L94.133,39.637l6.93-6.932L89.277,20.92L67.967,42.232
		l11.785,11.783l7.531-7.531l27.402,27.799c-0.502,1.307-0.77,2.68-0.814,4.059l-3.146,3.148l13.258,13.262l3.748-3.746
		c2.648-0.322,5.221-1.49,7.256-3.525c2.033-2.035,3.197-4.602,3.521-7.254l3.611-3.611L128.859,63.359z M87.639,40.137
		c-1.408,1.41-3.695,1.41-5.104,0c-1.41-1.408-1.41-3.695-0.002-5.104c1.41-1.41,3.697-1.41,5.105,0
		C89.049,36.443,89.049,38.727,87.639,40.137z M131.697,84.197c-3.018,3.016-7.916,3.016-10.932,0
		c-2.508-2.508-2.928-6.309-1.27-9.256l2.949-2.949c2.945-1.656,6.746-1.238,9.252,1.268
		C134.717,76.279,134.717,81.176,131.697,84.197z"/>
</g>
</svg>
