<?xml version="1.0" encoding="utf-8"?>
<!-- Generator: Adobe Illustrator 16.0.0, SVG Export Plug-In . SVG Version: 6.00 Build 0)  -->
<!DOCTYPE svg PUBLIC "-//W3C//DTD SVG 1.1//EN" "http://www.w3.org/Graphics/SVG/1.1/DTD/svg11.dtd">
<svg version="1.1" id="Layer_1" xmlns="http://www.w3.org/2000/svg" xmlns:xlink="http://www.w3.org/1999/xlink" x="0px" y="0px"
	 width="200px" height="100px" viewBox="0 0 200 100" enable-background="new 0 0 200 100" xml:space="preserve">
<path d="M120.936,54.36c-0.293-0.637-0.609-1.26-0.943-1.873c-0.683-2.319-1.781-8.778,5.366-12.926
	c5.785-1.976,9.878-7.359,10.106-13.592l-5.969,0.488c0.008-0.4-0.004-0.802-0.037-1.208c-0.535-6.545-6.271-11.416-12.816-10.881
	c-1.723,0.141-3.328,0.646-4.751,1.427c-0.778-0.768-1.871-1.207-3.046-1.11c-2.139,0.174-3.732,2.05-3.557,4.189
	c0.086,1.07,0.6,2.004,1.359,2.647c-2.955,3.283-10.261,9.981-24.999,16.396c-1.049,0.376-2.069,0.805-3.061,1.284
	c-0.65,0.262-1.311,0.524-1.987,0.785l0.304,0.093c-10.428,5.845-17.061,17.394-16.023,30.088c0.08,0.974,0.204,1.931,0.369,2.874
	h-2.958c-0.197,0.648-0.283,1.344-0.224,2.063c0.232,2.833,2.553,4.99,5.325,5.091c1.41,3.237,3.342,6.179,5.683,8.726
	c-0.047,0.373-0.073,0.754-0.073,1.141c0,4.959,4.018,8.978,8.975,8.978c1.758,0,3.397-0.508,4.781-1.382
	c3.801,1.21,7.896,1.715,12.117,1.37c2.792-0.228,5.469-0.815,7.991-1.71c1.482,1.082,3.307,1.722,5.283,1.722
	c4.957,0,8.974-4.019,8.974-8.978c0-0.885-0.13-1.74-0.369-2.547c3.034-3.725,5.223-8.143,6.308-12.943
	c-0.053-2.397-0.297-8.391-1.423-12.617c0,0,2.514,4.696,3.938,10.594c1.821-0.825,3.605-1.953,5.277-3.259
	c-0.973,0.128-1.946,0.194-2.912,0.205c1.738-0.454,3.417-1.087,4.94-1.923c1.118-1.023,2.165-2.113,3.112-3.223
	c-2.109,0.678-4.261,0.951-6.373,0.977c2.237-0.586,4.381-1.461,6.214-2.695c0.229-0.119,0.455-0.243,0.677-0.373
	c0.746-0.436,1.45-0.936,2.087-1.498c0.063-0.059,0.124-0.117,0.185-0.176c0.047-0.074,0.096-0.148,0.141-0.222
	C133.707,62.024,126.308,58.685,120.936,54.36z M123.334,21.268c1.294-0.107,2.43,0.858,2.535,2.151
	c0.105,1.295-0.857,2.431-2.152,2.537c-1.295,0.105-2.43-0.858-2.535-2.154C121.077,22.509,122.039,21.374,123.334,21.268z
	 M85.582,62.388c-3.525,6.178-5.375,10.206-3.347,16.477c-9.482-5.783-13.394-17.713-7.853-27.424l2.119-2.5
	c-4.117,5.265-4.859,12.089-2.555,17.882c-0.024-0.298-0.042-0.596-0.051-0.894c0.244-2.356,0.944-4.563,1.871-6.608
	c-0.417,2.272-0.532,4.585-0.191,6.77c0.01,0.258,0.027,0.515,0.051,0.771c0.079,0.859,0.233,1.709,0.474,2.525
	c0.121,0.407,0.264,0.809,0.43,1.191c0.083,0.191,0.172,0.378,0.267,0.559c0.047,0.091,0.097,0.178,0.147,0.263l0.075,0.122
	l0.062,0.093l-0.187,0.14c0.145,0.172,0.289,0.342,0.441,0.508c-0.059-0.265-0.111-0.531-0.155-0.798
	c-0.017-0.099-0.032-0.194-0.047-0.292c-0.013-0.088-0.026-0.176-0.037-0.265c-0.026-0.2-0.05-0.401-0.069-0.604
	c-0.033-0.36-0.054-0.723-0.064-1.086c0.244-2.355,0.943-4.563,1.871-6.607c-0.417,2.273-0.533,4.584-0.192,6.769
	c0.011,0.258,0.027,0.516,0.051,0.771c0.08,0.86,0.234,1.71,0.474,2.525c0.058,0.196,0.122,0.392,0.19,0.581
	c1.226-6.225,2.403-8.544,6.101-13.275c2.645-3.38,6.104-5.738,9.881-7.032C91.386,55.029,87.959,58.222,85.582,62.388z"/>
<path d="M131.542,25.081c0.917-0.573,3.2-1.261,4.2,1.549c1.826,5.132,6.756,1.117,6.756,1.117
	c-5.811,7.874-10.857-0.363-12.721-2.324"/>
<path fill="#FFFFFF" d="M131.52,24.543c-1-0.417-3.363-0.186-3.894,2.75c-0.97,5.359-6.485,2.198-6.485,2.198
	c7.012,6.827,10.652-2.66,12.176-4.896"/>
<path d="M131.524,12.077c-0.18,1.52-5.481,2.144-11.842,1.396c-6.362-0.75-11.374-2.588-11.196-4.107
	c0.18-1.517,5.32-0.769,11.682-0.02C126.529,10.094,131.703,10.559,131.524,12.077z"/>
<path d="M128.338,6.093c0.258-2.18-2.258-4.269-5.615-4.663l-3.545-0.418c-3.359-0.395-6.289,1.052-6.546,3.233l0,0
	c-0.257,2.18-0.985,6.426,4.303,7.047l5.584,0.656C127.803,12.571,128.084,8.272,128.338,6.093L128.338,6.093z"/>
<polygon fill="#FFFFFF" points="115.678,48.349 107.719,52.58 107.719,41.087 115.678,45.317 "/>
<polygon points="119.203,48.349 124.483,50.837 124.483,42.83 119.203,45.317 "/>
<circle fill="#FFFFFF" cx="117.327" cy="46.542" r="2.427"/>
</svg>
