<?xml version="1.0" encoding="utf-8"?>
<!-- Generator: Adobe Illustrator 16.0.0, SVG Export Plug-In . SVG Version: 6.00 Build 0)  -->
<!DOCTYPE svg PUBLIC "-//W3C//DTD SVG 1.1//EN" "http://www.w3.org/Graphics/SVG/1.1/DTD/svg11.dtd">
<svg version="1.1" id="Layer_1" xmlns="http://www.w3.org/2000/svg" xmlns:xlink="http://www.w3.org/1999/xlink" x="0px" y="0px"
	 width="200px" height="100px" viewBox="0 0 200 100" enable-background="new 0 0 200 100" xml:space="preserve">
<path d="M31.238,23.854l37.916,39.721V25.916h5.42v50.813L36.654,37.07v32.143h-5.416V23.854z"/>
<path d="M98.104,68.855c-2.189,0-4.258-0.406-6.189-1.225c-1.936-0.813-3.623-1.943-5.061-3.385c-1.443-1.439-2.58-3.129-3.42-5.063
	c-0.838-1.932-1.258-4.018-1.258-6.252c0-2.238,0.41-4.322,1.227-6.258s1.943-3.631,3.385-5.094
	c1.439-1.461,3.127-2.609,5.063-3.447c1.936-0.84,4.021-1.26,6.254-1.26c2.236,0,4.322,0.42,6.256,1.26
	c1.936,0.838,3.623,1.986,5.063,3.447c1.439,1.463,2.568,3.158,3.385,5.094s1.221,4.02,1.221,6.258c0,2.234-0.414,4.32-1.25,6.252
	c-0.844,1.934-1.98,3.623-3.418,5.063c-1.443,1.441-3.129,2.572-5.059,3.385C102.359,68.449,100.297,68.855,98.104,68.855z
	 M98.104,41.645c-1.59,0-3.053,0.303-4.385,0.902c-1.332,0.602-2.471,1.41-3.416,2.416c-0.947,1.016-1.678,2.195-2.193,3.551
	c-0.516,1.354-0.773,2.803-0.773,4.352s0.258,2.996,0.773,4.354c0.516,1.352,1.246,2.547,2.193,3.576
	c0.945,1.031,2.084,1.838,3.416,2.422c1.332,0.578,2.795,0.869,4.385,0.869s3.055-0.291,4.385-0.869
	c1.334-0.584,2.471-1.391,3.412-2.422c0.951-1.029,1.682-2.225,2.197-3.576c0.516-1.357,0.777-2.805,0.777-4.354
	s-0.262-2.998-0.777-4.352c-0.516-1.355-1.246-2.535-2.197-3.551c-0.941-1.006-2.078-1.814-3.412-2.416
	C101.158,41.947,99.693,41.645,98.104,41.645z"/>
<path d="M114.764,74.287H82.52l3.18-3.223h25.973L114.764,74.287z"/>
<path d="M114.055,29.912l2.838-5.029h10.645v41.494l-5.424-10.525V29.912H114.055z"/>
<path d="M74.24,30.002v29.209l-5.414,10.527v-44.77h42.992l-2.91,5.033H74.24z"/>
<path d="M168.293,69.459v5.029H136.83l22.764-21.891c0.984-1.158,1.775-2.406,2.385-3.74c0.6-1.33,0.904-2.795,0.904-4.387
	c0-1.332-0.26-2.578-0.777-3.74c-0.514-1.158-1.215-2.158-2.092-2.998c-0.883-0.838-1.904-1.494-3.064-1.967
	c-1.162-0.473-2.414-0.711-3.744-0.711c-1.463,0-2.793,0.26-3.996,0.775c-1.205,0.514-2.221,1.215-3.063,2.096
	c-0.838,0.885-1.5,1.936-1.963,3.16c-0.477,1.225-0.74,2.545-0.773,3.965h-5.42c0.043-2.105,0.447-4.084,1.225-5.932
	c0.773-1.846,1.826-3.439,3.16-4.771c1.332-1.334,2.902-2.387,4.707-3.16c1.807-0.773,3.783-1.16,5.932-1.16
	c2.02,0,3.955,0.354,5.801,1.066c1.848,0.705,3.477,1.697,4.871,2.963c1.396,1.268,2.514,2.783,3.357,4.547
	c0.836,1.764,1.25,3.697,1.25,5.805c0,3.998-1.221,7.412-3.67,10.252l-16.836,14.799H168.293z"/>
<path d="M127.025,55.66c-0.598,1.328-0.004,2.795-0.004,4.381c0,1.334,0.258,2.582,0.771,3.74c0.514,1.162,1.217,2.164,2.092,3
	c0.883,0.838,1.908,1.49,3.068,1.969c1.162,0.473,2.408,0.709,3.74,0.709c1.465,0,2.793-0.258,3.994-0.777
	c1.205-0.516,2.367-0.98,3.258-1.799c1.348-1.234,7.516-3.338,6.74-1.492c-0.775,1.855-2.723,3.445-4.057,4.777
	s-2.002,2.385-3.813,3.156c-1.807,0.777-3.783,1.164-5.934,1.164c-2.014,0-3.951-0.355-5.803-1.064
	c-1.844-0.711-3.469-1.699-4.871-2.969c-1.395-1.268-2.508-2.781-3.346-4.545c-0.844-1.766-1.861-14.533,1.518-16.057
	C124.381,49.854,127.625,54.324,127.025,55.66z"/>
<rect x="140.703" y="69.51" width="27.764" height="4.93"/>
</svg>
