<?xml version="1.0" encoding="utf-8"?>
<!-- Generator: Adobe Illustrator 16.0.0, SVG Export Plug-In . SVG Version: 6.00 Build 0)  -->
<!DOCTYPE svg PUBLIC "-//W3C//DTD SVG 1.1//EN" "http://www.w3.org/Graphics/SVG/1.1/DTD/svg11.dtd">
<svg version="1.1" id="Layer_1" xmlns="http://www.w3.org/2000/svg" xmlns:xlink="http://www.w3.org/1999/xlink" x="0px" y="0px"
	 width="200px" height="100px" viewBox="0 0 200 100" enable-background="new 0 0 200 100" xml:space="preserve">
<path fill="none" stroke="#000000" stroke-width="3" stroke-miterlimit="10" d="M149.737,44.096
	c-0.135-0.195-0.356,0.404-0.593,0.404h-3.578l1.558-4.827c0.083-0.221,0.053-0.068-0.081-0.263c-0.135-0.195-0.356,0.09-0.593,0.09
	h-4.791l7.521-20.668c0.259-0.685,0.164-1.833-0.252-2.435c-0.416-0.603-1.102-1.152-1.834-1.152l-47.631-8.65l-47.63,8.508
	c-0.73,0-1.414,0.333-1.831,0.933c-0.417,0.6-0.514,2.111-0.261,2.795L57.126,39.5h-4.757c-0.236,0-0.458-0.642-0.592-0.447
	c-0.135,0.195-0.165,0.778-0.081,1l1.556,4.447h-3.578c-0.236,0-0.458-0.599-0.592-0.404c-0.135,0.195-0.165,0.085-0.081,0.307
	l4.672,12.988c0.106,0.279,0.374,1.109,0.673,1.109h4.123l1.28,3.458c0.106,0.28,0.374,0.542,0.673,0.542h5.125l6.242,15.938
	c0.18,0.488,0.526,0.447,0.976,0.707l25.582,14.539c0.345,0.199,0.729,0.187,1.115,0.187c0.386,0,0.772-0.156,1.119-0.356
	l25.081-14.569c0.445-0.257,0.787,0.225,0.968-0.256l6.448-16.188h5.318c0.3,0,0.567-0.262,0.674-0.542l1.279-3.458h4.123
	c0.3,0,0.567-1.008,0.674-1.289l4.672-12.396C149.901,44.593,149.871,44.291,149.737,44.096z"/>
<path d="M99.463,48.804c-0.067,0-0.135-0.01-0.201-0.029l-29.813-8.66c-0.344-0.1-0.563-0.438-0.512-0.793
	c0.051-0.355,0.354-0.619,0.713-0.619h59.626c0.358,0,0.662,0.264,0.713,0.619s-0.168,0.693-0.512,0.793l-29.813,8.66
	C99.598,48.794,99.531,48.804,99.463,48.804z"/>
</svg>
