<?xml version="1.0" encoding="utf-8"?>
<!-- Generator: Adobe Illustrator 25.2.1, SVG Export Plug-In . SVG Version: 6.00 Build 0)  -->
<svg version="1.1" id="Layer_1" xmlns="http://www.w3.org/2000/svg" xmlns:xlink="http://www.w3.org/1999/xlink" x="0px" y="0px"
	 viewBox="0 0 125 125" style="enable-background:new 0 0 125 125;" xml:space="preserve">
<style type="text/css">
	.st0{display:none;}
	.st1{display:inline;fill:#37424A;}
	.st2{display:inline;fill:none;stroke:#37424A;stroke-miterlimit:10;}
	.st3{display:inline;fill:#FFDF57;}
	.st4{display:inline;}
	.st5{fill:#5BC0DE;}
	.st6{fill:#FFFFFF;}
	.st7{fill:#FFDF57;}
	.st8{display:inline;fill:#FFFFFF;}
	.st9{display:inline;fill:none;stroke:#37424A;stroke-width:3;stroke-miterlimit:10;}
	.st10{clip-path:url(#SVGID_2_);fill:#FFDF57;}
	.st11{clip-path:url(#SVGID_4_);fill:#5BC0DE;}
	.st12{clip-path:url(#SVGID_6_);}
	.st13{fill:none;stroke:#37424A;stroke-miterlimit:10;}
	.st14{clip-path:url(#SVGID_8_);}
	.st15{display:inline;fill:#5BC0DE;}
	.st16{display:inline;fill:none;}
	.st17{fill:none;stroke:#37424A;stroke-width:3;stroke-miterlimit:9.9999;}
	.st18{fill:none;stroke:#37424A;stroke-width:3;stroke-miterlimit:10;}
	.st19{display:inline;fill:none;stroke:#FFFFFF;stroke-width:3;stroke-miterlimit:10;}
	.st20{fill:none;stroke:#FFFFFF;stroke-width:3;stroke-miterlimit:9.9999;}
	.st21{fill:none;stroke:#FFFFFF;stroke-width:3;stroke-miterlimit:10;}
	.st22{fill:#1B1B1B;}
	.st23{fill:#37424A;}
	.st24{fill:#E41D3D;}
	.st25{fill:#005EA2;}
</style>
<g id="Layer_1_1_" class="st0">
	<rect x="-13" y="-13" class="st1" width="151" height="151"/>
	<rect x="-13" y="-13" class="st2" width="151" height="151"/>
</g>
<g id="Layer_5" class="st0">
</g>
<g id="identity-page" class="st0">
	<path class="st3" d="M102.5,48.5c0-21.8-17.8-39.4-39.5-39.4S23.5,26.7,23.4,48.5c-1.2,15.3,12.1,33.1,24.9,50.3
		c4.9,6.5,9.4,12.7,12.9,18.3c0.4,0.6,1,0.9,1.7,0.9c0.7,0,1.3-0.4,1.7-0.9c3.5-5.6,8.1-11.8,12.9-18.3
		C90.4,81.6,103.7,63.8,102.5,48.5z M74.4,96.5c-3.4,4.6-6.7,8.9-9.6,13.1L49.1,32.8c-0.2-1.1-1.2-1.7-2.3-1.5
		c-1.1,0.2-1.7,1.3-1.5,2.3l15.5,75.6c-2.8-4.1-6-8.3-9.3-12.8C39.6,80.6,26.2,62.5,27.3,48.7c0-0.1,0-0.1,0-0.2
		C27.3,28.9,43.3,13,63,13c19.6,0,35.6,16,35.6,35.6c0,0.1,0,0.1,0,0.2C99.7,62.5,86.3,80.6,74.4,96.5z"/>
	<g class="st4">
		<path class="st5" d="M60.8,59.8c-0.3,0-0.5,0-0.8,0c-0.7,0-1.3-0.6-1.3-1.3l-5.3-23.9c0-0.7,0.5-1.3,1.2-1.3
			c0.2,0,20.8,1.7,26.9-4.3c0.2-0.2,0.6-0.4,0.9-0.4c0.2,0,0.3,0,0.5,0.1c0.5,0.2,0.8,0.7,0.8,1.2v21.2c0,0.4-0.2,0.7-0.4,1
			C83,52.3,74.5,59.8,60.8,59.8z"/>
	</g>
	<g class="st4">
		<path class="st6" d="M17.4,62.8c0-0.9-0.7-1.6-1.6-1.6h-25c-0.9,0-1.6,0.7-1.6,1.6c0,0.9,0.7,1.6,1.6,1.6h25
			C16.7,64.4,17.4,63.7,17.4,62.8z"/>
		<path class="st6" d="M20.2,70.2H-1.5c-0.9,0-1.6,0.7-1.6,1.6c0,0.9,0.7,1.6,1.6,1.6h21.7c0.9,0,1.6-0.7,1.6-1.6
			C21.7,70.9,21,70.2,20.2,70.2z"/>
		<path class="st6" d="M-1.5,55.3h15.4c0.9,0,1.6-0.7,1.6-1.6s-0.7-1.6-1.6-1.6H-1.5c-0.9,0-1.6,0.7-1.6,1.6S-2.3,55.3-1.5,55.3z"/>
		<path class="st6" d="M135.4,61.2h-25c-0.9,0-1.6,0.7-1.6,1.6c0,0.9,0.7,1.6,1.6,1.6h25c0.9,0,1.6-0.7,1.6-1.6
			C137,61.9,136.3,61.2,135.4,61.2z"/>
		<path class="st6" d="M127.8,70.2h-21.7c-0.9,0-1.6,0.7-1.6,1.6c0,0.9,0.7,1.6,1.6,1.6h21.7c0.9,0,1.6-0.7,1.6-1.6
			C129.4,70.9,128.7,70.2,127.8,70.2z"/>
		<path class="st6" d="M112.4,55.3h15.4c0.9,0,1.6-0.7,1.6-1.6s-0.7-1.6-1.6-1.6h-15.4c-0.9,0-1.6,0.7-1.6,1.6
			C110.8,54.6,111.5,55.3,112.4,55.3z"/>
	</g>
</g>
<g id="design" class="st0">
	<path class="st1" d="M99.5,49.4c0-20.5-16.7-37.1-37.2-37.1c-20.5,0-37.1,16.6-37.2,37.1C24,63.7,36.5,80.5,48.6,96.7
		c4.6,6.1,8.9,11.9,12.2,17.2c0.3,0.5,0.9,0.9,1.6,0.9c0.6,0,1.2-0.3,1.6-0.9c3.3-5.3,7.6-11.1,12.2-17.2
		C88.2,80.5,100.7,63.7,99.5,49.4z M73.1,94.5c-3.2,4.3-6.3,8.4-9,12.4L49.3,34.7c-0.2-1-1.2-1.6-2.2-1.4c-1,0.2-1.6,1.2-1.4,2.2
		l14.6,71.1c-2.7-3.8-5.6-7.8-8.8-12c-11.2-15-23.8-31.9-22.7-44.9c0-0.1,0-0.1,0-0.2C28.9,31,43.9,16,62.4,16
		c18.5,0,33.5,15,33.5,33.5c0,0.1,0,0.1,0,0.2C97,62.6,84.3,79.6,73.1,94.5z"/>
	<g class="st4">
		<path class="st7" d="M60.3,60c-0.2,0-0.5,0-0.8,0c-0.7,0-1.2-0.6-1.2-1.2l-5-22.5c0-0.6,0.5-1.2,1.2-1.2c0.1,0,19.6,1.6,25.3-4.1
			c0.2-0.2,0.5-0.4,0.9-0.4c0.2,0,0.3,0,0.5,0.1c0.5,0.2,0.8,0.6,0.8,1.1v20c0,0.3-0.1,0.7-0.4,0.9C81.2,53,73.3,60,60.3,60z"/>
	</g>
	<g class="st4">
		<path class="st5" d="M19.5,62.9c0-0.8-0.7-1.5-1.5-1.5H-5.4c-0.8,0-1.5,0.7-1.5,1.5c0,0.8,0.7,1.5,1.5,1.5h23.5
			C18.9,64.3,19.5,63.7,19.5,62.9z"/>
		<path class="st5" d="M22.1,69.8H1.7c-0.8,0-1.5,0.7-1.5,1.5c0,0.8,0.7,1.5,1.5,1.5h20.4c0.8,0,1.5-0.7,1.5-1.5
			C23.6,70.5,22.9,69.8,22.1,69.8z"/>
		<path class="st5" d="M1.7,55.8h14.5c0.8,0,1.5-0.7,1.5-1.5s-0.7-1.5-1.5-1.5H1.7c-0.8,0-1.5,0.7-1.5,1.5
			C0.3,55.1,0.9,55.8,1.7,55.8z"/>
		<path class="st5" d="M130.6,61.4H107c-0.8,0-1.5,0.7-1.5,1.5c0,0.8,0.7,1.5,1.5,1.5h23.5c0.8,0,1.5-0.7,1.5-1.5
			C132,62,131.4,61.4,130.6,61.4z"/>
		<path class="st5" d="M123.4,69.8H103c-0.8,0-1.5,0.7-1.5,1.5c0,0.8,0.7,1.5,1.5,1.5h20.4c0.8,0,1.5-0.7,1.5-1.5
			C124.9,70.5,124.2,69.8,123.4,69.8z"/>
		<path class="st5" d="M108.9,55.8h14.5c0.8,0,1.5-0.7,1.5-1.5s-0.7-1.5-1.5-1.5h-14.5c-0.8,0-1.5,0.7-1.5,1.5
			C107.4,55.1,108.1,55.8,108.9,55.8z"/>
	</g>
</g>
<g id="illu-page" class="st0">
	<path class="st3" d="M35.2,93.5c0,0,0.2,9.5-2.6,12.1c-2.8,2.6-7.9-0.4-12.6,3.4c0,0,2.2-12.6,6.8-12.8"/>
	<path class="st3" d="M26.9,85.1c0,0-9.4-1.7-12.4,0.6c-3,2.3-0.9,7.9-5.3,11.9c0,0,12.8-0.2,13.7-4.7"/>
	<path class="st3" d="M29,94.8c0,0-10.1-1.8-14,0.7c-3.9,2.5-2.9,8.1-8.9,12.5c0,0,9.2,1.8,14.7-4.1"/>
	<polygon class="st8" points="42.1,66.5 22.6,56.5 -8.5,83 25,67.4 35.9,74 	"/>
	<polygon class="st3" points="40.8,67.4 22.2,59.1 -8.5,83 25,67.4 35.9,74 	"/>
	<polygon class="st8" points="54.5,81.5 60.1,102.7 27.5,127.4 49.9,98 45.8,86 	"/>
	<polygon class="st3" points="53.4,82.6 57.5,102.5 27.5,127.4 49.9,98 45.8,86 	"/>
	<path class="st3" d="M26.5,89.6c-1.7,1.4-4.2,1.2-5.6-0.5l0,0c-1.4-1.7-1.2-4.2,0.5-5.6l19.4-16.2c1.7-1.4,4.2-1.2,5.6,0.5l0,0
		c1.4,1.7,1.2,4.2-0.5,5.6L26.5,89.6z"/>
	<path class="st3" d="M36.8,97.4c-1.7,1.4-4.2,1.2-5.6-0.5l0,0c-1.4-1.7-1.2-4.2,0.5-5.6l19.4-16.2c1.7-1.4,4.2-1.2,5.6,0.5l0,0
		c1.4,1.7,1.2,4.2-0.5,5.6L36.8,97.4z"/>
	<path class="st1" d="M36.6,97.7c-1.7,1.4-4.2,1.2-5.6-0.5l0,0c-1.4-1.7-1.2-4.2,0.5-5.6l0.9-0.7c1.7-1.4,0.3,1.9,1.8,3.6l0,0
		c1.4,1.7,5,1.1,3.3,2.5L36.6,97.7z"/>
	<path class="st1" d="M26.4,89.6c-1.7,1.4-4.2,1.2-5.6-0.5l0,0c-1.4-1.7-1.2-4.2,0.5-5.6l0.9-0.7c1.7-1.4,0.3,1.9,1.8,3.6l0,0
		c1.4,1.7,5,1.1,3.3,2.5L26.4,89.6z"/>
	<path class="st3" d="M28.9,97.1c-1.7,1.4-4.2,1.2-5.6-0.5l0,0c-1.4-1.7-1.2-4.2,0.5-5.6l19.4-16.2c1.7-1.4,4.2-1.2,5.6,0.5l0,0
		c1.4,1.7,1.2,4.2-0.5,5.6L28.9,97.1z"/>
	<path class="st1" d="M28.8,97.3c-1.7,1.4-4.2,1.2-5.6-0.5l0,0c-1.4-1.7-1.2-4.2,0.5-5.6l0.9-0.7c1.7-1.4,0.3,1.9,1.8,3.6l0,0
		c1.4,1.7,5,1.1,3.3,2.5L28.8,97.3z"/>
	<path class="st9" d="M104,49.7C103.8,62.1,61,82.6,53.6,82.6c-7.4,0-13.4-6-13.4-13.4c0-7.4,26.1-42.8,39.7-42.5
		C93.5,26.9,104.3,37.2,104,49.7z"/>
	<path class="st3" d="M104,49.7C103.8,62.1,61,82.6,53.6,82.6c-7.4,0-13.4-6-13.4-13.4c0-7.4,26.1-42.8,39.7-42.5
		C93.5,26.9,104.3,37.2,104,49.7z"/>
	<path class="st9" d="M132.4,1.8c8.2,8.6-29.4,53.8-35.7,59.8c-6.3,6-18.1,3.9-26.2-4.7c-8.2-8.6-9.7-20.4-3.4-26.4
		C73.4,24.4,124.2-6.8,132.4,1.8z"/>
	<g id="Layer_4" class="st4">
		<g>
			<g>
				<defs>
					<path id="SVGID_1_" d="M132.4,1.8c8.2,8.6-29.4,53.8-35.7,59.8c-6.3,6-18.1,3.9-26.2-4.7c-8.2-8.6-9.7-20.4-3.4-26.4
						C73.4,24.4,124.2-6.8,132.4,1.8z"/>
				</defs>
				<clipPath id="SVGID_2_">
					<use xlink:href="#SVGID_1_"  style="overflow:visible;"/>
				</clipPath>
				<path class="st10" d="M132.4,1.8c8.2,8.6-29.4,53.8-35.7,59.8c-6.3,6-18.1,3.9-26.2-4.7c-8.2-8.6-9.7-20.4-3.4-26.4
					C73.4,24.4,124.2-6.8,132.4,1.8z"/>
			</g>
		</g>
		<g>
			<g>
				<defs>
					<path id="SVGID_3_" d="M132.4,1.8c8.2,8.6-29.4,53.8-35.7,59.8c-6.3,6-18.1,3.9-26.2-4.7c-8.2-8.6-9.7-20.4-3.4-26.4
						C73.4,24.4,124.2-6.8,132.4,1.8z"/>
				</defs>
				<clipPath id="SVGID_4_">
					<use xlink:href="#SVGID_3_"  style="overflow:visible;"/>
				</clipPath>
				<path class="st11" d="M113.1,2.8c0,0,1.1,14.7,19,17.3l9.4-14.7l-4.7-8.5l-15.4,0.4L113.1,2.8z"/>
			</g>
		</g>
		<g>
			<g>
				<defs>
					<path id="SVGID_5_" d="M132.4,1.8c8.2,8.6-29.4,53.8-35.7,59.8c-6.3,6-18.1,3.9-26.2-4.7c-8.2-8.6-9.7-20.4-3.4-26.4
						C73.4,24.4,124.2-6.8,132.4,1.8z"/>
				</defs>
				<clipPath id="SVGID_6_">
					<use xlink:href="#SVGID_5_"  style="overflow:visible;"/>
				</clipPath>
				<g class="st12">
					<path class="st13" d="M81.9,15.8c0,0-7.9,33.3,34.6,33.3"/>
				</g>
			</g>
		</g>
		<g>
			<g>
				<defs>
					<path id="SVGID_7_" d="M132.4,1.8c8.2,8.6-29.4,53.8-35.7,59.8c-6.3,6-18.1,3.9-26.2-4.7c-8.2-8.6-9.7-20.4-3.4-26.4
						C73.4,24.4,124.2-6.8,132.4,1.8z"/>
				</defs>
				<clipPath id="SVGID_8_">
					<use xlink:href="#SVGID_7_"  style="overflow:visible;"/>
				</clipPath>
				<g class="st14">
					<path class="st13" d="M112.1-5.6c0,0-8.1,27.1,26.9,29.1"/>
				</g>
			</g>
		</g>
	</g>
	<circle class="st1" cx="60.4" cy="77.9" r="1.3"/>
	<circle class="st1" cx="68.5" cy="73.6" r="2"/>
	<circle class="st1" cx="96" cy="33.1" r="8.2"/>
	<circle class="st15" cx="96" cy="33.1" r="6.9"/>
	<circle class="st16" cx="96" cy="33.1" r="6.9"/>
</g>
<g id="work-page" class="st0">
	<rect x="48.3" y="8.1" class="st3" width="1.6" height="1.6"/>
	<rect x="28.4" y="17" class="st3" width="1.6" height="1.6"/>
	<rect x="111.2" y="102.2" class="st8" width="1.6" height="1.6"/>
	<rect x="91.3" y="111.1" class="st3" width="1.6" height="1.6"/>
	<rect x="34.5" y="-6.5" class="st8" width="1.6" height="1.6"/>
	<rect x="43.4" y="41.8" class="st8" width="1.2" height="1.2"/>
	<rect x="113.6" y="3.7" class="st3" width="1.2" height="1.2"/>
	<rect x="-5.4" y="113.2" class="st8" width="1.2" height="1.2"/>
	<g class="st4">
		<polygon class="st6" points="84.1,44.9 95,34 84.1,23.1 77.5,29.8 71.4,23.7 60.5,34.6 64.7,38.7 55.8,47.5 52.8,44.5 34.2,63.1 
			52.8,81.7 71.4,63.1 66.7,58.4 76.1,49 72,44.9 78,38.8 		"/>
		<rect x="74" y="5" transform="matrix(0.7073 -0.7069 0.7069 0.7073 16.8713 56.842)" class="st6" width="6.2" height="6.2"/>
	</g>
	<polygon class="st9" points="92.2,8.1 90.4,9.9 84.5,4.1 73.6,14.9 79.5,20.8 73.6,26.7 92.2,45.3 110.8,26.7 	"/>
	<polygon class="st3" points="92.2,8.1 90.4,9.9 84.5,4.1 73.6,14.9 79.5,20.8 73.6,26.7 92.2,45.3 110.8,26.7 	"/>
	<g class="st4">
		
			<rect x="61.2" y="47.6" transform="matrix(0.7071 -0.7071 0.7071 0.7071 -21.1927 70.3762)" class="st17" width="26.3" height="26.3"/>
		<polygon class="st18" points="109.3,29.3 114,24.6 104.8,15.4 103.3,17 99.2,12.8 93.7,18.3 97.8,22.4 95.7,24.6 99.9,28.8 
			90.6,38.1 86.6,34.1 83,37.7 79.1,33.8 73.6,39.3 77.5,43.2 77.4,43.2 86.6,52.4 90.9,48 104.4,61.5 123,42.9 		"/>
	</g>
	<g class="st4">
		
			<rect x="61.2" y="47.6" transform="matrix(0.7071 -0.7071 0.7071 0.7071 -21.1927 70.3762)" class="st5" width="26.3" height="26.3"/>
		<polygon class="st5" points="109.3,29.3 114,24.6 104.8,15.4 103.3,17 99.2,12.8 93.7,18.3 97.8,22.4 95.7,24.6 99.9,28.8 
			90.6,38.1 86.6,34.1 83,37.7 79.1,33.8 73.6,39.3 77.5,43.2 77.4,43.2 86.6,52.4 90.9,48 104.4,61.5 123,42.9 		"/>
	</g>
	<polygon class="st9" points="124.9,59.5 128.8,55.6 124.9,51.6 124.1,52.5 120.9,49.4 127.1,42.9 116.6,32 112.4,36.4 110.2,34.1 
		107.6,36.8 103.3,32.4 96.6,39.3 101,43.9 94.6,50.3 89.1,44.6 79.9,54.1 77.1,51.2 73.3,55.1 73.5,55.4 62.3,55.4 58,55.4 
		58.2,55.1 54.4,51.2 50.5,55.1 50.7,55.4 23.9,55.4 20.3,51.5 17.8,54.1 11.4,47.4 4.7,54.3 5.7,55.4 5.3,55.4 5.5,55.1 1.7,51.2 
		-2.2,55.1 -2,55.4 -2.2,55.4 0.9,58.5 -0.9,60.4 1.7,63.1 3.6,61.1 10.8,68.4 8.8,70.6 12.5,74.4 10.8,76.2 21.3,87.1 24,84.4 
		26.6,87.1 28,85.6 30.9,88.5 27.5,92.1 31.3,96 33.5,93.7 35.8,96 37.1,94.7 38.4,96 33.9,100.6 40.6,107.5 45.2,102.8 47.3,104.9 
		44.5,107.8 55,118.7 58,115.6 62.3,119.9 65.4,116.8 70.4,122 80.9,111.1 76.1,106.1 77.3,104.9 79.8,107.5 86.5,100.5 84.1,98.1 
		85.9,96.3 86.9,97.3 90.7,93.3 89.8,92.4 92,90.2 94.9,93.2 98.8,89.2 96.9,87.3 99.4,84.7 104.1,89.6 110.8,82.7 107.4,79.1 
		110.2,76.2 108.1,74.1 110,72.1 112,74.1 115.8,70.2 114,68.2 123.8,58.4 	"/>
	<polygon class="st3" points="124.9,59.5 128.8,55.6 124.9,51.6 124.1,52.5 120.9,49.4 127.1,42.9 116.6,32 112.4,36.4 110.2,34.1 
		107.6,36.8 103.3,32.4 96.6,39.3 101,43.9 94.6,50.3 89.1,44.6 79.9,54.1 77.1,51.2 73.3,55.1 73.5,55.4 62.3,55.4 58,55.4 
		58.2,55.1 54.4,51.2 50.5,55.1 50.7,55.4 23.9,55.4 20.3,51.5 17.8,54.1 11.4,47.4 4.7,54.3 5.7,55.4 5.3,55.4 5.5,55.1 1.7,51.2 
		-2.2,55.1 -2,55.4 -2.2,55.4 0.9,58.5 -0.9,60.4 1.7,63.1 3.6,61.1 10.8,68.4 8.8,70.6 12.5,74.4 10.8,76.2 21.3,87.1 24,84.4 
		26.6,87.1 28,85.6 30.9,88.5 27.5,92.1 31.3,96 33.5,93.7 35.8,96 37.1,94.7 38.4,96 33.9,100.6 40.6,107.5 45.2,102.8 47.3,104.9 
		44.5,107.8 55,118.7 58,115.6 62.3,119.9 65.4,116.8 70.4,122 80.9,111.1 76.1,106.1 77.3,104.9 79.8,107.5 86.5,100.5 84.1,98.1 
		85.9,96.3 86.9,97.3 90.7,93.3 89.8,92.4 92,90.2 94.9,93.2 98.8,89.2 96.9,87.3 99.4,84.7 104.1,89.6 110.8,82.7 107.4,79.1 
		110.2,76.2 108.1,74.1 110,72.1 112,74.1 115.8,70.2 114,68.2 123.8,58.4 	"/>
	<rect x="56" y="87.8" transform="matrix(0.7072 -0.707 0.707 0.7072 -46.4354 67.0783)" class="st1" width="3.6" height="3.6"/>
	
		<rect x="56.4" y="91.7" transform="matrix(0.7069 -0.7073 0.7073 0.7069 -49.0522 68.5229)" class="st1" width="3.6" height="3.6"/>
	
		<rect x="60.6" y="92.4" transform="matrix(0.7076 -0.7066 0.7066 0.7076 -48.3295 71.6432)" class="st1" width="3.6" height="3.6"/>
	<rect x="56.4" y="83.7" transform="matrix(0.7071 -0.7071 0.7071 0.7071 -43.21 65.7562)" class="st1" width="2.7" height="2.7"/>
	
		<rect x="65.6" y="92.9" transform="matrix(0.7076 -0.7066 0.7066 0.7076 -47.0382 74.9236)" class="st1" width="2.7" height="2.7"/>
</g>
<g id="Layer_6_copy" class="st0">
	<rect x="43.3" y="6.1" class="st3" width="1.6" height="1.6"/>
	<rect x="23.4" y="15" class="st3" width="1.6" height="1.6"/>
	<rect x="106.2" y="100.2" class="st1" width="1.6" height="1.6"/>
	<rect x="86.3" y="109.1" class="st3" width="1.6" height="1.6"/>
	<rect x="29.5" y="-8.5" class="st1" width="1.6" height="1.6"/>
	<rect x="38.4" y="39.8" class="st1" width="1.2" height="1.2"/>
	<rect x="108.6" y="1.7" class="st3" width="1.2" height="1.2"/>
	<rect x="-10.4" y="111.2" class="st1" width="1.2" height="1.2"/>
	<g class="st4">
		<polygon class="st7" points="79.1,42.9 90,32 79.1,21.1 72.5,27.8 66.4,21.7 55.5,32.6 59.7,36.7 50.8,45.5 47.8,42.5 29.2,61.1 
			47.8,79.7 66.4,61.1 61.7,56.4 71.1,47 67,42.9 73,36.8 		"/>
		<rect x="69" y="3" transform="matrix(0.7073 -0.7069 0.7069 0.7073 16.8211 52.7224)" class="st7" width="6.2" height="6.2"/>
	</g>
	<polygon class="st19" points="87.2,6.1 85.4,7.9 79.5,2.1 68.6,12.9 74.5,18.8 68.6,24.7 87.2,43.3 105.8,24.7 	"/>
	<polygon class="st3" points="87.2,6.1 85.4,7.9 79.5,2.1 68.6,12.9 74.5,18.8 68.6,24.7 87.2,43.3 105.8,24.7 	"/>
	<g class="st4">
		
			<rect x="56.2" y="45.6" transform="matrix(0.7071 -0.7071 0.7071 0.7071 -21.2433 66.2542)" class="st20" width="26.3" height="26.3"/>
		<polygon class="st21" points="104.3,27.3 109,22.6 99.8,13.4 98.3,15 94.2,10.8 88.7,16.3 92.8,20.4 90.7,22.6 94.9,26.8 
			85.6,36.1 81.6,32.1 78,35.7 74.1,31.8 68.6,37.3 72.5,41.2 72.4,41.2 81.6,50.4 85.9,46 99.4,59.5 118,40.9 		"/>
	</g>
	<g class="st4">
		
			<rect x="56.2" y="45.6" transform="matrix(0.7071 -0.7071 0.7071 0.7071 -21.2433 66.2542)" class="st5" width="26.3" height="26.3"/>
		<polygon class="st5" points="104.3,27.3 109,22.6 99.8,13.4 98.3,15 94.2,10.8 88.7,16.3 92.8,20.4 90.7,22.6 94.9,26.8 
			85.6,36.1 81.6,32.1 78,35.7 74.1,31.8 68.6,37.3 72.5,41.2 72.4,41.2 81.6,50.4 85.9,46 99.4,59.5 118,40.9 		"/>
	</g>
	<polygon class="st19" points="119.9,57.5 123.8,53.6 119.9,49.6 119.1,50.5 115.9,47.4 122.1,40.9 111.6,30 107.4,34.4 105.2,32.1 
		102.6,34.8 98.3,30.4 91.6,37.3 96,41.9 89.6,48.3 84.1,42.6 74.9,52.1 72.1,49.2 68.3,53.1 68.5,53.4 57.3,53.4 53,53.4 
		53.2,53.1 49.4,49.2 45.5,53.1 45.7,53.4 18.9,53.4 15.3,49.5 12.8,52.1 6.4,45.4 -0.3,52.3 0.7,53.4 0.3,53.4 0.5,53.1 -3.3,49.2 
		-7.2,53.1 -7,53.4 -7.2,53.4 -4.1,56.5 -5.9,58.4 -3.3,61.1 -1.4,59.1 5.8,66.4 3.8,68.6 7.5,72.4 5.8,74.2 16.3,85.1 19,82.4 
		21.6,85.1 23,83.6 25.9,86.5 22.5,90.1 26.3,94 28.5,91.7 30.8,94 32.1,92.7 33.4,94 28.9,98.6 35.6,105.5 40.2,100.8 42.3,102.9 
		39.5,105.8 50,116.7 53,113.6 57.3,117.9 60.4,114.8 65.4,120 75.9,109.1 71.1,104.1 72.3,102.9 74.8,105.5 81.5,98.5 79.1,96.1 
		80.9,94.3 81.9,95.3 85.7,91.3 84.8,90.4 87,88.2 89.9,91.2 93.8,87.2 91.9,85.3 94.4,82.7 99.1,87.6 105.8,80.7 102.4,77.1 
		105.2,74.2 103.1,72.1 105,70.1 107,72.1 110.8,68.2 109,66.2 118.8,56.4 	"/>
	<polygon class="st3" points="119.9,57.5 123.8,53.6 119.9,49.6 119.1,50.5 115.9,47.4 122.1,40.9 111.6,30 107.4,34.4 105.2,32.1 
		102.6,34.8 98.3,30.4 91.6,37.3 96,41.9 89.6,48.3 84.1,42.6 74.9,52.1 72.1,49.2 68.3,53.1 68.5,53.4 57.3,53.4 53,53.4 
		53.2,53.1 49.4,49.2 45.5,53.1 45.7,53.4 18.9,53.4 15.3,49.5 12.8,52.1 6.4,45.4 -0.3,52.3 0.7,53.4 0.3,53.4 0.5,53.1 -3.3,49.2 
		-7.2,53.1 -7,53.4 -7.2,53.4 -4.1,56.5 -5.9,58.4 -3.3,61.1 -1.4,59.1 5.8,66.4 3.8,68.6 7.5,72.4 5.8,74.2 16.3,85.1 19,82.4 
		21.6,85.1 23,83.6 25.9,86.5 22.5,90.1 26.3,94 28.5,91.7 30.8,94 32.1,92.7 33.4,94 28.9,98.6 35.6,105.5 40.2,100.8 42.3,102.9 
		39.5,105.8 50,116.7 53,113.6 57.3,117.9 60.4,114.8 65.4,120 75.9,109.1 71.1,104.1 72.3,102.9 74.8,105.5 81.5,98.5 79.1,96.1 
		80.9,94.3 81.9,95.3 85.7,91.3 84.8,90.4 87,88.2 89.9,91.2 93.8,87.2 91.9,85.3 94.4,82.7 99.1,87.6 105.8,80.7 102.4,77.1 
		105.2,74.2 103.1,72.1 105,70.1 107,72.1 110.8,68.2 109,66.2 118.8,56.4 	"/>
	<rect x="51" y="85.8" transform="matrix(0.7072 -0.707 0.707 0.7072 -46.4853 62.9576)" class="st1" width="3.6" height="3.6"/>
	<rect x="51.4" y="89.7" transform="matrix(0.707 -0.7072 0.7072 0.707 -49.1036 64.3869)" class="st1" width="3.6" height="3.6"/>
	<rect x="55.6" y="90.4" transform="matrix(0.7077 -0.7066 0.7066 0.7077 -48.38 67.5118)" class="st1" width="3.6" height="3.6"/>
	<rect x="51.4" y="81.7" transform="matrix(0.7071 -0.7071 0.7071 0.7071 -43.26 61.6351)" class="st1" width="2.7" height="2.7"/>
	
		<rect x="60.7" y="90.9" transform="matrix(0.7075 -0.7067 0.7067 0.7075 -47.0792 70.8182)" class="st1" width="2.7" height="2.7"/>
</g>
<g id="dev" class="st0">
	<path class="st1" d="M4.1,113.8c1.1,0,2.1-0.9,2.1-2.1V13.3c0-1.1-0.9-2.1-2.1-2.1c-1.1,0-2.1,0.9-2.1,2.1v98.4
		C2.1,112.9,3,113.8,4.1,113.8z"/>
	<path class="st1" d="M2.1,13.3c0,1.1,0.9,2.1,2.1,2.1h118.1c1.1,0,2.1-0.9,2.1-2.1c0-1.1-0.9-2.1-2.1-2.1H4.1
		C3,11.2,2.1,12.1,2.1,13.3z"/>
	<path class="st1" d="M2.1,27.8c0,1.1,0.9,2.1,2.1,2.1h118.1c1.1,0,2.1-0.9,2.1-2.1c0-1.1-0.9-2.1-2.1-2.1H4.1
		C3,25.7,2.1,26.7,2.1,27.8z"/>
	<path class="st1" d="M2.1,111.7c0,1.1,0.9,2.1,2.1,2.1h118.1c1.1,0,2.1-0.9,2.1-2.1c0-1.1-0.9-2.1-2.1-2.1H4.1
		C3,109.6,2.1,110.6,2.1,111.7z"/>
	<path class="st1" d="M122.3,113.8c1.1,0,2.1-0.9,2.1-2.1V13.3c0-1.1-0.9-2.1-2.1-2.1c-1.1,0-2.1,0.9-2.1,2.1v98.4
		C120.2,112.9,121.1,113.8,122.3,113.8z"/>
	<path class="st1" d="M50.2,101c0.7,0.3,1.4,0,1.7-0.7l25.2-61.9c0.3-0.7-0.1-1.4-0.7-1.7c-0.7-0.3-1.4,0-1.7,0.7L49.5,99.3
		C49.2,100,49.5,100.7,50.2,101z"/>
	<path class="st15" d="M25.4,69.8c0.5,0.5,1.3,0.5,1.8,0l20.1-20.1c0.5-0.5,0.5-1.3,0-1.8c-0.5-0.5-1.3-0.5-1.8,0L25.4,68
		C24.9,68.5,24.9,69.3,25.4,69.8z"/>
	<path class="st15" d="M47.3,89.8c0.5-0.5,0.5-1.3,0-1.8L27.2,67.9c-0.5-0.5-1.3-0.5-1.8,0c-0.5,0.5-0.5,1.3,0,1.8l20.1,20.1
		C45.9,90.3,46.8,90.3,47.3,89.8z"/>
	<path class="st3" d="M101.1,67.9c-0.5-0.5-1.3-0.5-1.8,0L79.2,87.9c-0.5,0.5-0.5,1.3,0,1.8c0.5,0.5,1.3,0.5,1.8,0l20.1-20.1
		C101.6,69.2,101.6,68.4,101.1,67.9z"/>
	<path class="st3" d="M79.2,47.9c-0.5,0.5-0.5,1.3,0,1.8l20.1,20.1c0.5,0.5,1.3,0.5,1.8,0c0.5-0.5,0.5-1.3,0-1.8L81.1,47.9
		C80.6,47.4,79.7,47.4,79.2,47.9z"/>
	<circle class="st1" cx="90" cy="20.6" r="3.3"/>
	<circle class="st1" cx="101.8" cy="20.6" r="3.3"/>
	<circle class="st1" cx="113.6" cy="20.6" r="3.3"/>
</g>
<g id="dev_copy" class="st0">
	<path class="st1" d="M12.9,106.1c1,0,1.8-0.8,1.8-1.8V20.6c0-1-0.8-1.8-1.8-1.8c-1,0-1.8,0.8-1.8,1.8v83.8
		C11.2,105.4,12,106.1,12.9,106.1z"/>
	<path class="st1" d="M11.2,20.6c0,1,0.8,1.8,1.8,1.8h100.5c1,0,1.8-0.8,1.8-1.8c0-1-0.8-1.8-1.8-1.8H12.9
		C12,18.9,11.2,19.6,11.2,20.6z"/>
	<path class="st1" d="M11.2,33c0,1,0.8,1.8,1.8,1.8h100.5c1,0,1.8-0.8,1.8-1.8c0-1-0.8-1.8-1.8-1.8H12.9C12,31.2,11.2,32,11.2,33z"
		/>
	<path class="st1" d="M11.2,104.4c0,1,0.8,1.8,1.8,1.8h100.5c1,0,1.8-0.8,1.8-1.8c0-1-0.8-1.8-1.8-1.8H12.9
		C12,102.6,11.2,103.4,11.2,104.4z"/>
	<path class="st1" d="M113.5,106.1c1,0,1.8-0.8,1.8-1.8V20.6c0-1-0.8-1.8-1.8-1.8c-1,0-1.8,0.8-1.8,1.8v83.8
		C111.7,105.4,112.5,106.1,113.5,106.1z"/>
	<path class="st1" d="M52.1,95.2c0.6,0.2,1.2,0,1.4-0.6L75,42c0.2-0.6,0-1.2-0.6-1.4c-0.6-0.2-1.2,0-1.4,0.6L51.5,93.8
		C51.3,94.4,51.6,95,52.1,95.2z"/>
	<path class="st15" d="M31,68.7c0.4,0.4,1.1,0.4,1.6,0l17.1-17.1c0.4-0.4,0.4-1.1,0-1.6c-0.4-0.4-1.1-0.4-1.6,0L31,67.2
		C30.6,67.6,30.6,68.3,31,68.7z"/>
	<path class="st15" d="M49.6,85.7c0.4-0.4,0.4-1.1,0-1.6L32.6,67.1c-0.4-0.4-1.1-0.4-1.6,0c-0.4,0.4-0.4,1.1,0,1.6l17.1,17.1
		C48.5,86.1,49.2,86.1,49.6,85.7z"/>
	<path class="st3" d="M95.5,67.1c-0.4-0.4-1.1-0.4-1.6,0L76.8,84.1c-0.4,0.4-0.4,1.1,0,1.6c0.4,0.4,1.1,0.4,1.6,0l17.1-17.1
		C95.9,68.2,95.9,67.5,95.5,67.1z"/>
	<path class="st3" d="M76.8,50.1c-0.4,0.4-0.4,1.1,0,1.6l17.1,17.1c0.4,0.4,1.1,0.4,1.6,0c0.4-0.4,0.4-1.1,0-1.6L78.4,50.1
		C78,49.7,77.3,49.7,76.8,50.1z"/>
	<circle class="st1" cx="86" cy="26.8" r="2.8"/>
	<circle class="st1" cx="96" cy="26.8" r="2.8"/>
	<circle class="st1" cx="106.1" cy="26.8" r="2.8"/>
</g>
<g id="extra" class="st0">
	<path class="st1" d="M37.5,243.1c1.1,0.4,2.3-0.1,2.7-1.1l40.2-98.7c0.4-1.1-0.1-2.3-1.1-2.7c-1.1-0.4-2.3,0.1-2.7,1.1l-40.2,98.7
		C35.9,241.5,36.4,242.7,37.5,243.1z"/>
	<path class="st15" d="M-2.2,193.4c0.8,0.8,2.1,0.8,2.9,0l32-32c0.8-0.8,0.8-2.1,0-2.9c-0.8-0.8-2.1-0.8-2.9,0l-32,32
		C-3,191.3-3,192.6-2.2,193.4z"/>
	<path class="st15" d="M32.7,225.2c0.8-0.8,0.8-2.1,0-2.9l-32-32c-0.8-0.8-2.1-0.8-2.9,0c-0.8,0.8-0.8,2.1,0,2.9l32,32
		C30.6,226.1,31.9,226.1,32.7,225.2z"/>
	<path class="st3" d="M118.6,190.3c-0.8-0.8-2.1-0.8-2.9,0l-32,32c-0.8,0.8-0.8,2.1,0,2.9c0.8,0.8,2.1,0.8,2.9,0l32-32
		C119.4,192.5,119.4,191.1,118.6,190.3z"/>
	<path class="st3" d="M83.7,158.5c-0.8,0.8-0.8,2.1,0,2.9l32,32c0.8,0.8,2.1,0.8,2.9,0c0.8-0.8,0.8-2.1,0-2.9l-32-32
		C85.9,157.7,84.5,157.7,83.7,158.5z"/>
	<path class="st15" d="M-73,69.8h-20.4c-0.8,0-1.5,0.7-1.5,1.5c0,0.8,0.7,1.5,1.5,1.5H-73c0.8,0,1.5-0.7,1.5-1.5
		C-71.5,70.5-72.2,69.8-73,69.8z"/>
	<path class="st15" d="M-93.4,55.8h14.5c0.8,0,1.5-0.7,1.5-1.5s-0.7-1.5-1.5-1.5h-14.5c-0.8,0-1.5,0.7-1.5,1.5
		C-94.8,55.1-94.2,55.8-93.4,55.8z"/>
	<path class="st15" d="M-37.8,61.4h-23.5c-0.8,0-1.5,0.7-1.5,1.5c0,0.8,0.7,1.5,1.5,1.5h23.5c0.8,0,1.5-0.7,1.5-1.5
		C-36.3,62-37,61.4-37.8,61.4z"/>
	<path class="st15" d="M-45,69.8h-20.4c-0.8,0-1.5,0.7-1.5,1.5c0,0.8,0.7,1.5,1.5,1.5H-45c0.8,0,1.5-0.7,1.5-1.5
		C-43.5,70.5-44.1,69.8-45,69.8z"/>
	<path class="st15" d="M-59.5,55.8H-45c0.8,0,1.5-0.7,1.5-1.5s-0.7-1.5-1.5-1.5h-14.5c-0.8,0-1.5,0.7-1.5,1.5
		C-60.9,55.1-60.3,55.8-59.5,55.8z"/>
	<path class="st15" d="M-2.2,193.4c0.8,0.8,2.1,0.8,2.9,0l32-32c0.8-0.8,0.8-2.1,0-2.9c-0.8-0.8-2.1-0.8-2.9,0l-32,32
		C-3,191.3-3,192.6-2.2,193.4z"/>
	<path class="st15" d="M32.7,225.2c0.8-0.8,0.8-2.1,0-2.9l-32-32c-0.8-0.8-2.1-0.8-2.9,0c-0.8,0.8-0.8,2.1,0,2.9l32,32
		C30.6,226.1,31.9,226.1,32.7,225.2z"/>
	<path class="st3" d="M118.6,190.3c-0.8-0.8-2.1-0.8-2.9,0l-32,32c-0.8,0.8-0.8,2.1,0,2.9c0.8,0.8,2.1,0.8,2.9,0l32-32
		C119.4,192.5,119.4,191.1,118.6,190.3z"/>
	<path class="st3" d="M83.7,158.5c-0.8,0.8-0.8,2.1,0,2.9l32,32c0.8,0.8,2.1,0.8,2.9,0c0.8-0.8,0.8-2.1,0-2.9l-32-32
		C85.9,157.7,84.5,157.7,83.7,158.5z"/>
	<path class="st15" d="M198.2,129.9c-0.5,0-0.9-0.2-1.3-0.5L162.7,95c-0.7-0.7-0.7-1.8,0-2.5l34.3-34.3c0.3-0.3,0.8-0.5,1.3-0.5
		s0.9,0.2,1.3,0.5l3.4,3.4c0.7,0.7,0.7,1.8,0,2.5l-29.6,29.6l29.6,29.6c0.7,0.7,0.7,1.8,0,2.5l-3.4,3.4
		C199.2,129.7,198.7,129.9,198.2,129.9z"/>
	<path class="st3" d="M265.8,129.9c0.5,0,0.9-0.2,1.3-0.5L301.4,95c0.7-0.7,0.7-1.8,0-2.5l-34.3-34.3c-0.3-0.3-0.8-0.5-1.3-0.5
		s-0.9,0.2-1.3,0.5l-3.4,3.4c-0.7,0.7-0.7,1.8,0,2.5l29.6,29.6l-29.6,29.6c-0.7,0.7-0.7,1.8,0,2.5l3.4,3.4
		C264.9,129.7,265.3,129.9,265.8,129.9z"/>
	<path class="st1" d="M210.6,154.8c-0.2,0-0.4,0-0.7-0.1l-4.4-1.8c-0.9-0.4-1.4-1.4-1-2.3l46.4-117.7c0.2-0.4,0.5-0.8,1-1
		c0.2-0.1,0.5-0.1,0.7-0.1c0.2,0,0.4,0,0.7,0.1l4.4,1.8c0.9,0.4,1.4,1.4,1,2.3l-46.4,117.7c-0.2,0.4-0.5,0.8-1,1
		C211.1,154.7,210.9,154.8,210.6,154.8z"/>
	<path class="st1" d="M37.5,243.1c1.1,0.4,2.3-0.1,2.7-1.1l40.2-98.7c0.4-1.1-0.1-2.3-1.1-2.7c-1.1-0.4-2.3,0.1-2.7,1.1l-40.2,98.7
		C35.9,241.5,36.4,242.7,37.5,243.1z"/>
	<path class="st1" d="M-28.5,84.7c1.1,0,2.1-0.9,2.1-2.1v-33c0-1.1-0.9-2.1-2.1-2.1c-1.1,0-2.1,0.9-2.1,2.1v33
		C-30.6,83.8-29.7,84.7-28.5,84.7z"/>
	<path class="st15" d="M-43.1,49h-23.5c-0.8,0-1.5,0.7-1.5,1.5c0,0.8,0.7,1.5,1.5,1.5h23.5c0.8,0,1.5-0.7,1.5-1.5
		C-41.7,49.7-42.3,49-43.1,49z"/>
	<path class="st15" d="M-50.3,57.5h-20.4c-0.8,0-1.5,0.7-1.5,1.5c0,0.8,0.7,1.5,1.5,1.5h20.4c0.8,0,1.5-0.7,1.5-1.5
		C-48.8,58.2-49.5,57.5-50.3,57.5z"/>
	<path class="st15" d="M-64.8,43.5h14.5c0.8,0,1.5-0.7,1.5-1.5c0-0.8-0.7-1.5-1.5-1.5h-14.5c-0.8,0-1.5,0.7-1.5,1.5
		C-66.3,42.8-65.6,43.5-64.8,43.5z"/>
	<path class="st1" d="M-23.5,106.3c1.1,0,2.1-0.9,2.1-2.1V25c0-1.1-0.9-2.1-2.1-2.1c-1.1,0-2.1,0.9-2.1,2.1v79.3
		C-25.6,105.4-24.7,106.3-23.5,106.3z"/>
	<path class="st15" d="M-63.8,59.7h-23.5c-0.8,0-1.5,0.7-1.5,1.5c0,0.8,0.7,1.5,1.5,1.5h23.5c0.8,0,1.5-0.7,1.5-1.5
		C-62.3,60.4-63,59.7-63.8,59.7z"/>
	<path class="st15" d="M-71,68.2h-20.4c-0.8,0-1.5,0.7-1.5,1.5c0,0.8,0.7,1.5,1.5,1.5H-71c0.8,0,1.5-0.7,1.5-1.5
		C-69.5,68.8-70.1,68.2-71,68.2z"/>
	<path class="st15" d="M-85.5,54.1H-71c0.8,0,1.5-0.7,1.5-1.5c0-0.8-0.7-1.5-1.5-1.5h-14.5c-0.8,0-1.5,0.7-1.5,1.5
		C-86.9,53.5-86.3,54.1-85.5,54.1z"/>
</g>
<g id="self" class="st0">
	<path class="st1" d="M1.1,95.7c1.1,0,2.1-0.9,2.1-2.1V14.3c0-1.1-0.9-2.1-2.1-2.1c-1.1,0-2.1,0.9-2.1,2.1v79.3
		C-0.9,94.8,0,95.7,1.1,95.7z"/>
	<path class="st1" d="M14.8,114.8c1.1,0,2.1-0.9,2.1-2.1V93.6c0-1.1-0.9-2.1-2.1-2.1c-1.1,0-2.1,0.9-2.1,2.1v19.1
		C12.8,113.9,13.7,114.8,14.8,114.8z"/>
	<path class="st1" d="M13.4,114.2c0.8,0.8,2.1,0.8,2.9,0l24.3-18.8c0.8-0.8,0.8-2.1,0-2.9c-0.8-0.8-2.1-0.8-2.9,0l-24.3,18.8
		C12.6,112.1,12.6,113.4,13.4,114.2z"/>
	<path class="st1" d="M123.7,95.7c1.1,0,2.1-0.9,2.1-2.1V14.3c0-1.1-0.9-2.1-2.1-2.1s-2.1,0.9-2.1,2.1v79.3
		C121.7,94.8,122.6,95.7,123.7,95.7z"/>
	<path class="st1" d="M125.8,14.3c0-1.1-0.9-2.1-2.1-2.1H1.1c-1.1,0-2.1,0.9-2.1,2.1c0,1.1,0.9,2.1,2.1,2.1h122.6
		C124.9,16.4,125.8,15.4,125.8,14.3z"/>
	<path class="st1" d="M125.8,93.6c0-1.1-0.9-2.1-2.1-2.1H1.1c-1.1,0-2.1,0.9-2.1,2.1c0,1.1,0.9,2.1,2.1,2.1h122.6
		C124.9,95.7,125.8,94.8,125.8,93.6z"/>
	<path class="st3" d="M110.6,27.8H14.9c-0.8,0-1.5,0.7-1.5,1.5c0,0.8,0.7,1.5,1.5,1.5h95.7c0.8,0,1.5-0.7,1.5-1.5
		C112,28.5,111.4,27.8,110.6,27.8z"/>
	<path class="st15" d="M110.6,38.7H14.9c-0.8,0-1.5,0.7-1.5,1.5c0,0.8,0.7,1.5,1.5,1.5h95.7c0.8,0,1.5-0.7,1.5-1.5
		C112,39.3,111.4,38.7,110.6,38.7z"/>
	<path class="st15" d="M110.6,49.6H14.9c-0.8,0-1.5,0.7-1.5,1.5c0,0.8,0.7,1.5,1.5,1.5h95.7c0.8,0,1.5-0.7,1.5-1.5
		C112,50.2,111.4,49.6,110.6,49.6z"/>
	<path class="st15" d="M78.7,60.4H14.9c-0.8,0-1.5,0.7-1.5,1.5c0,0.8,0.7,1.5,1.5,1.5h63.8c0.8,0,1.5-0.7,1.5-1.5
		C80.2,61.1,79.5,60.4,78.7,60.4z"/>
	<path class="st1" d="M125.8,14.3c0-1.1-0.9-2.1-2.1-2.1H1.1c-1.1,0-2.1,0.9-2.1,2.1c0,1.1,0.9,2.1,2.1,2.1h122.6
		C124.9,16.4,125.8,15.4,125.8,14.3z"/>
	<polygon class="st8" points="16.9,96.4 16.9,88.4 42.4,88.4 31.2,97.4 	"/>
	<circle class="st1" cx="14.8" cy="73.5" r="1.4"/>
	<circle class="st1" cx="28.2" cy="73.5" r="1.4"/>
	<circle class="st1" cx="41.5" cy="73.5" r="1.4"/>
</g>
<g id="self_copy">
	<path class="st22" d="M12.6,89.5c0.9,0,1.7-0.8,1.7-1.7V22.6c0-0.9-0.8-1.7-1.7-1.7c-0.9,0-1.7,0.8-1.7,1.7v65.3
		C10.9,88.8,11.7,89.5,12.6,89.5z"/>
	<path class="st22" d="M23.9,105.2c0.9,0,1.7-0.8,1.7-1.7V87.8c0-0.9-0.8-1.7-1.7-1.7c-0.9,0-1.7,0.8-1.7,1.7v15.7
		C22.2,104.5,23,105.2,23.9,105.2z"/>
	<path class="st22" d="M22.7,104.7c0.7,0.7,1.7,0.7,2.4,0l20-15.5c0.7-0.7,0.7-1.7,0-2.4c-0.7-0.7-1.7-0.7-2.4,0l-20,15.5
		C22,103,22,104.1,22.7,104.7z"/>
	<path class="st22" d="M113.5,89.5c0.9,0,1.7-0.8,1.7-1.7V22.6c0-0.9-0.8-1.7-1.7-1.7c-0.9,0-1.7,0.8-1.7,1.7v65.3
		C111.8,88.8,112.6,89.5,113.5,89.5z"/>
	<path class="st23" d="M115.2,22.6c0-0.9-0.8-1.7-1.7-1.7H12.6c-0.9,0-1.7,0.8-1.7,1.7c0,0.9,0.8,1.7,1.7,1.7h100.9
		C114.4,24.3,115.2,23.5,115.2,22.6z"/>
	<path class="st22" d="M115.2,87.8c0-0.9-0.8-1.7-1.7-1.7H12.6c-0.9,0-1.7,0.8-1.7,1.7c0,0.9,0.8,1.7,1.7,1.7h100.9
		C114.4,89.5,115.2,88.8,115.2,87.8z"/>
	<path class="st24" d="M102.7,33.7H23.9c-0.7,0-1.2,0.5-1.2,1.2c0,0.7,0.5,1.2,1.2,1.2h78.7c0.7,0,1.2-0.5,1.2-1.2
		C103.9,34.2,103.3,33.7,102.7,33.7z"/>
	<path class="st25" d="M102.7,42.6H23.9c-0.7,0-1.2,0.5-1.2,1.2c0,0.7,0.5,1.2,1.2,1.2h78.7c0.7,0,1.2-0.5,1.2-1.2
		C103.9,43.2,103.3,42.6,102.7,42.6z"/>
	<path class="st25" d="M102.7,51.6H23.9c-0.7,0-1.2,0.5-1.2,1.2c0,0.7,0.5,1.2,1.2,1.2h78.7c0.7,0,1.2-0.5,1.2-1.2
		C103.9,52.1,103.3,51.6,102.7,51.6z"/>
	<path class="st25" d="M76.5,60.5H23.9c-0.7,0-1.2,0.5-1.2,1.2c0,0.7,0.5,1.2,1.2,1.2h52.5c0.7,0,1.2-0.5,1.2-1.2
		C77.7,61.1,77.1,60.5,76.5,60.5z"/>
	<path class="st22" d="M115.2,22.6c0-0.9-0.8-1.7-1.7-1.7H12.6c-0.9,0-1.7,0.8-1.7,1.7c0,0.9,0.8,1.7,1.7,1.7h100.9
		C114.4,24.3,115.2,23.5,115.2,22.6z"/>
	<polygon class="st6" points="25.6,90.2 25.6,83.6 46.6,83.6 37.4,91 	"/>
	<circle class="st22" cx="23.9" cy="71.3" r="1.2"/>
	<circle class="st22" cx="34.9" cy="71.3" r="1.2"/>
	<circle class="st22" cx="45.8" cy="71.3" r="1.2"/>
</g>
<g id="illu-post" class="st0">
	<polygon class="st15" points="30.6,88.5 30.6,111.3 52.5,101.4 31.8,86.7 	"/>
	<rect x="76" y="15.3" transform="matrix(0.5385 -0.8426 0.8426 0.5385 14.6657 83.5806)" class="st3" width="15.2" height="26.2"/>
	<path class="st1" d="M30,88.1c1,0.6,2.2,0.3,2.9-0.6l46-71.9c0.6-1,0.3-2.2-0.6-2.9c-1-0.6-2.2-0.3-2.9,0.6l-46,71.9
		C28.7,86.2,29,87.5,30,88.1z"/>
	<path class="st1" d="M52,102.1c1,0.6,2.2,0.3,2.9-0.6l46-71.9c0.6-1,0.3-2.2-0.6-2.8c-1-0.6-2.2-0.3-2.9,0.6l-46,71.9
		C50.8,100.3,51.1,101.5,52,102.1z"/>
	<path class="st1" d="M66.8,26.7c-0.6,1-0.3,2.2,0.6,2.9l22,14.1c1,0.6,2.2,0.3,2.8-0.6c0.6-1,0.3-2.2-0.6-2.8L69.6,26
		C68.7,25.4,67.4,25.7,66.8,26.7z"/>
	<path class="st1" d="M29.4,85.2c-0.6,1-0.3,2.2,0.6,2.9l22,14.1c1,0.6,2.2,0.3,2.8-0.6c0.6-1,0.3-2.2-0.6-2.9l-22-14.1
		C31.2,84,30,84.3,29.4,85.2z"/>
	<path class="st1" d="M31.2,84.5c-1.1-0.1-2.1,0.8-2.2,1.9l-1.5,26.1c-0.1,1.1,0.8,2.1,1.9,2.2c1.1,0.1,2.1-0.8,2.2-1.9l1.5-26.1
		C33.2,85.5,32.3,84.6,31.2,84.5z"/>
	<path class="st1" d="M54.8,99.5c0.5,1,0.2,2.3-0.8,2.8l-23,12.4c-1,0.5-2.3,0.2-2.8-0.8c-0.5-1-0.2-2.3,0.8-2.8l23-12.4
		C53,98.2,54.3,98.5,54.8,99.5z"/>
	<path class="st1" d="M75.3,13.3c-0.6,1-0.3,2.2,0.6,2.9l22,14.1c1,0.6,2.2,0.3,2.8-0.6c0.6-1,0.3-2.2-0.6-2.8l-22-14.1
		C77.2,12.1,75.9,12.4,75.3,13.3z"/>
	<path class="st15" d="M115.6,59.7H92c-0.8,0-1.5,0.7-1.5,1.5c0,0.8,0.7,1.5,1.5,1.5h23.5c0.8,0,1.5-0.7,1.5-1.5
		C117,60.4,116.4,59.7,115.6,59.7z"/>
	<path class="st15" d="M107.4,68.2H87c-0.8,0-1.5,0.7-1.5,1.5c0,0.8,0.7,1.5,1.5,1.5h20.4c0.8,0,1.5-0.7,1.5-1.5
		C108.9,68.8,108.2,68.2,107.4,68.2z"/>
	<path class="st15" d="M97.5,54.1h14.5c0.8,0,1.5-0.7,1.5-1.5c0-0.8-0.7-1.5-1.5-1.5H97.5c-0.8,0-1.5,0.7-1.5,1.5
		C96.1,53.5,96.7,54.1,97.5,54.1z"/>
	<path class="st15" d="M34.2,62.6H10.7c-0.8,0-1.5-0.7-1.5-1.5c0-0.8,0.7-1.5,1.5-1.5h23.5c0.8,0,1.5,0.7,1.5,1.5
		C35.7,61.9,35,62.6,34.2,62.6z"/>
	<path class="st15" d="M39.7,54.1H19.3c-0.8,0-1.5-0.7-1.5-1.5c0-0.8,0.7-1.5,1.5-1.5h20.4c0.8,0,1.5,0.7,1.5,1.5
		C41.2,53.5,40.5,54.1,39.7,54.1z"/>
	<path class="st15" d="M14.2,68.2h14.5c0.8,0,1.5,0.7,1.5,1.5s-0.7,1.5-1.5,1.5H14.2c-0.8,0-1.5-0.7-1.5-1.5
		C12.7,68.8,13.4,68.2,14.2,68.2z"/>
</g>
<g id="Layer_11">
</g>
</svg>
